<svg id="Layer_1" data-name="Layer 1" xmlns="http://www.w3.org/2000/svg" viewBox="0 0 28.29 28.27"><defs><style>.cls-1{fill:#fff;}</style></defs><title>iLink</title><path class="cls-1" d="M15.55,5.08A7.4,7.4,0,1,0,5.08,15.55a7.4,7.4,0,0,0,12.63-5.24A7.31,7.31,0,0,0,15.55,5.08Zm-.73,9.74a6.39,6.39,0,1,1,1.86-4.51A6.36,6.36,0,0,1,14.82,14.82Z"/><path class="cls-1" d="M10.31,5.64A4.34,4.34,0,0,0,7.23,6.92a.52.52,0,0,0,0,.73.5.5,0,0,0,.73,0,3.34,3.34,0,0,1,4.71,0,.52.52,0,0,0,.73-.73A4.37,4.37,0,0,0,10.31,5.64Z"/><path class="cls-1" d="M27.7,24.07,27.63,24V3.79a.52.52,0,0,0-.52-.52H17.85L17.61,3A10.32,10.32,0,0,0,3,17.61l.25.24v9.26a.52.52,0,0,0,.52.52H24l.08.07a2.67,2.67,0,0,0,3.47-.16A2.6,2.6,0,0,0,27.7,24.07ZM26.59,4.31V23l-7.39-7.4.11-.2A10.3,10.3,0,0,0,19,4.77l-.3-.46ZM3.75,16.87a9.27,9.27,0,1,1,6.56,2.72A9.22,9.22,0,0,1,3.75,16.87Zm.55,9.72V18.72l.47.29a10.3,10.3,0,0,0,10.57.31l.2-.11,7.4,7.38Zm22.51.22a1.58,1.58,0,0,1-1.09.44,1.56,1.56,0,0,1-1.07-.42l-8.23-8.2.27-.21a11.84,11.84,0,0,0,.92-.81,11.57,11.57,0,0,0,.8-.91l.21-.27,8.19,8.2A1.57,1.57,0,0,1,26.81,26.81Z"/></svg>