<svg xmlns="http://www.w3.org/2000/svg" viewBox="0 0 20.1 20"><title>Kantar iLink</title><g id="layer"><path d="M18.55,12.55a.51.51,0,0,0-.5.5V17.5a1.5,1.5,0,0,1-1.5,1.5H2.5A1.5,1.5,0,0,1,1,17.5v-13A1.5,1.5,0,0,1,2.5,3H7A.5.5,0,0,0,7,2H2.5A2.5,2.5,0,0,0,0,4.45V17.5A2.5,2.5,0,0,0,2.5,20H16.55a2.5,2.5,0,0,0,2.5-2.5V13.05A.5.5,0,0,0,18.55,12.55Z"/><path d="M18.85.66a2.25,2.25,0,0,0-3.18,0L6.74,9.59a.5.5,0,0,0-.13.22L5.43,14.05a.54.54,0,0,0,.13.49.5.5,0,0,0,.49.13l4.24-1.18a.42.42,0,0,0,.22-.13l8.93-8.93a2.25,2.25,0,0,0,0-3.18Zm-11,9.26,7.31-7.31L17.5,5l-7.31,7.31Zm-.47.94,1.88,1.89-2.6.72ZM18.73,3.73l-.53.53L15.85,1.9l.53-.53a1.25,1.25,0,0,1,1.77,0l.58.59A1.25,1.25,0,0,1,18.73,3.73Z"/></g></svg>