<svg xmlns="http://www.w3.org/2000/svg" viewBox="0 0 26 26"><title>Kantar iLink</title><g id="layer"><path d="M19.75,15a.38.38,0,0,0-.39.39V19a1.2,1.2,0,0,1-1.2,1.19H7A1.2,1.2,0,0,1,5.81,19V8.59A1.19,1.19,0,0,1,7,7.4h3.54a.4.4,0,0,0,0-.8H7a2,2,0,0,0-2,2V19a2,2,0,0,0,2,2H18.16a2,2,0,0,0,2-2V15.42A.39.39,0,0,0,19.75,15Z"/><path d="M20,5.58a1.79,1.79,0,0,0-2.53,0l-7.09,7.1a.27.27,0,0,0-.1.17l-.94,3.37a.4.4,0,0,0,.49.49l3.37-.93a.42.42,0,0,0,.18-.11l7.09-7.09a1.79,1.79,0,0,0,0-2.53Zm-8.76,7.35L17,7.13,18.91,9l-5.8,5.81Zm-.37.75,1.5,1.5-2.07.57ZM19.9,8l-.42.42L17.6,6.56,18,6.14a1,1,0,0,1,1.4,0l.47.47A1,1,0,0,1,19.9,8Z"/><path d="M13,26A13,13,0,1,1,26,13,13,13,0,0,1,13,26ZM13,1A12,12,0,1,0,25,13,12,12,0,0,0,13,1Z"/></g></svg>