<svg id="Layer_1" data-name="Layer 1" xmlns="http://www.w3.org/2000/svg" viewBox="0 0 15.74 20"><defs><style>.cls-1{fill:#fdbb14;}.cls-2{fill:#404041;}</style></defs><title>Elements</title><rect class="cls-1" x="2.06" y="4.99" width="11.62" height="14.55"/><path class="cls-2" d="M2.42,20A1.19,1.19,0,0,1,1.2,18.78v-13H0V3.62A1.22,1.22,0,0,1,1.23,2.39H4.11V.48A.47.47,0,0,1,4.58,0H11l.12.09L11.15,0a.45.45,0,0,1,.5.44V2.39h2.86a1.22,1.22,0,0,1,1.23,1.23V5.74H14.55v13A1.2,1.2,0,0,1,13.32,20Zm-.27-1.22a.25.25,0,0,0,.27.27h10.9a.25.25,0,0,0,.27-.27v-13H2.15Zm12.63-14V3.62a.26.26,0,0,0-.27-.28H1.23A.26.26,0,0,0,1,3.62V4.78Zm-4.1-2.39V1H5.06V2.39Z"/><rect class="cls-2" x="10.33" y="7.52" width="0.96" height="10.11"/><rect class="cls-2" x="7.4" y="7.52" width="0.96" height="10.11"/><rect class="cls-2" x="4.47" y="7.52" width="0.96" height="10.11"/></svg>