<svg id="Layer_1" data-name="Layer 1" xmlns="http://www.w3.org/2000/svg" width="15.74" height="19.99" viewBox="0 0 15.74 19.99"><defs><style>.cls-1{fill:#1e1e1e;}</style></defs><title>action_delete_(NR)</title><g id="Layer_3" data-name="Layer 3"><path class="cls-1" d="M2.45,20A1.23,1.23,0,0,1,1.2,18.81V5.8H0V3.66A1.25,1.25,0,0,1,1.25,2.39H4.09V.53A.5.5,0,0,1,4.56,0H11l.08.08L11.16,0a.53.53,0,0,1,.51.53V2.39h2.81a1.25,1.25,0,0,1,1.26,1.24V5.8H14.56V18.74A1.23,1.23,0,0,1,13.36,20H2.45Zm-.23-1.25a.21.21,0,0,0,.2.22H13.29a.2.2,0,0,0,.23-.17V5.8H2.22Zm-1-15.32A.22.22,0,0,0,1,3.65H1V4.77H14.7V3.66a.21.21,0,0,0-.18-.24H1.22Zm3.85-1h5.52V1H5.11Z"/><rect class="cls-1" x="10.28" y="7.49" width="1.04" height="10.13"/><rect class="cls-1" x="7.36" y="7.49" width="1.04" height="10.13"/><rect class="cls-1" x="4.45" y="7.49" width="1.04" height="10.13"/></g></svg>