<svg xmlns="http://www.w3.org/2000/svg" width="21.27" height="18.86" viewBox="0 0 21.27 18.86"><defs><style>.a{fill:#2b231e;}</style></defs><title>iLink SVG Elements_Non-Responsive</title><path class="a" d="M18.82,13.69H20a1.28,1.28,0,0,0,1.29-1.28v-9A1.29,1.29,0,0,0,20,2.07H11.54L10.88.72A1.27,1.27,0,0,0,9.73,0H6.19A1.28,1.28,0,0,0,4.91,1.28v1.3H3.74A1.28,1.28,0,0,0,2.46,3.87v1.3H1.28A1.28,1.28,0,0,0,0,6.45V17.58a1.29,1.29,0,0,0,1.28,1.28h13.8a1.28,1.28,0,0,0,1.28-1.28v-1.3h1.17A1.29,1.29,0,0,0,18.82,15Zm-3,3.89a.74.74,0,0,1-.74.74H1.28a.74.74,0,0,1-.74-.74V6.45a.74.74,0,0,1,.74-.74H4.82a.73.73,0,0,1,.67.42L6,7.24H3.76a.27.27,0,0,0,0,.54H15.08a.75.75,0,0,1,.74.75Zm1.71-1.85H16.36V8.53a1.28,1.28,0,0,0-1.28-1.29H6.64L6,5.89a1.3,1.3,0,0,0-1.16-.72H3V3.87a.74.74,0,0,1,.74-.74H7.38a.75.75,0,0,1,.56.41l.55,1.12H7.28a.27.27,0,1,0,0,.54h10.4a.76.76,0,0,1,.59.73V15A.74.74,0,0,1,17.53,15.73Zm.26-11-.26,0H9.09L8.43,3.3a1.27,1.27,0,0,0-1-.7l-.18,0H5.45V1.28A.74.74,0,0,1,6.19.54H9.73A.77.77,0,0,1,10.4,1l.54,1.11H10a.28.28,0,0,0,0,.55H20a.75.75,0,0,1,.75.74v9.05a.75.75,0,0,1-.75.74H18.82V5.94A1.3,1.3,0,0,0,17.79,4.68Z"/><path class="a" d="M2.27,7.35a.27.27,0,0,0-.22-.11L2,7.26a.28.28,0,0,0-.19.24A.29.29,0,0,0,2,7.76a.27.27,0,0,0,.33-.1h0A.27.27,0,0,0,2.27,7.35Z"/><path class="a" d="M13.89,11.82a1.25,1.25,0,0,0-1.25-1.24H10.11a1.24,1.24,0,0,0-1.24,1.17v.14H3.76a.3.3,0,0,0-.16,0l-1,.75a.27.27,0,0,0-.11.22V14a.27.27,0,0,0,.27.27H4.22a.25.25,0,0,0,.19-.09l.31-.32L5,14.2a.27.27,0,0,0,.2.09H6.48a.25.25,0,0,0,.2-.09L7,13.89l.25.3a.27.27,0,0,0,.21.1H8.86v.14a1.24,1.24,0,0,0,1.24,1.17h2.53a1.25,1.25,0,0,0,1.25-1.24Zm-5,1.93H7.53l-.36-.44a.27.27,0,0,0-.41,0l-.4.45h-1l-.41-.45a.28.28,0,0,0-.4,0l-.43.46H3V13l.85-.61h5Zm4.47.61a.7.7,0,0,1-.7.7H10.11a.7.7,0,0,1-.7-.7V11.82a.7.7,0,0,1,.7-.7h2.53a.7.7,0,0,1,.7.7Z"/><path class="a" d="M11.81,12.22a.87.87,0,1,0,.87.87A.88.88,0,0,0,11.81,12.22Zm0,1.2a.33.33,0,1,1,.33-.33A.32.32,0,0,1,11.81,13.42Z"/><path class="a" d="M21,1a.29.29,0,0,0,.25-.19.29.29,0,0,0-.1-.3A.3.3,0,0,0,21,.47a.24.24,0,0,0-.15,0,.27.27,0,0,0-.1.33h0A.26.26,0,0,0,21,1Z"/><path class="a" d="M19,1a.29.29,0,0,0,.25-.19.29.29,0,0,0-.1-.3A.3.3,0,0,0,19,.47a.24.24,0,0,0-.15,0,.27.27,0,0,0-.1.33h0A.26.26,0,0,0,19,1Z"/><path class="a" d="M17,1a.29.29,0,0,0,.25-.19.29.29,0,0,0-.1-.3A.3.3,0,0,0,17,.47a.24.24,0,0,0-.15,0,.27.27,0,0,0-.1.33h0A.26.26,0,0,0,17,1Z"/><path class="a" d="M15,1a.29.29,0,0,0,.25-.19.29.29,0,0,0-.1-.3A.3.3,0,0,0,15,.47a.24.24,0,0,0-.15,0,.27.27,0,0,0-.1.33h0A.26.26,0,0,0,15,1Z"/><path class="a" d="M13,1a.29.29,0,0,0,.25-.19.29.29,0,0,0-.1-.3A.3.3,0,0,0,13,.47a.24.24,0,0,0-.15,0,.27.27,0,0,0-.1.33h0A.26.26,0,0,0,13,1Z"/></svg>