<svg xmlns="http://www.w3.org/2000/svg" viewBox="0 0 25.26 18.95"><defs><style>.cls-1{fill:#231c1b;}</style></defs><title>Kantar Link Sprite</title><g id="Layer_3" data-name="Layer 3"><path class="cls-1" d="M18.52,5.18V.63a.63.63,0,0,0-.34-.56.65.65,0,0,0-.66,0C13,3.24,10.4,3.65,8.64,3.65h-5A3.61,3.61,0,0,0,0,7.26V8.6a3.61,3.61,0,0,0,3.61,3.61H6l2.62,6.34a.64.64,0,0,0,.59.4.69.69,0,0,0,.24-.05.64.64,0,0,0,.34-.83L7.39,12.21H8.63c6.13,0,8.64,3.24,8.75,3.39a.63.63,0,0,0,.7.23.63.63,0,0,0,.43-.6V10.68a2.82,2.82,0,0,0,0-5.5ZM1.26,8.6V7.26A2.35,2.35,0,0,1,3.61,4.91H5.82v6H3.61A2.35,2.35,0,0,1,1.26,8.6Zm16,5.11a13.24,13.24,0,0,0-8.63-2.77H7.08v-6H8.63c1.81,0,4.4-.37,8.63-3.1Zm1.26-4.36V6.51a1.54,1.54,0,0,1,.92,1.42,1.53,1.53,0,0,1-.92,1.42Zm0,0"/><path class="cls-1" d="M24.62,7.3H22.15a.63.63,0,0,0-.63.63.64.64,0,0,0,.63.64h2.47a.64.64,0,0,0,.64-.64.62.62,0,0,0-.64-.63Zm0,0"/><path class="cls-1" d="M21.28,6a.64.64,0,0,0,.59.4,1,1,0,0,0,.23,0l2.39-.94A.63.63,0,0,0,24,4.21l-2.4.94a.63.63,0,0,0-.35.82Zm0,0"/><path class="cls-1" d="M24.49,10.46,22.1,9.52a.64.64,0,0,0-.82.36.63.63,0,0,0,.35.82l2.4.94a.59.59,0,0,0,.23,0,.63.63,0,0,0,.23-1.22Zm0,0"/></g></svg>