<svg xmlns="http://www.w3.org/2000/svg" viewBox="0 0 18.08 19"><defs><style>.a{fill:#f6b009;}</style></defs><title>iLink SVG Elements_Responsive</title><path class="a" d="M13,6a3,3,0,1,0-3-3h0A3,3,0,0,0,13,6Zm2.54-3.22A2.58,2.58,0,0,1,13.18.45,2.54,2.54,0,0,1,15.49,2.76ZM12.72.45a2.56,2.56,0,0,1-2.31,2.31A2.56,2.56,0,0,1,12.72.45Zm.23.89A3,3,0,0,0,15.49,3.2a2.55,2.55,0,0,1-5.08,0A3,3,0,0,0,13,1.34Z"/><path class="a" d="M15.4,6.8H10.5A2.68,2.68,0,0,0,7.83,9.48v1.17a.22.22,0,0,0,.22.22.22.22,0,0,0,.22-.22V9.48A2.23,2.23,0,0,1,10.5,7.24h4.9a2.24,2.24,0,0,1,2.24,2.24v7.25H13.43a.22.22,0,0,0-.22.22.22.22,0,0,0,.22.22h4.43a.22.22,0,0,0,.22-.22V9.48A2.68,2.68,0,0,0,15.4,6.8Z"/><path class="a" d="M4.31,9.29A2.53,2.53,0,1,0,1.78,6.77h0A2.52,2.52,0,0,0,4.31,9.29ZM6.38,6.53A2.09,2.09,0,0,1,4.54,4.69,2.08,2.08,0,0,1,6.38,6.53ZM4.08,4.69A2.09,2.09,0,0,1,2.23,6.53,2.09,2.09,0,0,1,4.08,4.69Zm.23.8A2.52,2.52,0,0,0,6.39,7,2.09,2.09,0,0,1,2.23,7,2.52,2.52,0,0,0,4.31,5.49Z"/><path class="a" d="M4.74,16.73H.44V12.58a2.24,2.24,0,0,1,2.24-2.24H7.27a.22.22,0,1,0,0-.44H2.68A2.69,2.69,0,0,0,0,12.58V17a.22.22,0,0,0,.22.22H4.74A.22.22,0,0,0,5,17,.22.22,0,0,0,4.74,16.73Z"/><path class="a" d="M9,11.43a3.79,3.79,0,1,0,3.78,3.79h0A3.79,3.79,0,0,0,9,11.43Zm3.34,3.79A3.34,3.34,0,0,1,9,18.56H9a3.35,3.35,0,1,1,3.34-3.34Z"/><path class="a" d="M11.65,4.38h0A4,4,0,0,0,12.78,4a.22.22,0,0,0,.11-.29.23.23,0,0,0-.28-.11h0a3.37,3.37,0,0,1-.95.3.13.13,0,0,1-.12-.09.22.22,0,0,0,0-.31.21.21,0,0,0-.28,0,.4.4,0,0,0-.13.46A.6.6,0,0,0,11.65,4.38Z"/><path class="a" d="M14.24,4.38h0A.57.57,0,0,0,14.78,4a.42.42,0,0,0-.12-.46.22.22,0,0,0-.3.32.11.11,0,0,1-.12.09,3.42,3.42,0,0,1-.94-.3.23.23,0,0,0-.29.12.22.22,0,0,0,.11.28A3.93,3.93,0,0,0,14.24,4.38Z"/><path class="a" d="M10.13,14.08h0L8.67,15.77a.23.23,0,0,1-.17.07.2.2,0,0,1-.16-.07l-.64-.72a.34.34,0,0,0-.26-.12.35.35,0,0,0-.35.35.38.38,0,0,0,.08.23l1.07,1.21a.34.34,0,0,0,.26.12h0a.37.37,0,0,0,.26-.12l1.88-2.17a.35.35,0,0,0,0-.5A.36.36,0,0,0,10.13,14.08Z"/></svg>