<svg xmlns="http://www.w3.org/2000/svg" viewBox="0 0 19 19"><defs><style>.a{fill:#f6b00f;}</style></defs><title>iLink SVG Elements_Responsive</title><path class="a" d="M18.63,12.21H12.84V8.76a.37.37,0,0,0-.37-.37H6.53a.37.37,0,0,0-.37.37v2H.37A.38.38,0,0,0,0,11.1v7.53A.38.38,0,0,0,.37,19H18.63a.38.38,0,0,0,.37-.37v-6A.38.38,0,0,0,18.63,12.21ZM6.16,18.26H.74V11.47H6.16Zm5.94,0H6.9V9.13h5.2Zm6.16,0H12.84V13h5.42Z"/><path class="a" d="M13.18,2.83a.35.35,0,0,0-.3-.25l-2.11-.31-.95-2A.36.36,0,0,0,9.49,0a.36.36,0,0,0-.34.22l-1,2.05-2.11.31a.35.35,0,0,0-.3.25.36.36,0,0,0,.09.38L7.42,4.7,7.05,6.93a.38.38,0,0,0,.15.36.39.39,0,0,0,.39,0l1.9-1,1.89,1a.47.47,0,0,0,.17,0,.41.41,0,0,0,.22-.07.38.38,0,0,0,.15-.36L11.56,4.7l1.53-1.49A.36.36,0,0,0,13.18,2.83ZM10.9,4.31a.35.35,0,0,0-.11.32l.28,1.68L9.66,5.57a.36.36,0,0,0-.35,0L7.9,6.31l.28-1.68a.35.35,0,0,0-.11-.32L6.94,3.2,8.5,3a.34.34,0,0,0,.29-.21l.7-1.5.69,1.5a.34.34,0,0,0,.29.21L12,3.2Z"/></svg>