<svg xmlns="http://www.w3.org/2000/svg" viewBox="0 0 19 19"><defs><style>.a{fill:#ececeb;}</style></defs><title>iLink SVG Elements_Responsive</title><path class="a" d="M19,12.57h0V2.74a1.52,1.52,0,0,0-1.51-1.51h-.95V.87A.87.87,0,0,0,15.67,0H3.33a.87.87,0,0,0-.87.87v.36H1.51A1.52,1.52,0,0,0,0,2.74v9.83H0V13.8a1.52,1.52,0,0,0,1.51,1.51H3A.28.28,0,0,0,3.26,15,.29.29,0,0,0,3,14.75H1.51a.94.94,0,0,1-.95-.95v-1H18.44v1a.94.94,0,0,1-1,.95H4.09a.28.28,0,0,0-.27.28.27.27,0,0,0,.27.28H6.88l-.24,1.9H5.2a.28.28,0,0,0-.28.28v1.23A.27.27,0,0,0,5.2,19h8.6a.27.27,0,0,0,.28-.28V17.49a.28.28,0,0,0-.28-.28H12.36l-.24-1.9h5.37A1.52,1.52,0,0,0,19,13.8V12.58ZM9.16,15.31h.68V16H9.16Zm4.37,3.13H5.47v-.67h8.06ZM11.8,17.21H7.2l.24-1.9H8.61v1a.27.27,0,0,0,.28.28h1.22a.27.27,0,0,0,.28-.28v-1h1.17Zm5.41-4.91h-.67V3h.64s0,0,0,0ZM3,.87A.31.31,0,0,1,3.33.56H15.67A.31.31,0,0,1,16,.87V12.3H3ZM.56,2.74a.94.94,0,0,1,1-1h1v.67H1.82A.58.58,0,0,0,1.23,3v.72A.27.27,0,0,0,1.51,4a.28.28,0,0,0,.28-.27V3s0,0,0,0h.64V12.3H1.79V4.87a.29.29,0,0,0-.28-.28.28.28,0,0,0-.28.28V12.3H.56ZM17.77,12.3V3a.58.58,0,0,0-.59-.58h-.64V1.79h.95a.94.94,0,0,1,1,1V12.3Z"/><path class="a" d="M10.11,14.08a.28.28,0,1,0,0-.55H8.89a.28.28,0,1,0,0,.55Z"/><path class="a" d="M6.89,5.78h.3a.28.28,0,1,0,0-.55h-.3a.28.28,0,1,0,0,.55Z"/><path class="a" d="M5.18,4.3a.87.87,0,0,0-.88.88v.65a.87.87,0,0,0,.88.87h.39a.86.86,0,0,0,.58.58V9.22h0a.58.58,0,0,0-.58.58v.63a.58.58,0,0,0,.58.58H8a.58.58,0,0,0,.58-.58V9.8A.58.58,0,0,0,8,9.22h0V7.32h.3l3.45,1.15v.12a.57.57,0,0,0,.58.57h.63a.57.57,0,0,0,.58-.57V7.29a1.51,1.51,0,0,0,0-3V2.42a.58.58,0,0,0-.58-.58h-.63a.58.58,0,0,0-.58.58v.12L8.23,3.69H6.41a.88.88,0,0,0-.84.61ZM4.86,5.83V5.18a.32.32,0,0,1,.32-.32h.35V6.15H5.18A.32.32,0,0,1,4.86,5.83ZM8,9.8v.63l0,0H6.11l0,0V9.8a0,0,0,0,1,0,0H8A0,0,0,0,1,8,9.8Zm-.61-.58H6.7V7.32h.68Zm6.76-3.41a1,1,0,0,1-.67.91V4.9A1,1,0,0,1,14.14,5.81Zm-1.9-3.39a0,0,0,0,1,0,0h.63a0,0,0,0,1,0,0V8.59l0,0h-.63l0,0V2.42Zm-.56,5.46-3.13-1V4.17l3.13-1ZM6.09,4.56a.31.31,0,0,1,.32-.31H8V6.76H6.41a.31.31,0,0,1-.32-.31V4.56Z"/><path class="a" d="M14.7,10.11a.28.28,0,0,0-.28-.27.27.27,0,0,0-.28.27v.34H13.8a.28.28,0,0,0,0,.56h.34v.33a.27.27,0,0,0,.28.28.28.28,0,0,0,.28-.28V11H15a.28.28,0,1,0,0-.56H14.7Z"/><path class="a" d="M4,2.4H4.3v.34A.29.29,0,0,0,4.58,3a.28.28,0,0,0,.28-.28V2.4H5.2a.27.27,0,0,0,.27-.28.28.28,0,0,0-.27-.28H4.86V1.51a.27.27,0,0,0-.28-.28.28.28,0,0,0-.28.28v.33H4a.28.28,0,0,0-.28.28A.27.27,0,0,0,4,2.4Z"/></svg>