<svg xmlns="http://www.w3.org/2000/svg" viewBox="0 0 18.6 18.6"><defs><style>.a{fill:#ececeb;}</style></defs><title>iLink SVG Elements_Responsive</title><path class="a" d="M9.62,8.15A4.88,4.88,0,0,0,4.81,3.34a4.79,4.79,0,0,0-.53,9.56.2.2,0,0,1,.17.2v2.32a.2.2,0,0,1-.2.2H2.58a.36.36,0,0,0,0,.72H4.25a.2.2,0,0,1,.2.2v1.7a.36.36,0,1,0,.72,0v-1.7a.2.2,0,0,1,.2-.2H7a.36.36,0,0,0,0-.72H5.37a.2.2,0,0,1-.2-.2V13.1a.19.19,0,0,1,.17-.19,6.57,6.57,0,0,0,.72-.14,6.1,6.1,0,0,1-.54-.59,3.42,3.42,0,0,1-.71.07,4.1,4.1,0,0,1,0-8.2,4.16,4.16,0,0,1,4.1,4.1A4,4,0,0,1,8.49,9.9a2.8,2.8,0,0,0,.57.46A4.74,4.74,0,0,0,9.62,8.15Z"/><path class="a" d="M18.6,3.7V.36A.36.36,0,0,0,18.24,0H14.9a.36.36,0,0,0,0,.71h2a.19.19,0,0,1,.18.13.2.2,0,0,1,0,.22L13.62,4.4a.2.2,0,0,1-.26,0,4.74,4.74,0,0,0-3-1.07,4.28,4.28,0,0,0-1.26.19,6.06,6.06,0,0,1,.55.58,4.17,4.17,0,0,1,.71-.06,4.1,4.1,0,0,1,0,8.2,4.16,4.16,0,0,1-4.1-4.1A4,4,0,0,1,6.69,6.4a2.75,2.75,0,0,0-.56-.46,4.62,4.62,0,0,0-.56,2.21A4.87,4.87,0,0,0,10.38,13a4.82,4.82,0,0,0,4.81-4.81,4.76,4.76,0,0,0-1.07-3,.19.19,0,0,1,0-.26l3.42-3.34a.18.18,0,0,1,.21,0,.19.19,0,0,1,.13.18v2a.36.36,0,0,0,.71,0Z"/></svg>