<svg xmlns="http://www.w3.org/2000/svg" viewBox="0 0 19.04 19"><defs><style>.a{fill:#ececeb;}</style></defs><title>iLink SVG Elements_Responsive</title><path class="a" d="M12.5,9.72h.87a.28.28,0,0,0,0-.56H12.5a.28.28,0,0,0,0,.56Zm5.15,3.34H16.59a.28.28,0,1,0,0,.56h1.06a.83.83,0,0,1,.83.83v3.16a.83.83,0,0,1-.83.83H12.27a.84.84,0,0,1-.84-.83V14.45a.84.84,0,0,1,.84-.83h.16A.62.62,0,0,0,13,13v-.14l.5.55a.61.61,0,0,0,.45.2h1.48a.28.28,0,0,0,0-.56H14a0,0,0,0,1,0,0l-.79-.86a.39.39,0,0,0-.68.26V13a0,0,0,0,1-.05.05h-.16a1.4,1.4,0,0,0-1.4,1.39v3.16A1.4,1.4,0,0,0,12.27,19h5.38A1.39,1.39,0,0,0,19,17.61V14.45a1.4,1.4,0,0,0-1.39-1.39Zm-6.27-2.21V8A1.57,1.57,0,0,0,10.1,6.5V4.69A.74.74,0,0,0,9.36,4H8.67A.73.73,0,0,0,8,4.54L3,6.47H1a1,1,0,0,0-1,1v3.9a1,1,0,0,0,.63.9l.85,3.88a.62.62,0,0,0,.6.48h1a.62.62,0,0,0,.49-.23.61.61,0,0,0,.11-.52L2.83,12.3H3L8,14.24a.73.73,0,0,0,.72.58h.69a.74.74,0,0,0,.74-.74v-1.7A1.57,1.57,0,0,0,11.38,10.85ZM.56,11.34V7.44A.41.41,0,0,1,1,7H2.79v4.72H1A.41.41,0,0,1,.56,11.34ZM3.12,16a0,0,0,0,1,0,0,.06.06,0,0,1,0,0h-1A.05.05,0,0,1,2,16l-.81-3.7h1Zm6.42-1.89a.19.19,0,0,1-.18.19H8.67a.19.19,0,0,1-.18-.19V6.38a.28.28,0,0,0-.56,0v7.25L3.35,11.84V6.94L7.93,5.15v.11a.28.28,0,0,0,.56,0V4.69a.18.18,0,0,1,.18-.18h.69a.18.18,0,0,1,.18.18Zm1.28-3.23a1,1,0,0,1-.72,1V7.07a1,1,0,0,1,.72,1Zm1.83-2.29L13.52,8a.27.27,0,1,0-.3-.46l-.87.55a.29.29,0,0,0-.08.39A.27.27,0,0,0,12.65,8.56Zm3.88-6.44H13.38a.28.28,0,1,0,0,.55h3.15a.28.28,0,1,0,0-.55ZM17.65,0H12.27a1.4,1.4,0,0,0-1.4,1.39V4.55a1.4,1.4,0,0,0,1.4,1.39c.05,0,.21,0,.21,0v.57a.39.39,0,0,0,.68.26L14,6s3.65,0,3.7,0A1.4,1.4,0,0,0,19,4.55V1.39A1.39,1.39,0,0,0,17.65,0Zm.83,4.55a.83.83,0,0,1-.83.83H14a.61.61,0,0,0-.45.2l-.5.55V6a.62.62,0,0,0-.61-.61h-.16a.84.84,0,0,1-.84-.83V1.39a.84.84,0,0,1,.84-.83h5.38a.83.83,0,0,1,.83.83V4.55ZM16.53,3.23H13.38a.28.28,0,0,0-.28.28.29.29,0,0,0,.28.28h3.15a.28.28,0,0,0,.28-.28A.27.27,0,0,0,16.53,3.23Zm-3,7.65-.87-.56a.27.27,0,0,0-.38.08.29.29,0,0,0,.08.39l.87.55a.3.3,0,0,0,.15.05.31.31,0,0,0,.24-.13.28.28,0,0,0-.09-.38Zm3,5.34H13.38a.28.28,0,1,0,0,.55h3.15a.28.28,0,1,0,0-.55Zm0-1.12H13.38a.29.29,0,0,0-.28.28.28.28,0,0,0,.28.28h3.15a.27.27,0,0,0,.28-.28A.28.28,0,0,0,16.53,15.1Z"/></svg>