<svg xmlns="http://www.w3.org/2000/svg" viewBox="0 0 23.89 18"><defs><style>.a{fill:#f6b00f;}</style></defs><title>iLink SVG Elements_Responsive</title><path class="a" d="M19.24,0H1.75A1.76,1.76,0,0,0,0,1.75V14.8A3.21,3.21,0,0,0,3.2,18H20.69a3.2,3.2,0,0,0,3.2-3.2V4.65a.29.29,0,0,0-.3-.3H21V1.78A1.8,1.8,0,0,0,19.24,0ZM18.1,1.75a1.15,1.15,0,0,1,.34-.82,1.09,1.09,0,0,1,.84-.32,1.16,1.16,0,0,1,1.11,1.17V13H18.1ZM3.2,17.39A2.59,2.59,0,0,1,.61,14.8v-13A1.14,1.14,0,0,1,1.75.61h16l-.2.56a1.65,1.65,0,0,0-.1.58V14.8a3.17,3.17,0,0,0,.64,1.92l.51.67ZM23.29,5V14.8a2.6,2.6,0,0,1-5.19,0V13.65h2.59a.3.3,0,0,0,.31-.3V5Z"/><path class="a" d="M14.89,2.9H3.2a.3.3,0,0,0-.3.3.31.31,0,0,0,.3.31H14.89a.31.31,0,0,0,.31-.31A.3.3,0,0,0,14.89,2.9Z"/><path class="a" d="M14.89,5.8H3.2a.3.3,0,0,0,0,.6H14.89a.3.3,0,1,0,0-.6Z"/><path class="a" d="M9.1,8.28H3.25A.72.72,0,0,0,2.53,9v5.8a.72.72,0,0,0,.72.72H9.1a.72.72,0,0,0,.72-.72V9A.72.72,0,0,0,9.1,8.28ZM9.28,15H3.07V8.83H9.28Z"/><path class="a" d="M14.89,8.7H12a.3.3,0,1,0,0,.6h2.94a.3.3,0,1,0,0-.6Z"/><path class="a" d="M14.89,11.6H12a.3.3,0,1,0,0,.6h2.94a.3.3,0,1,0,0-.6Z"/><path class="a" d="M14.89,14.49H12a.31.31,0,1,0,0,.61h2.94a.31.31,0,1,0,0-.61Z"/><polygon class="a" points="6.17 13.23 7.22 14.2 7.12 12.77 8.53 12.56 7.35 11.75 8.06 10.51 6.7 10.93 6.17 9.6 5.65 10.93 4.29 10.51 5 11.75 3.82 12.56 5.23 12.77 5.13 14.2 6.17 13.23"/></svg>