<svg xmlns="http://www.w3.org/2000/svg" viewBox="0 0 19 19"><defs><style>.a{fill:#f6b00f;}</style></defs><title>iLink SVG Elements_Responsive</title><path class="a" d="M18.63,12.21H12.84V8.76a.37.37,0,0,0-.37-.37H6.53a.37.37,0,0,0-.37.37v2H.37A.38.38,0,0,0,0,11.1v7.53A.38.38,0,0,0,.37,19H18.63a.38.38,0,0,0,.37-.37v-6A.38.38,0,0,0,18.63,12.21ZM6.16,18.26H.74V11.47H6.16Zm5.94,0H6.9V9.13h5.2Zm6.16,0H12.84V13h5.42Z"/><path class="a" d="M9.15,8.21v-1a2.91,2.91,0,0,1-1.53-.44l.24-.67a2.67,2.67,0,0,0,1.44.43c.71,0,1.18-.41,1.18-1s-.38-.89-1.12-1.19c-1-.4-1.65-.86-1.65-1.73A1.64,1.64,0,0,1,9.22,1V0h.62V1a2.62,2.62,0,0,1,1.29.35L10.88,2a2.37,2.37,0,0,0-1.25-.34c-.77,0-1.06.46-1.06.86s.37.78,1.24,1.14,1.54.94,1.54,1.83a1.74,1.74,0,0,1-1.57,1.7v1Z"/></svg>