<svg xmlns="http://www.w3.org/2000/svg" viewBox="0 0 18.75 18.75"><defs><style>.a{fill:#f6b009;}</style></defs><title>iLink SVG Elements_Responsive</title><path class="a" d="M6.21,4.18H18.75V3.8H7.67V2.92H18.75V2.53H6.21A.51.51,0,0,0,5.7,3v.13H4.18V2.09A2.09,2.09,0,0,0,0,2.09v5.7a2.09,2.09,0,1,0,4.18,0V3.55H5.7v.12A.51.51,0,0,0,6.21,4.18ZM6.08,2.92h1.2V3.8H6.08ZM3.8,7.79a1.71,1.71,0,0,1-3.42,0V4.18H3.8Zm0-4H.38V2.09a1.71,1.71,0,0,1,3.42,0Z"/><rect class="a" x="1.27" y="7.6" width="0.38" height="0.38"/><rect class="a" x="2.53" y="7.6" width="0.38" height="0.38"/><rect class="a" x="1.27" y="6.33" width="0.38" height="0.38"/><rect class="a" x="2.53" y="6.33" width="0.38" height="0.38"/><rect class="a" x="1.27" y="5.07" width="0.38" height="0.38"/><rect class="a" x="2.53" y="5.07" width="0.38" height="0.38"/><path class="a" d="M18.75,5.45V5.07h-.83a.82.82,0,0,0-.82.82v12a.45.45,0,0,1-.44.45H13.49a.45.45,0,0,1-.44-.45V16.85h.12A.83.83,0,0,0,14,16V14.63h.44a.83.83,0,0,0,.83-.82V11.15h.12a.51.51,0,0,0,.51-.51v-.32a5.26,5.26,0,0,0-10.52,0v.32a.51.51,0,0,0,.51.51H6v2.66a.82.82,0,0,0,.82.82h.44V16a.83.83,0,0,0,.83.83h.63A.83.83,0,0,0,9.57,16V12.86A.83.83,0,0,0,8.74,12H8.11a.83.83,0,0,0-.83.83v1.39H6.84a.44.44,0,0,1-.44-.44V11.15h.44a.83.83,0,0,0,.83-.83,3,3,0,0,1,5.95,0,.83.83,0,0,0,.82.83h.44v2.66a.44.44,0,0,1-.44.44H14V12.86a.83.83,0,0,0-.83-.83h-.63a.83.83,0,0,0-.82.83V16a.83.83,0,0,0,.82.83h.13v1.07a.83.83,0,0,0,.82.83h3.17a.83.83,0,0,0,.82-.83v-12a.44.44,0,0,1,.44-.44ZM7.67,12.86a.43.43,0,0,1,.44-.44h.63a.44.44,0,0,1,.44.44V16a.45.45,0,0,1-.44.45H8.11A.44.44,0,0,1,7.67,16Zm6.77-2.09a.45.45,0,0,1-.44-.45,3.36,3.36,0,0,0-6.72,0,.45.45,0,0,1-.44.45H5.77v-.45a4.88,4.88,0,0,1,9.75,0v.45Zm-1.9,5.7A.44.44,0,0,1,12.1,16V12.86a.44.44,0,0,1,.44-.44h.63a.44.44,0,0,1,.45.44V16a.45.45,0,0,1-.45.45Z"/></svg>