<svg xmlns="http://www.w3.org/2000/svg" viewBox="0 0 17.34 17"><defs><style>.cls-1{opacity:0.9;}.cls-2{fill:#231c1b;}</style></defs><title>Kantar Link Sprite</title><g id="Layer_3" data-name="Layer 3"><g class="cls-1"><path class="cls-2" d="M7,10v6.31H.69V10H7m.68-.68H0V17H7.68V9.32Z"/><path class="cls-2" d="M16.65.69V7H10.34V.69h6.31M17.34,0H9.65V7.68h7.69V0Z"/><path class="cls-2" d="M16.65,10v6.31H10.34V10h6.31m.69-.68H9.65V17h7.69V9.32Z"/><polygon class="cls-2" points="17.34 17 9.65 17 17.34 9.32 17.34 17"/><path class="cls-2" d="M7,.69V7H.69V.69H7M7.68,0H0V7.68H7.68V0Z"/><polygon class="cls-2" points="0 0 7.68 0 0 7.68 0 0"/></g></g></svg>