<svg id="Layer_1" data-name="Layer 1" xmlns="http://www.w3.org/2000/svg" viewBox="0 0 24.34 16.72"><defs><style>.cls-1{fill:#e5e5e4;}</style></defs><title>iLink</title><path class="cls-1" d="M1.71,16.72A1.72,1.72,0,0,1,0,15V1.71A1.72,1.72,0,0,1,1.71,0H22.64a1.71,1.71,0,0,1,1.7,1.71V15a1.71,1.71,0,0,1-1.7,1.71ZM1.71.84a.87.87,0,0,0-.87.87V15a.87.87,0,0,0,.87.87H22.64a.87.87,0,0,0,.87-.87V1.71a.87.87,0,0,0-.87-.87Z"/><path class="cls-1" d="M17.72,14.25a.42.42,0,0,1-.42-.42V13H3.3a.42.42,0,1,1,0-.84h14V11.2a.42.42,0,0,1,.84,0v.91h2.91a.42.42,0,0,1,0,.84H18.14v.88A.42.42,0,0,1,17.72,14.25Z"/><path class="cls-1" d="M12.17,9.08a2.72,2.72,0,1,1,2.72-2.72A2.72,2.72,0,0,1,12.17,9.08Zm0-4.88a2.16,2.16,0,1,0,2.16,2.16A2.16,2.16,0,0,0,12.17,4.2Z"/><path class="cls-1" d="M11.72,7.66a.32.32,0,0,1-.32-.35V5.4a.32.32,0,0,1,.32-.35.42.42,0,0,1,.21.06l1.43.94a.36.36,0,0,1,.18.31.34.34,0,0,1-.18.3l-1.43.94A.39.39,0,0,1,11.72,7.66Zm.15-.58L13,6.36l-1.1-.72Z"/></svg>