<svg id="Layer_1" data-name="Layer 1" xmlns="http://www.w3.org/2000/svg" viewBox="0 0 16.74 19.29"><defs><style>.cls-1{fill:#f5ac1b;}</style></defs><title>iLink</title><path class="cls-1" d="M1.67,19.29A1.67,1.67,0,0,1,0,17.62V1.67A1.67,1.67,0,0,1,1.67,0H11.88a.38.38,0,0,1,.28.12l3.19,3.19a.36.36,0,0,1,.12.28.38.38,0,0,1-.12.28.39.39,0,0,1-.56,0L11.69.77l-10,0a.87.87,0,0,0-.87.87v16a.88.88,0,0,0,.87.88h13.4a.89.89,0,0,0,.88-.88V5.26h-2.8a1.67,1.67,0,0,1-1.67-1.67V2a.4.4,0,0,1,.8,0v1.6a.87.87,0,0,0,.87.87h3.19a.4.4,0,0,1,.4.4V17.62a1.67,1.67,0,0,1-1.67,1.67Z"/><path class="cls-1" d="M10.38,17.29a.4.4,0,0,1-.4-.4V12.46H6.59v4H8.1a.4.4,0,0,1,0,.8H3.77a.4.4,0,0,1-.4-.4V7.24a.4.4,0,0,1,.4-.4h9a.4.4,0,0,1,.4.4v9.65a.4.4,0,0,1-.4.4Zm2-.8V14.87H10.78v1.62Zm-6.6,0V14.87H4.17v1.62Zm6.6-2.41V12.46H10.78v1.62Zm-6.6,0V12.46H4.17v1.62Zm6.6-2.42V10.05H10.78v1.61Zm-2.41,0v-4H6.59v4Zm-4.19,0V10.05H4.17v1.61Zm6.6-2.41V7.63H10.78V9.25Zm-6.6,0V7.63H4.17V9.25Z"/></svg>