<svg id="Layer_1" data-name="Layer 1" xmlns="http://www.w3.org/2000/svg" viewBox="0 0 16.74 19.29"><defs><style>.cls-1{fill:#e5e5e4;}</style></defs><title>iLink SVG Elements</title><path class="cls-1" d="M1.67,19.29A1.67,1.67,0,0,1,0,17.62V1.67A1.67,1.67,0,0,1,1.67,0H11.88a.38.38,0,0,1,.28.12l3.19,3.19a.36.36,0,0,1,.12.28.38.38,0,0,1-.12.28.39.39,0,0,1-.56,0L11.69.77l-10,0a.87.87,0,0,0-.87.87v16a.88.88,0,0,0,.87.88h13.4a.89.89,0,0,0,.88-.88V5.26h-2.8a1.67,1.67,0,0,1-1.67-1.67V2a.4.4,0,0,1,.8,0v1.6a.87.87,0,0,0,.87.87h3.19a.4.4,0,0,1,.4.4V17.62a1.67,1.67,0,0,1-1.67,1.67Z"/><path class="cls-1" d="M4.18,17.26A1.21,1.21,0,0,1,3,16.05V10.67a.31.31,0,0,1,.31-.32h9.87a.32.32,0,0,1,.32.32v5.38a1.21,1.21,0,0,1-1.21,1.21Zm-.59-1.21a.6.6,0,0,0,.59.59h8.08a.59.59,0,0,0,.58-.59V11H3.59Z"/><path class="cls-1" d="M13.15,10.44H3.28a.22.22,0,0,0-.22.23v5.38a1.12,1.12,0,0,0,1.12,1.12h8.08a1.12,1.12,0,0,0,1.12-1.12V10.67A.23.23,0,0,0,13.15,10.44Zm-.22,5.61a.67.67,0,0,1-.67.67H4.18a.68.68,0,0,1-.68-.67V10.89h9.43Z"/><path class="cls-1" d="M3.28,11.32a.31.31,0,0,1-.3-.24L2.55,9.41a.74.74,0,0,1,.09-.58.77.77,0,0,1,.48-.35l9-2.14a.52.52,0,0,1,.17,0,.76.76,0,0,1,.74.57l.39,1.45a.32.32,0,0,1,0,.25.3.3,0,0,1-.2.14L3.58,10.92h0a.29.29,0,0,1,0,.24.3.3,0,0,1-.19.14Zm9-4.37-9,2.14a.14.14,0,0,0-.11.17l.27,1.05,9.34-2.12-.3-1.14a.14.14,0,0,0-.14-.1V6.86Z"/><path class="cls-1" d="M13.37,8.37,13,6.92a.68.68,0,0,0-.81-.5l-9,2.15a.71.71,0,0,0-.42.3.68.68,0,0,0-.08.52l.42,1.67a.23.23,0,0,0,.22.17h.06A.22.22,0,0,0,3.5,11l0-.1L13.2,8.64a.25.25,0,0,0,.15-.1A.21.21,0,0,0,13.37,8.37Zm-10,2.05L3.08,9.28a.2.2,0,0,1,0-.17A.21.21,0,0,1,3.25,9l9-2.15h0a.21.21,0,0,1,.22.17l.33,1.23Z"/><path class="cls-1" d="M4.18,12.78a.23.23,0,0,1-.14,0,.29.29,0,0,1-.16-.18.29.29,0,0,1,0-.24l.89-1.79a.33.33,0,0,1,.29-.18l.14,0a.34.34,0,0,1,.14.43l-.9,1.79A.31.31,0,0,1,4.18,12.78Z"/><path class="cls-1" d="M5.18,10.47a.23.23,0,0,0-.31.1L4,12.36a.22.22,0,0,0,.1.3.17.17,0,0,0,.1,0,.23.23,0,0,0,.2-.13l.9-1.79A.23.23,0,0,0,5.18,10.47Z"/><path class="cls-1" d="M6.42,12.78a.25.25,0,0,1-.14,0,.31.31,0,0,1-.14-.42L7,10.53a.31.31,0,0,1,.28-.18.35.35,0,0,1,.14,0,.33.33,0,0,1,.14.43L6.7,12.6A.31.31,0,0,1,6.42,12.78Z"/><path class="cls-1" d="M7.42,10.47a.22.22,0,0,0-.3.1l-.9,1.79a.23.23,0,0,0,.1.3.19.19,0,0,0,.1,0,.23.23,0,0,0,.2-.13l.9-1.79A.22.22,0,0,0,7.42,10.47Z"/><path class="cls-1" d="M8.67,12.78a.23.23,0,0,1-.14,0,.26.26,0,0,1-.16-.18.33.33,0,0,1,0-.24l.9-1.79a.32.32,0,0,1,.28-.18.23.23,0,0,1,.14,0,.29.29,0,0,1,.16.18.29.29,0,0,1,0,.24L9,12.6A.32.32,0,0,1,8.67,12.78Z"/><path class="cls-1" d="M9.66,10.47a.22.22,0,0,0-.3.1l-.9,1.79a.24.24,0,0,0,.21.33.23.23,0,0,0,.2-.13l.89-1.79A.22.22,0,0,0,9.66,10.47Z"/><path class="cls-1" d="M10.91,12.78a.23.23,0,0,1-.14,0,.3.3,0,0,1-.14-.42l.9-1.79a.31.31,0,0,1,.28-.18.35.35,0,0,1,.14,0,.34.34,0,0,1,.14.43l-.9,1.79A.31.31,0,0,1,10.91,12.78Z"/><path class="cls-1" d="M11.91,10.47a.22.22,0,0,0-.3.1l-.9,1.79a.22.22,0,0,0,.1.3.19.19,0,0,0,.1,0,.23.23,0,0,0,.2-.13l.9-1.79A.23.23,0,0,0,11.91,10.47Z"/><path class="cls-1" d="M3.28,12.78a.32.32,0,0,1,0-.63h9.87a.32.32,0,1,1,0,.63Z"/><path class="cls-1" d="M13.15,12.24H3.28a.22.22,0,0,0-.22.22.22.22,0,0,0,.22.23h9.87a.23.23,0,1,0,0-.45Z"/><path class="cls-1" d="M5.29,10.52a.31.31,0,0,1-.22-.09L3.52,8.89a.32.32,0,0,1-.09-.23.31.31,0,0,1,.09-.22.32.32,0,0,1,.23-.09A.31.31,0,0,1,4,8.44L5.51,10a.29.29,0,0,1,0,.44A.28.28,0,0,1,5.29,10.52Z"/><path class="cls-1" d="M5.45,10.05,3.9,8.51a.22.22,0,1,0-.31.31l1.54,1.55a.25.25,0,0,0,.16.06.23.23,0,0,0,.16-.06A.22.22,0,0,0,5.45,10.05Z"/><path class="cls-1" d="M7.49,10a.32.32,0,0,1-.23-.09L5.72,8.39a.33.33,0,0,1,0-.45.31.31,0,0,1,.44,0L7.71,9.49a.31.31,0,0,1-.22.53Z"/><path class="cls-1" d="M7.65,9.55,6.1,8a.22.22,0,0,0-.32,0,.21.21,0,0,0,0,.31L7.33,9.87a.23.23,0,0,0,.16.06.27.27,0,0,0,.16-.06A.24.24,0,0,0,7.65,9.55Z"/><path class="cls-1" d="M9.68,9.53a.36.36,0,0,1-.22-.09L7.91,7.89a.33.33,0,0,1,0-.45.32.32,0,0,1,.23-.09.31.31,0,0,1,.22.09L9.9,9a.31.31,0,0,1,.09.22.28.28,0,0,1-.09.22A.3.3,0,0,1,9.68,9.53Z"/><path class="cls-1" d="M9.84,9.05,8.29,7.51A.22.22,0,0,0,8,7.82L9.52,9.37a.26.26,0,0,0,.16.07.24.24,0,0,0,.16-.07A.22.22,0,0,0,9.84,9.05Z"/><path class="cls-1" d="M11.87,9a.31.31,0,0,1-.22-.09L10.11,7.39a.32.32,0,0,1-.1-.22.29.29,0,0,1,.1-.22.3.3,0,0,1,.22-.1.32.32,0,0,1,.22.1L12.1,8.49a.33.33,0,0,1,0,.45A.32.32,0,0,1,11.87,9Z"/><path class="cls-1" d="M12,8.56,10.49,7a.23.23,0,0,0-.32.32l1.54,1.54a.23.23,0,0,0,.16.07A.2.2,0,0,0,12,8.87.21.21,0,0,0,12,8.56Z"/></svg>