<svg xmlns="http://www.w3.org/2000/svg" xmlns:xlink="http://www.w3.org/1999/xlink" viewBox="0 0 33.34 31.36"><defs><style>.a{fill:none;}.b{clip-path:url(#a);}.c{fill:#bab7b6;}.d{fill:#2a2522;}</style><clipPath id="a"><polygon class="a" points="0 0 33.34 0 33.34 31.36 0 0"/></clipPath></defs><title>iLink SVG Elements_Responsive</title><g class="b"><circle class="c" cx="33.34" r="19.8"/></g><path class="d" d="M22.31,11l2.46-2.46-.69-.69-2.46,2.46.22-.49V8.52h-.91V11.7h3.18v-.91H22.78Zm0,0"/><path class="d" d="M26.51,2.92v.91h1.31l.49-.21L25.86,6.07l.69.7L29,4.31l-.22.47V6.11h.91V2.92Zm0,0"/><path class="d" d="M29,10.31,26.55,7.86l-.69.69L28.32,11l-.49-.22H26.52v.91H29.7V8.52h-.91V9.85Zm0,0"/><path class="d" d="M20.93,6.11h.91V4.79l-.22-.48,2.46,2.45.69-.69L22.31,3.62l.47.21h1.33V2.92H20.93Zm0,0"/></svg>