<svg id="Layer_1" data-name="Layer 1" xmlns="http://www.w3.org/2000/svg" viewBox="0 0 20.27 16"><defs><style>.cls-1{fill:#f3ab1d;}</style></defs><title>iLink_tags yellow option2</title><path class="cls-1" d="M19.1,16H1.17A1.19,1.19,0,0,1,0,14.83V1.17A1.19,1.19,0,0,1,1.17,0H19.1a1.17,1.17,0,0,1,1.17,1.17h0V14.83A1.17,1.17,0,0,1,19.1,16ZM1.17.7a.47.47,0,0,0-.47.47V14.83a.47.47,0,0,0,.47.47H19.1a.47.47,0,0,0,.47-.47V1.17A.47.47,0,0,0,19.1.7Z"/><rect class="cls-1" x="0.3" y="2.45" width="19.62" height="0.7"/><path class="cls-1" d="M2,1a.55.55,0,0,0-.53.54A.54.54,0,0,0,2,2.06a.54.54,0,0,0,.52-.55A.53.53,0,0,0,2,1Z"/><path class="cls-1" d="M4.18,1a.55.55,0,0,0-.53.54.54.54,0,0,0,.53.55h0a.54.54,0,0,0,.52-.55A.53.53,0,0,0,4.18,1Z"/><path class="cls-1" d="M6.33,1a.55.55,0,0,0-.53.54.54.54,0,0,0,.53.55h0a.54.54,0,0,0,.52-.55A.53.53,0,0,0,6.33,1Z"/><path class="cls-1" d="M11.57,13.76H10.1a.35.35,0,0,1-.28-.14.4.4,0,0,1-.09-.3l.34-2H9.34L9,13.44a.38.38,0,0,1-.37.32H7.15a.37.37,0,0,1-.37-.39v0l.34-2H6.25a.38.38,0,0,1-.38-.38h0V9.69a.38.38,0,0,1,.38-.38H7.52l.13-.77h-1a.38.38,0,0,1-.37-.38V6.89a.39.39,0,0,1,.37-.37H8l.35-2.06a.38.38,0,0,1,.37-.31h1.46a.37.37,0,0,1,.28.13.4.4,0,0,1,.09.3l-.34,1.94H11l.37-2.06a.38.38,0,0,1,.37-.31h1.45a.39.39,0,0,1,.29.13.39.39,0,0,1,.08.31l-.34,1.93H14a.39.39,0,0,1,.37.37V8.16a.38.38,0,0,1-.37.38H12.81l-.14.77h.92a.38.38,0,0,1,.37.38v1.25a.38.38,0,0,1-.37.38H12.3l-.36,2.12A.38.38,0,0,1,11.57,13.76Zm-1-.75h.71l.35-2.13a.38.38,0,0,1,.37-.31h1.23v-.51h-1a.39.39,0,0,1-.29-.13.39.39,0,0,1-.08-.31l.26-1.52a.38.38,0,0,1,.37-.31h1.16V7.27h-.93a.37.37,0,0,1-.29-.14.36.36,0,0,1-.08-.3L12.7,4.9H12L11.63,7a.38.38,0,0,1-.37.31H9.78a.37.37,0,0,1-.29-.14.36.36,0,0,1-.08-.3l.33-2H9.05L8.69,7a.38.38,0,0,1-.37.31H7.08v.52h1a.37.37,0,0,1,.37.37s0,0,0,.06L8.2,9.75a.38.38,0,0,1-.37.31H6.62v.51h1a.39.39,0,0,1,.29.13A.39.39,0,0,1,8,11l-.35,2H8.3l.36-2.13A.37.37,0,0,1,9,10.57h1.49a.39.39,0,0,1,.29.13.36.36,0,0,1,.08.3Zm.22-2.95H9.29A.39.39,0,0,1,9,9.93a.39.39,0,0,1-.08-.31L9.18,8.1a.38.38,0,0,1,.37-.31H11a.34.34,0,0,1,.28.13.4.4,0,0,1,.09.3L11.1,9.75a.37.37,0,0,1-.33.31Zm-1-.75h.73l.13-.77H9.86Z"/></svg>