<svg xmlns="http://www.w3.org/2000/svg" width="8.67" height="8.67" viewBox="0 0 8.67 8.67"><title>Kantar iLink</title><g id="layer"><path d="M4.34,8.67A4.16,4.16,0,0,1,1.27,7.4,4.14,4.14,0,0,1,0,4.34,4.16,4.16,0,0,1,1.27,1.27,4.16,4.16,0,0,1,4.34,0,4.14,4.14,0,0,1,7.4,1.27,4.16,4.16,0,0,1,8.67,4.34,4.14,4.14,0,0,1,7.4,7.4,4.14,4.14,0,0,1,4.34,8.67Zm0-.58A3.61,3.61,0,0,0,7,7,3.61,3.61,0,0,0,8.1,4.34,3.63,3.63,0,0,0,7,1.68,3.62,3.62,0,0,0,4.34.57,3.62,3.62,0,0,0,1.68,1.68,3.62,3.62,0,0,0,.59,4.34,3.6,3.6,0,0,0,1.68,7,3.61,3.61,0,0,0,4.34,8.09Zm0-3.34L2.5,6.59l-.41-.41L3.93,4.34,2.09,2.5l.41-.41L4.34,3.93,6.18,2.09l.41.41L4.75,4.34,6.59,6.18l-.41.41Z"/></g></svg>