<svg xmlns="http://www.w3.org/2000/svg" width="21.02" height="19.12" viewBox="0 0 21.02 19.12"><defs><style>.a{fill:#ececeb;}</style></defs><title>iLink SVG Elements_Non-Responsive</title><path class="a" d="M18.56,9.25H15.42a16.86,16.86,0,0,0-.6-4.31h2.06a.3.3,0,0,0,.31-.3.31.31,0,0,0-.31-.31H14.63a9.46,9.46,0,0,0-1.24-2.55A.31.31,0,0,0,13,1.71a.3.3,0,0,0-.07.42A9.23,9.23,0,0,1,14,4.33H10.82V1.51a.31.31,0,0,0-.31-.31.3.3,0,0,0-.3.31V4.33H7a9.23,9.23,0,0,1,1.1-2.2.3.3,0,0,0-.49-.35A9.77,9.77,0,0,0,6.39,4.33H4.14a.3.3,0,0,0-.3.31.29.29,0,0,0,.3.3H6.2a17.79,17.79,0,0,0-.6,4.31H2.46a.31.31,0,0,0-.31.31.3.3,0,0,0,.31.3H5.6a17.65,17.65,0,0,0,.6,4.31H4.14a.3.3,0,0,0-.3.31.29.29,0,0,0,.3.3H6.39a9.69,9.69,0,0,0,1.25,2.56.31.31,0,0,0,.25.13.27.27,0,0,0,.17-.06A.31.31,0,0,0,8.13,17,8.86,8.86,0,0,1,7,14.78h3.18v2.83a.3.3,0,0,0,.3.31.31.31,0,0,0,.31-.31V14.78H14a8.86,8.86,0,0,1-1.1,2.2.31.31,0,0,0,.07.43.3.3,0,0,0,.18.06.33.33,0,0,0,.25-.13,9.38,9.38,0,0,0,1.24-2.56h2.25a.3.3,0,0,0,.31-.3.31.31,0,0,0-.31-.31H14.82a16.74,16.74,0,0,0,.6-4.31h3.14a.3.3,0,0,0,.31-.3.31.31,0,0,0-.31-.31ZM14.19,4.94a16.24,16.24,0,0,1,.62,4.31h-4V4.94Zm-7.35,0h3.37V9.25h-4A16.65,16.65,0,0,1,6.84,4.94Zm0,9.23a16.59,16.59,0,0,1-.63-4.31h4v4.31Zm7.35,0H10.82V9.86h4A16.18,16.18,0,0,1,14.19,14.17Z"/><path class="a" d="M17.29,2.78A9.58,9.58,0,0,0,2.51,14.83L1.34,18.34a.3.3,0,0,0,.08.32.3.3,0,0,0,.31.07l3.51-1.17a9.59,9.59,0,0,0,12-14.78ZM10.51,18.53a8.91,8.91,0,0,1-5-1.56.27.27,0,0,0-.17-.06l-.1,0L2.11,18l1-3.08a.29.29,0,0,0,0-.27,9,9,0,1,1,7.41,3.92Z"/></svg>