<svg xmlns="http://www.w3.org/2000/svg" viewBox="0 0 14.03 12"><defs><style>.cls-1{fill:#777;}</style></defs><title>Kantar iLink</title><g id="layer"><path class="cls-1" d="M9.53,0H14c0,1,0,1.46,0,2.44H4.53V0Z"/><path class="cls-1" d="M2.44,1.46c0,.49,0,.49,0,1H0V0H2.43C2.44.49,2.44,1,2.44,1.46Z"/><path class="cls-1" d="M9.53,9.56H14V12H4.53V9.56Z"/><path class="cls-1" d="M2.44,11c0,.49,0,.48,0,1H0V9.56H2.43C2.44,10.05,2.44,10.54,2.44,11Z"/><path class="cls-1" d="M9.53,4.78H14c0,1,0,1.46,0,2.44H4.53V4.78Z"/><path class="cls-1" d="M2.44,5.77c0,.48,0,1,0,1.45H0V4.79H2.43C2.44,5.28,2.44,5.27,2.44,5.77Z"/></g></svg>