<svg xmlns="http://www.w3.org/2000/svg" width="23.69" height="79.53" viewBox="0 0 23.69 79.53"><defs><style>.cls-1{fill:#303030;}.cls-2{fill:#cda642;}</style></defs><title>Kantar iLink</title><g id="layer"><rect class="cls-1" width="23.69" height="79.53" transform="translate(23.69 79.53) rotate(180)"/><rect class="cls-2" x="4.04" y="10.68" width="3.83" height="58.17" transform="translate(11.92 79.53) rotate(180)"/><path class="cls-2" d="M15.11,34.61a.75.75,0,0,1,.55.24L20.44,40a.74.74,0,0,1,0,1l-4.78,5.19a.76.76,0,0,1-1.06,0,.74.74,0,0,1,0-1.06l4.31-4.68-4.31-4.67a.74.74,0,0,1,0-1.06A.7.7,0,0,1,15.11,34.61Z"/></g></svg>