<svg id="Layer_1" data-name="Layer 1" xmlns="http://www.w3.org/2000/svg" viewBox="0 0 16.53 15.68"><defs><style>.cls-1{fill:#e5e5e4;}</style></defs><title>iLink</title><path class="cls-1" d="M13.24,15.68l-.11,0L8.24,13.09,3.4,15.66l-.11,0a.2.2,0,0,1-.13,0,.22.22,0,0,1-.09-.22L4,10,.07,6.2A.27.27,0,0,1,0,6a.22.22,0,0,1,.17-.14l1.76-.26L5.66,5,8.06.11A.2.2,0,0,1,8.14,0a.27.27,0,0,1,.12,0,.28.28,0,0,1,.13,0l.08.08,2.44,4.95,5.42.75a.26.26,0,0,1,.19.15.25.25,0,0,1-.05.22L15.68,7,12.5,10l1,5.38a.22.22,0,0,1-.09.22A.22.22,0,0,1,13.24,15.68ZM4.82,9.57a.19.19,0,0,1,.06.18L4.1,14.26l4.07-2.14.09,0,.1,0,4.06,2.13-.78-4.5a.2.2,0,0,1,.06-.18L15,6.37l-4.54-.65a.21.21,0,0,1-.16-.11l-2-4.11-2,4.11a.21.21,0,0,1-.16.11l-4.54.65Z"/></svg>