<svg id="Layer_1" data-name="Layer 1" xmlns="http://www.w3.org/2000/svg" viewBox="0 0 16.18 16.18"><defs><style>.cls-1{fill:#f3ab2a;}</style></defs><path class="cls-1" d="M15,6.78h-.17a1.3,1.3,0,0,0-1.25,1c0,.1,0,.1-.12.1H10l0-.11a2,2,0,0,0-.11-.37A2.71,2.71,0,0,0,9.65,7l0-.06,2.55-2.55a1.35,1.35,0,0,0,.72.2,1.32,1.32,0,0,0,0-2.64,1.27,1.27,0,0,0-.69.2,1.23,1.23,0,0,0-.56.71A1.32,1.32,0,0,0,11.77,4L9.25,6.56l-.92-.38V2.72c0-.09,0-.11.11-.13a1.3,1.3,0,0,0,1-1.42,1.32,1.32,0,0,0-2.62,0,1.31,1.31,0,0,0,1,1.4c.1,0,.11,0,.11.13V6.18L7,6.55,4.42,4a1.33,1.33,0,0,0-.3-1.75A1.3,1.3,0,0,0,3.31,2a1.36,1.36,0,0,0-.89.33,1.33,1.33,0,0,0,.47,2.24,1.59,1.59,0,0,0,.43.06A1.32,1.32,0,0,0,4,4.42L6.55,7l-.37.89H2.67L2.6,7.76a1.35,1.35,0,0,0-1.33-1h0A1.32,1.32,0,0,0,1.15,9.4l.18,0a1.34,1.34,0,0,0,1.27-1l-.09,0,0,0H6.18l.38.9L4,11.76a1.37,1.37,0,0,0-.72-.21,1.32,1.32,0,0,0-1,2.19,1.31,1.31,0,0,0,1,.46A1.25,1.25,0,0,0,4,14a1.24,1.24,0,0,0,.55-.72,1.29,1.29,0,0,0-.14-1.1L7,9.63l.89.34v3.54c0,.05,0,.05-.1.08a1.32,1.32,0,0,0,.34,2.59h0A1.32,1.32,0,0,0,9.4,15a1.3,1.3,0,0,0-1-1.43c-.09,0-.09,0-.09-.13V10l.94-.39,2.52,2.52a1.33,1.33,0,0,0,.27,1.78,1.28,1.28,0,0,0,.82.29,1.32,1.32,0,0,0,1-2.15,1.32,1.32,0,0,0-1-.5,1.43,1.43,0,0,0-.71.21L9.63,9.23l.37-.9h3.47c.09,0,.1,0,.12.1a1.31,1.31,0,0,0,1.26,1H15a1.32,1.32,0,0,0,0-2.62Zm.44.72a.86.86,0,0,1,.25.6.84.84,0,1,1-.84-.85v-.1h0v.1A.8.8,0,0,1,15.45,7.5Zm-2.57,4.44,0,.1a.84.84,0,0,1,.82.85.86.86,0,0,1-.86.83h0a.84.84,0,0,1,0-1.68v-.1Zm-9.58,0,0,.1a.84.84,0,0,1,.59.26.82.82,0,0,1,.24.59.85.85,0,0,1-1.69,0A.84.84,0,0,1,3.3,12v-.1Zm0-7.79a.88.88,0,0,1-.6-.27.82.82,0,0,1-.24-.59.86.86,0,0,1,.85-.83v-.1h0v.1a.86.86,0,0,1,.83.84.83.83,0,0,1-.25.59A.81.81,0,0,1,3.3,4.15Zm9.57-1.79v.1a.87.87,0,0,1,.84.84.84.84,0,1,1-1.68,0,.84.84,0,0,1,.25-.6.83.83,0,0,1,.58-.25v-.1ZM8.07,9.49a1.4,1.4,0,0,1-1-.42,1.43,1.43,0,0,1-.39-1A1.4,1.4,0,0,1,8.11,6.69v-.1h0l0,.1a1.4,1.4,0,0,1-.06,2.8Zm0-9.11v.1a.85.85,0,1,1-.6.25A.84.84,0,0,1,8.1.48V.38Zm0,13.55V14a.84.84,0,0,1,.83.84.85.85,0,0,1-.84.84.82.82,0,0,1-.59-.25.84.84,0,0,1-.25-.6A.85.85,0,0,1,8.09,14v-.09ZM1.32,7.15v.1a.84.84,0,1,1-.85.84.85.85,0,0,1,.84-.84v-.1Z"/><path class="cls-1" d="M8.09,7a1.07,1.07,0,0,0,0,2.14h0A1.07,1.07,0,0,0,8.09,7Zm.6,1.07a.62.62,0,0,1-.6.6.57.57,0,0,1-.42-.19.56.56,0,0,1-.18-.42.6.6,0,0,1,.6-.58V7.4h0v.1A.61.61,0,0,1,8.69,8.09Z"/></svg>