<svg xmlns="http://www.w3.org/2000/svg" viewBox="0 0 21.11 18.9"><defs><style>.cls-1{fill:#231c1b;}</style></defs><title>Kantar Link Sprite</title><g id="Layer_3" data-name="Layer 3"><path class="cls-1" d="M20.51,18.9H.6a.6.6,0,0,1-.6-.61V1.94a.6.6,0,0,1,.6-.6H20.51a.6.6,0,0,1,.6.6V18.29A.6.6,0,0,1,20.51,18.9ZM1.2,17.69H19.91V2.54H1.2Z"/><path class="cls-1" d="M4.49,4a.6.6,0,0,1-.6-.6V.6A.61.61,0,0,1,5.1.6V3.39A.6.6,0,0,1,4.49,4Z"/><path class="cls-1" d="M8.54,4a.6.6,0,0,1-.61-.6V.6A.61.61,0,0,1,9.14.6V3.39A.6.6,0,0,1,8.54,4Z"/><path class="cls-1" d="M12.58,4a.6.6,0,0,1-.61-.6V.6a.61.61,0,0,1,1.21,0V3.39A.6.6,0,0,1,12.58,4Z"/><path class="cls-1" d="M16.62,4a.6.6,0,0,1-.6-.6V.6a.6.6,0,0,1,.6-.6.6.6,0,0,1,.6.6V3.39A.6.6,0,0,1,16.62,4Z"/><path class="cls-1" d="M4.17,8.42a.6.6,0,0,1-.6-.61v-.7a.61.61,0,0,1,1.21,0v.7A.61.61,0,0,1,4.17,8.42Z"/><path class="cls-1" d="M7.37,8.42a.6.6,0,0,1-.6-.61v-.7a.6.6,0,0,1,1.2,0v.7A.6.6,0,0,1,7.37,8.42Z"/><path class="cls-1" d="M10.56,8.42a.6.6,0,0,1-.6-.61v-.7a.61.61,0,0,1,1.21,0v.7A.61.61,0,0,1,10.56,8.42Z"/><path class="cls-1" d="M13.76,8.42a.6.6,0,0,1-.6-.61v-.7a.6.6,0,1,1,1.2,0v.7A.6.6,0,0,1,13.76,8.42Z"/><path class="cls-1" d="M4.17,15.49a.6.6,0,0,1-.6-.6v-.72a.61.61,0,0,1,1.21,0v.72A.6.6,0,0,1,4.17,15.49Z"/><path class="cls-1" d="M7.37,15.49a.6.6,0,0,1-.6-.6v-.72a.6.6,0,0,1,1.2,0v.72A.6.6,0,0,1,7.37,15.49Z"/><path class="cls-1" d="M10.56,15.49a.6.6,0,0,1-.6-.6v-.72a.61.61,0,0,1,1.21,0v.72A.6.6,0,0,1,10.56,15.49Z"/><path class="cls-1" d="M16.94,8.41a.61.61,0,0,1-.61-.61V7.1a.61.61,0,0,1,1.21,0v.7A.6.6,0,0,1,16.94,8.41Z"/><path class="cls-1" d="M4.17,12a.6.6,0,0,1-.6-.61v-.71a.61.61,0,0,1,1.21,0v.71A.61.61,0,0,1,4.17,12Z"/><path class="cls-1" d="M14.41,12.89H13a1.18,1.18,0,0,1-1.18-1.18V10.32A1.18,1.18,0,0,1,13,9.14h1.39a1.18,1.18,0,0,1,1.19,1.18v1.39A1.18,1.18,0,0,1,14.41,12.89Zm-1.36-2.55v1.37l1.36,0,0-1.37Zm0,0Z"/><path class="cls-1" d="M16.94,12a.61.61,0,0,1-.61-.61v-.71a.61.61,0,0,1,1.21,0v.71A.6.6,0,0,1,16.94,12Z"/><path class="cls-1" d="M10.55,12a.61.61,0,0,1-.61-.61v-.71a.61.61,0,0,1,1.21,0v.71A.6.6,0,0,1,10.55,12Z"/><path class="cls-1" d="M7.35,12a.6.6,0,0,1-.6-.61v-.71a.6.6,0,1,1,1.2,0v.71A.6.6,0,0,1,7.35,12Z"/></g></svg>