<svg id="Layer_1" data-name="Layer 1" xmlns="http://www.w3.org/2000/svg" viewBox="0 0 24.5 19.22"><defs><style>.cls-1{fill:#f5ac1b;}</style></defs><title>iLink</title><path class="cls-1" d="M5.06,5.46H.4a.39.39,0,0,1-.4-.4V.4A.4.4,0,0,1,.4,0H5.06a.39.39,0,0,1,.4.4V5.06A.39.39,0,0,1,5.06,5.46ZM.8,4.67H4.66V.8H.8Z"/><path class="cls-1" d="M14.58,12.34H9.92a.39.39,0,0,1-.4-.4V7.28a.4.4,0,0,1,.4-.4h4.66a.4.4,0,0,1,.4.4v4.66A.39.39,0,0,1,14.58,12.34Zm-4.26-.8h3.86V7.68H10.32Z"/><path class="cls-1" d="M24.1,19.22H19.43a.4.4,0,0,1-.4-.4V14.16a.4.4,0,0,1,.4-.4H24.1a.4.4,0,0,1,.4.4v4.66A.4.4,0,0,1,24.1,19.22Zm-4.27-.8H23.7V14.56H19.83Z"/><path class="cls-1" d="M18.07,11.39a.4.4,0,0,1-.29-.12L16.41,9.9a.4.4,0,0,1,0-.57L17.78,8a.4.4,0,1,1,.57.57L17.26,9.61l1.09,1.09a.42.42,0,0,1,0,.57A.39.39,0,0,1,18.07,11.39Z"/><path class="cls-1" d="M21.77,10H17a.4.4,0,0,1,0-.8h4.41V3.13H7a.4.4,0,1,1,0-.8H21.77a.4.4,0,0,1,.4.4V9.61A.4.4,0,0,1,21.77,10Z"/><path class="cls-1" d="M16.78,18.34a.4.4,0,0,1-.29-.12.42.42,0,0,1,0-.57l1.1-1.09-1.1-1.09a.4.4,0,0,1,.57-.57l1.38,1.38a.41.41,0,0,1,.11.28.39.39,0,0,1-.11.28l-1.38,1.38A.39.39,0,0,1,16.78,18.34Z"/><path class="cls-1" d="M17.89,17H2.53a.4.4,0,0,1-.4-.4V9.68a.4.4,0,0,1,.4-.4H8.08a.4.4,0,1,1,0,.8H2.93v6.08h15a.4.4,0,0,1,0,.8Z"/></svg>