<svg xmlns="http://www.w3.org/2000/svg" width="29.82" height="28.19" viewBox="0 0 29.82 28.19"><defs><style>.cls-1{fill:#fff;}</style></defs><title>Kantar iLink_NonResponsive</title><g id="Layer_3" data-name="Layer 3"><path class="cls-1" d="M11.8,28.18c-.47,0-.62-.14-.62-.63V25l-.15.09a2.77,2.77,0,0,1-1.48.49,2.3,2.3,0,0,1-1.16-.33,1.75,1.75,0,0,1-1-1.75c0-.64.26-3.05.26-3.05H6.79l-.62,0H6c-.32,0-.53-.09-.62-.26s-.06-.45.14-.8c.46-.77.89-1.55,1.32-2.34l.55-1L7.36,16A1.69,1.69,0,0,1,6.7,14,10.77,10.77,0,0,1,8.79,9.5a7.17,7.17,0,0,1,4.82-2.58A13,13,0,0,1,15.3,6.8,9.23,9.23,0,0,1,17.39,7a7.51,7.51,0,0,1,4.21,2.8,7,7,0,0,1,1.66,3.64A9.65,9.65,0,0,1,23,16.89a21.54,21.54,0,0,1-3,6.61,1.14,1.14,0,0,0-.21.68c0,.87,0,1.73,0,2.6v.77c0,.49-.14.63-.62.64Zm-.22-5,.16,0a.57.57,0,0,1,.35.61v3.36h6.64V26c0-.66,0-1.32,0-2a1.52,1.52,0,0,1,.24-.85,21.61,21.61,0,0,0,2.87-6.11,13.66,13.66,0,0,0,.4-2.14,5.85,5.85,0,0,0-1.32-4.28A6.59,6.59,0,0,0,17,8a7.89,7.89,0,0,0-1.69-.16c-.42,0-.84,0-1.27,0a6.11,6.11,0,0,0-4,1.83,8.92,8.92,0,0,0-2.13,3.83,6,6,0,0,0-.25,1.2.43.43,0,0,0,.06.34.62.62,0,0,0,.4.13.56.56,0,0,1,.51.25.59.59,0,0,1-.06.58l-1.9,3.43H8a.8.8,0,0,1,.59.17.82.82,0,0,1,.11.61l-.12,1.37-.18,2a.72.72,0,0,0,.26.65,1.19,1.19,0,0,0,.82.33h.2a2.34,2.34,0,0,0,1.47-1.06A.59.59,0,0,1,11.58,23.19Z"/><path class="cls-1" d="M28,16.72a.46.46,0,0,1-.34-.15.48.48,0,0,1,0-.72l.3-.28.18-.17H25.7c-.34,0-.55-.19-.55-.5s.21-.48.56-.49h2.42L28,14.25l-.35-.35a.52.52,0,0,1-.12-.51.42.42,0,0,1,.31-.29h.11a.69.69,0,0,1,.42.15c.38.35.74.72,1.1,1.09l.2.2a.48.48,0,0,1,0,.76l-1.29,1.26A.57.57,0,0,1,28,16.72Z"/><path class="cls-1" d="M1.87,16.72a.59.59,0,0,1-.41-.2L.22,15.32A.58.58,0,0,1,0,14.91a.64.64,0,0,1,.22-.42l1.22-1.22a.63.63,0,0,1,.43-.21.46.46,0,0,1,.33.15c.22.21.19.49-.07.75l-.44.45H4.05c.38,0,.57.17.57.5s-.1.49-.57.49H1.7l.44.41a.5.5,0,0,1,.08.73A.47.47,0,0,1,1.87,16.72Z"/><path class="cls-1" d="M6.94,8.93a.62.62,0,0,1-.41-.19L4.83,7.07v.62c0,.35-.19.56-.48.56a.53.53,0,0,1-.51-.56V5.86a.48.48,0,0,1,.48-.51H6.26a.5.5,0,0,1,.48.5.48.48,0,0,1-.48.48H5.5l.19.16c.55.55,1,1,1.54,1.54a.49.49,0,0,1,0,.74A.48.48,0,0,1,6.94,8.93Z"/><path class="cls-1" d="M23.09,8.94a.44.44,0,0,1-.31-.13.43.43,0,0,1-.14-.31.6.6,0,0,1,.19-.41c.46-.46.92-.93,1.39-1.38a1.45,1.45,0,0,1,.18-.17l.2-.17h-.75a.48.48,0,0,1-.53-.48.5.5,0,0,1,.52-.51H25.7a.51.51,0,0,1,.53.54q0,.92,0,1.83a.48.48,0,0,1-.49.5.49.49,0,0,1-.5-.51V7.06L23.48,8.78A.59.59,0,0,1,23.09,8.94Z"/><path class="cls-1" d="M15,4.6a.51.51,0,0,1-.24,0,.6.6,0,0,1-.24-.45c0-.56,0-1.13,0-1.7V1.63l-.16.19-.3.31a.53.53,0,0,1-.39.18.52.52,0,0,1-.35-.14.45.45,0,0,1-.16-.34.55.55,0,0,1,.19-.4L14.64.19a.5.5,0,0,1,.78,0L16.7,1.47a.5.5,0,0,1,.05.72.49.49,0,0,1-.35.15.6.6,0,0,1-.4-.18l-.47-.48v.83c0,.51,0,1,0,1.54a.7.7,0,0,1-.21.48A.57.57,0,0,1,15,4.6Z"/><path class="cls-1" d="M16.91,19.42c-.26,0-.41-.17-.42-.47l-.15-2.71h-.11a1.27,1.27,0,0,0-.58.11l-2.8,1.36-.94.46a.86.86,0,0,1-.35.09.35.35,0,0,1-.32-.16.71.71,0,0,1-.1-.41v-6.1c0-.52.3-.58.43-.58a.82.82,0,0,1,.34.09l1.13.54c.89.42,1.77.85,2.66,1.26a.9.9,0,0,0,.4.09h2.13c.45,0,.56.1.59.51v.09h.56c.33,0,.46.13.46.46v1.07c0,.4-.13.53-.53.53h-.51v.09c0,.29-.11.43-.3.49h-.07L18.26,19a.4.4,0,0,1-.41.41h-.94ZM17.3,18h.19l.11-1.68h-.38ZM12,17.16l.31-.14q1.48-.7,3-1.44l0,0V15.5c0-.31,0-.57,0-.84v-.82c0-.11,0-.15-.12-.19l-1-.48L12,12.1Zm4.22-1.74H18V13.89H16.25Z"/></g></svg>