<svg xmlns="http://www.w3.org/2000/svg" width="24.71" height="28.19" viewBox="0 0 24.71 28.19"><defs><style>.cls-1{fill:#fff;}</style></defs><title>Kantar iLink_NonResponsive</title><g id="Layer_3" data-name="Layer 3"><path class="cls-1" d="M15.63,28.19V23.41h-.85V22.15h4.06a1.88,1.88,0,0,0,2-2V16.41c0-.54.24-.78.79-.78h1.81a1.38,1.38,0,0,0-.07-.26l-.44-1c-.56-1.24-1.14-2.51-1.75-3.74a4.74,4.74,0,0,1-.38-1.73V8.81a8.47,8.47,0,0,0-7.49-7.5c-.31,0-.62,0-.92,0A8.34,8.34,0,0,0,7.63,2.7l-.16.11-.23-.09L7,2.4l-.38-.56.49-.29q.33-.21.66-.39A9.76,9.76,0,0,1,11.54.05l.1,0,.12,0H13l.38.06.7.11a9.86,9.86,0,0,1,7.91,7.92c0,.22.06.43.09.65l.06.54a2.4,2.4,0,0,0,.16.64Q23.18,12,24.14,14l.48,1,.09.16v1.14a.77.77,0,0,1-.77.53H22.1v3.2a3.28,3.28,0,0,1-3.32,3.31H16.9v4.79Z"/><path class="cls-1" d="M7.13,16.89a.38.38,0,0,1-.22-.05,17,17,0,0,1-5.7-5.17A6.81,6.81,0,0,1,.05,8.6l0-.15V7.58l.06-.29c0-.17.07-.35.11-.52A4.41,4.41,0,0,1,4.05,3.5h.3A3.28,3.28,0,0,1,7.14,4.93h0A3.52,3.52,0,0,1,10,3.48a3.91,3.91,0,0,1,1.74.42,4.51,4.51,0,0,1,2.52,4.64,8.11,8.11,0,0,1-2.09,4.37,18.29,18.29,0,0,1-4.74,3.9A.61.61,0,0,1,7.13,16.89ZM4.33,4.73a3.08,3.08,0,0,0-3.06,3,5.43,5.43,0,0,0,1,3.2A15.14,15.14,0,0,0,7.12,15.5a.3.3,0,0,0,.12,0A17.5,17.5,0,0,0,11,12.34a7.13,7.13,0,0,0,2-3.85,3.15,3.15,0,0,0-2.68-3.73,2.25,2.25,0,0,0-.44,0,2,2,0,0,0-2,1.68,4,4,0,0,0-.07.5l0,.43H6.56l0-.42c0-.15,0-.29,0-.43A1.88,1.88,0,0,0,4.92,4.79,3,3,0,0,0,4.33,4.73Z"/><path class="cls-1" d="M6.08,28.19v-2c0-1.32,0-2.65,0-4a11.48,11.48,0,0,0-1-3.95l-.27-.69,1.12-.47.12.18.23.62c.17.46.34.9.49,1.35a11.75,11.75,0,0,1,.62,3.93c0,1.11,0,2.21,0,3.32v1.63Z"/><rect class="cls-1" x="4.8" y="9.14" width="1.22" height="1.23"/><rect class="cls-1" x="6.54" y="9.13" width="1.23" height="1.23"/><rect class="cls-1" x="8.27" y="9.14" width="1.23" height="1.22"/></g></svg>