<svg xmlns="http://www.w3.org/2000/svg" width="21.95" height="21.95" viewBox="0 0 21.95 21.95"><defs><style>.cls-1{fill:#fff;}</style></defs><title>Kantar iLink_NonResponsive</title><g id="Layer_3" data-name="Layer 3"><path class="cls-1" d="M15.36,3.27V1.63A1.64,1.64,0,0,0,13.72,0H1.63A1.63,1.63,0,0,0,0,1.63V13.72a1.63,1.63,0,0,0,1.63,1.63H3.27V14.28H1.44a.37.37,0,0,1-.37-.36V1.44a.37.37,0,0,1,.37-.37H13.92a.36.36,0,0,1,.36.37V3.27Z"/><path class="cls-1" d="M6.59,18.68v1.63A1.65,1.65,0,0,0,8.23,22H20.31A1.65,1.65,0,0,0,22,20.31V8.23a1.65,1.65,0,0,0-1.64-1.64H18.68V7.66h1.83a.38.38,0,0,1,.37.37V20.51a.38.38,0,0,1-.37.37H8a.38.38,0,0,1-.37-.37V18.68Z"/><path class="cls-1" d="M13.92,14.28H12.09v1.07h1.63a1.64,1.64,0,0,0,1.64-1.63V12.09H14.28v1.83A.36.36,0,0,1,13.92,14.28Z"/><path class="cls-1" d="M15.36,8.76V6.59H13.19V7.66h.73a.37.37,0,0,1,.36.37v.73Z"/><path class="cls-1" d="M6.59,8.23V9.86H7.66V8A.38.38,0,0,1,8,7.66H9.86V6.59H8.23A1.65,1.65,0,0,0,6.59,8.23Z"/><path class="cls-1" d="M6.59,13.19v2.16H8.76V14.28H8a.37.37,0,0,1-.37-.36v-.73Z"/></g></svg>