<svg xmlns="http://www.w3.org/2000/svg" width="33.74" height="33.62" viewBox="0 0 33.74 33.62"><defs><style>.cls-1{fill:#fff;}</style></defs><title>Kantar iLink</title><g id="layer"><path class="cls-1" d="M23.28,26.13a.48.48,0,0,1-.26-.07l-6.19-3.24L10.7,26.06a.48.48,0,0,1-.26.07.57.57,0,0,1-.33-.11.54.54,0,0,1-.22-.54l1.18-6.86-5-4.81A.61.61,0,0,1,6,13.23a.54.54,0,0,1,.41-.36l2.3-.34,4.65-.67,3-6.21a.52.52,0,0,1,.21-.23.73.73,0,0,1,.29-.07.6.6,0,0,1,.29.08.45.45,0,0,1,.21.22l3.09,6.24,6.86,1a.6.6,0,0,1,.46.37.53.53,0,0,1-.11.53l-1,1-4,3.89,1.21,6.8a.55.55,0,0,1-.22.55A.57.57,0,0,1,23.28,26.13ZM12.05,18.05a.53.53,0,0,1,.16.5l-1,6,5.42-2.84a.52.52,0,0,1,.52,0l5.41,2.84-1-6a.58.58,0,0,1,.16-.5L26,13.8,20,12.93a.55.55,0,0,1-.42-.3l-2.7-5.48-2.7,5.48a.57.57,0,0,1-.42.3l-6,.87Z"/><path class="cls-1" d="M16.87,33.62A16.81,16.81,0,1,1,33.74,16.81,16.86,16.86,0,0,1,16.87,33.62ZM16.87,1a15.8,15.8,0,1,0,15.86,15.8A15.85,15.85,0,0,0,16.87,1Z"/></g></svg>