<svg xmlns="http://www.w3.org/2000/svg" width="38.07" height="27.26" viewBox="0 0 38.07 27.26"><defs><style>.cls-1{fill:#fff;}</style></defs><title>Kantar iLink</title><g id="layer"><path class="cls-1" d="M8.22,27.26a.51.51,0,0,1-.35-.15L.15,19.39A.47.47,0,0,1,0,19a.49.49,0,0,1,.15-.36L7.87,11a.5.5,0,0,1,.7,0l7.72,7.72a.49.49,0,0,1,.15.36.47.47,0,0,1-.15.35L8.57,27.11A.51.51,0,0,1,8.22,27.26ZM1.21,19l7,7,7-7-7-7Z"/><path class="cls-1" d="M5.37,21.94a.5.5,0,0,1-.5-.5V17.09a.5.5,0,0,1,1,0v4.35A.5.5,0,0,1,5.37,21.94Z"/><path class="cls-1" d="M8.22,24.72a.5.5,0,0,1-.5-.5V14.31a.5.5,0,0,1,1,0v9.91A.5.5,0,0,1,8.22,24.72Z"/><path class="cls-1" d="M11.07,21.94a.5.5,0,0,1-.5-.5V17.09a.5.5,0,0,1,1,0v4.35A.5.5,0,0,1,11.07,21.94Z"/><path class="cls-1" d="M19,16.44a.51.51,0,0,1-.36-.15L11,8.57a.51.51,0,0,1,0-.7L18.68.15a.5.5,0,0,1,.71,0l7.72,7.72a.48.48,0,0,1,0,.7l-7.72,7.72A.49.49,0,0,1,19,16.44ZM12,8.22l7,7,7-7-7-7Z"/><path class="cls-1" d="M16.19,11.13a.5.5,0,0,1-.5-.5V6.27a.5.5,0,0,1,.5-.5.5.5,0,0,1,.5.5v4.36A.51.51,0,0,1,16.19,11.13Z"/><path class="cls-1" d="M19,13.9a.5.5,0,0,1-.5-.5V3.49A.5.5,0,0,1,19,3a.5.5,0,0,1,.5.5V13.4A.5.5,0,0,1,19,13.9Z"/><path class="cls-1" d="M21.89,11.13a.5.5,0,0,1-.5-.5V6.27a.5.5,0,0,1,.5-.5.5.5,0,0,1,.5.5v4.36A.51.51,0,0,1,21.89,11.13Z"/><path class="cls-1" d="M29.85,27.26a.51.51,0,0,1-.35-.15l-7.72-7.72a.51.51,0,0,1,0-.71L29.5,11a.51.51,0,0,1,.71,0l7.72,7.72a.52.52,0,0,1,.14.36.5.5,0,0,1-.14.35l-7.72,7.72A.53.53,0,0,1,29.85,27.26Zm-7-8.22,7,7,7-7-7-7Z"/><path class="cls-1" d="M31.76,16.91H28a.5.5,0,0,1-.5-.5.5.5,0,0,1,.5-.5h3.81a.5.5,0,0,1,.5.5A.5.5,0,0,1,31.76,16.91Z"/><path class="cls-1" d="M34.2,19.76h-3a.5.5,0,0,1-.5-.5.5.5,0,0,1,.5-.5h3a.51.51,0,0,1,.5.5A.5.5,0,0,1,34.2,19.76Z"/><path class="cls-1" d="M28.51,19.76h-3a.5.5,0,0,1-.5-.5.51.51,0,0,1,.5-.5h3a.5.5,0,0,1,.5.5A.5.5,0,0,1,28.51,19.76Z"/><path class="cls-1" d="M31.76,22.61H28a.5.5,0,0,1-.5-.5.5.5,0,0,1,.5-.5h3.81a.5.5,0,0,1,.5.5A.5.5,0,0,1,31.76,22.61Z"/></g></svg>