<svg xmlns="http://www.w3.org/2000/svg" width="20.28" height="30.36" viewBox="0 0 20.28 30.36"><defs><style>.cls-1{fill:#fff;}</style></defs><title>Kantar iLink</title><g id="layer"><path class="cls-1" d="M9.8,30.36a7.37,7.37,0,0,1-1.46-.17A13.37,13.37,0,0,1,4.79,28.8a1.85,1.85,0,0,1,.74-3.48h.14a1.81,1.81,0,0,1,.4,0,1.9,1.9,0,0,1,.4.14l.29.12.45.19.89.3a7,7,0,0,0,1,.22c.12,0,.27,0,.43,0h.12a5,5,0,0,0,.24-.94c.11-.65.23-1.41.3-2.17,0-.61.09-1.23.11-1.89A4.15,4.15,0,0,1,10,19.7c0-.57,0-1.05,0-1.53A15.84,15.84,0,0,0,9.76,16a15.37,15.37,0,0,0-.59-2.09L1.06,11l-.2-.09a1.63,1.63,0,0,1-.77-2A1.66,1.66,0,0,1,1.63,7.87a1.5,1.5,0,0,1,.37,0c3.18.78,7.84,1.91,8.27,2a3.65,3.65,0,0,0,.55,0,2.36,2.36,0,0,0,1.94-1c1.15-1.35,4.53-6.45,4.56-6.5a1.68,1.68,0,0,1,1.06-.68,1.37,1.37,0,0,1,.29,0,1.58,1.58,0,0,1,.67.14l.1,0,.23.15a1.62,1.62,0,0,1,.42,2l-3.77,7c.16.31.29.6.41.89A22.07,22.07,0,0,1,18,16.35c.13.67.23,1.37.32,2.16,0,.22,0,.44.05.66l0,.26a4.22,4.22,0,0,1,0,.87l0,.08c.22.55.39,1,.53,1.46.26.79.46,1.5.62,2.18a10.78,10.78,0,0,1,.31,4.29,2,2,0,0,1-1.66,1.63l-.38,0a2.74,2.74,0,0,1-.74-.1,3.42,3.42,0,0,1-1.63-1,4.93,4.93,0,0,1-.88-1.42,1.86,1.86,0,0,1,.58-2.2c-.13-.3-.27-.63-.43-1,0,.24-.1.47-.16.71a17.11,17.11,0,0,1-.64,2.1,7.58,7.58,0,0,1-.46,1c-.09.17-.18.33-.29.5l-.28.38a2.36,2.36,0,0,1-.29.33,3.83,3.83,0,0,1-2.13,1A5.52,5.52,0,0,1,9.8,30.36Zm-4.2-4a.84.84,0,0,0-.42.16.79.79,0,0,0-.3.83.85.85,0,0,0,.41.52,12.13,12.13,0,0,0,3.28,1.28,5.64,5.64,0,0,0,1.23.15,3.36,3.36,0,0,0,.56,0,2.8,2.8,0,0,0,1.54-.72,2.26,2.26,0,0,0,.25-.29l.17-.25c.09-.13.17-.27.25-.41a8.76,8.76,0,0,0,.41-.91,18.25,18.25,0,0,0,.6-2c.1-.44.2-.89.29-1.34l.07-.41.42,0a2.44,2.44,0,0,0,.48-.05l.39-.08.18.36a20.8,20.8,0,0,1,.92,2.1l.18.48-.48.19a.81.81,0,0,0-.45.44.75.75,0,0,0,0,.62,3.84,3.84,0,0,0,.69,1.13,2.31,2.31,0,0,0,1.13.72,1.88,1.88,0,0,0,.46.06h.22a.92.92,0,0,0,.78-.76,9.77,9.77,0,0,0-.3-3.88c-.15-.65-.35-1.33-.6-2.09-.13-.4-.28-.87-.48-1.34l-.15-.36v-.18a2.86,2.86,0,0,0,0-.78s-.05-.7-.07-.89c-.08-.75-.18-1.43-.31-2.08a20.35,20.35,0,0,0-1.22-4.17c-.17-.39-.33-.74-.5-1.06l-.13-.24,4-7.49A.55.55,0,0,0,19,2.86a.58.58,0,0,0-.33-.1A.56.56,0,0,0,18.2,3c-.58.87-3.54,5.3-4.63,6.59A3.34,3.34,0,0,1,10.83,11a4.47,4.47,0,0,1-.71-.05c-.52-.07-5.5-1.28-8.37-2H1.63a.57.57,0,0,0-.54.37.55.55,0,0,0,.27.68L10,13.13l.08.25a17.91,17.91,0,0,1,.71,2.44,16.74,16.74,0,0,1,.26,2.29c0,.49,0,1,0,1.45v.15a3.25,3.25,0,0,0,.25,1.35l.07.15,0,.07c0,.73-.06,1.41-.12,2.06s-.19,1.54-.31,2.25a4.15,4.15,0,0,1-.49,1.52l-.08.11-.18.09a1.85,1.85,0,0,1-.65.1,5.1,5.1,0,0,1-.57,0,7.87,7.87,0,0,1-1.17-.26c-.32-.09-.65-.2-1-.32l-.51-.22L6,26.46l-.2-.08H5.6Zm4-18a4.24,4.24,0,0,1-1.5-.27A4.17,4.17,0,0,1,5.9,2.23,4.21,4.21,0,0,1,8.57.13a4,4,0,0,1,1-.13A4.26,4.26,0,0,1,12,.74a4.14,4.14,0,0,1,.76,6.2A4.22,4.22,0,0,1,9.63,8.35Zm0-7.3a3,3,0,0,0-.78.1,3.18,3.18,0,0,0-2,1.57,3.11,3.11,0,0,0-.14,2.6A3.23,3.23,0,0,0,8.5,7.1a3.09,3.09,0,0,0,1.09.19,3.27,3.27,0,0,0,2.4-1,3.16,3.16,0,0,0,.77-2.48A3.13,3.13,0,0,0,11.42,1.6,3.27,3.27,0,0,0,9.61,1.05Z"/></g></svg>