<svg xmlns="http://www.w3.org/2000/svg" width="29.01" height="29.01" viewBox="0 0 29.01 29.01"><defs><style>.cls-1{fill:#fff;}</style></defs><title>Kantar iLink</title><g id="layer"><path class="cls-1" d="M9.86,12.43a2.82,2.82,0,1,1,2.81-2.81A2.81,2.81,0,0,1,9.86,12.43Zm0-4.52a1.71,1.71,0,1,0,0,3.41,1.71,1.71,0,0,0,0-3.41Z"/><path class="cls-1" d="M19.15,12.43A2.81,2.81,0,1,1,22,9.62,2.82,2.82,0,0,1,19.15,12.43Zm0-4.52a1.71,1.71,0,1,0,0,3.41,1.71,1.71,0,0,0,1.21-2.91A1.74,1.74,0,0,0,19.15,7.91Z"/><path class="cls-1" d="M14.5,29A14.51,14.51,0,1,1,29,14.5,14.53,14.53,0,0,1,14.5,29Zm0-28A13.46,13.46,0,1,0,28,14.5,13.48,13.48,0,0,0,14.5,1Z"/><path class="cls-1" d="M14.5,23.63a6.26,6.26,0,0,1-6.45-6,1.07,1.07,0,0,1,1.08-1.07H19.88A1.08,1.08,0,0,1,21,17.6,6.26,6.26,0,0,1,14.5,23.63Zm-5.34-6a5.15,5.15,0,0,0,5.34,4.88,5.15,5.15,0,0,0,5.35-4.88Z"/></g></svg>