<svg xmlns="http://www.w3.org/2000/svg" width="21.39" height="24.73" viewBox="0 0 21.39 24.73"><defs><style>.cls-1{fill:#fff;}</style></defs><title>Kantar iLink</title><g id="layer"><path class="cls-1" d="M.6,24.73a.63.63,0,0,1-.41-.15.6.6,0,0,1,0-.85c2.44-2.66,5.58-6.49,6.66-9.6a.6.6,0,0,1,1.14.4c-1.16,3.3-4.4,7.27-6.92,10A.59.59,0,0,1,.6,24.73Z"/><path class="cls-1" d="M18.81,3.51a.57.57,0,0,1-.39-.14.59.59,0,0,1-.07-.85l2-2.31a.61.61,0,0,1,.85-.07.6.6,0,0,1,.06.85l-2,2.31A.6.6,0,0,1,18.81,3.51Z"/><path class="cls-1" d="M1.57,20.75A.61.61,0,0,1,1,20.38c-.48-1.15-1.8-5.11,1.55-7.57a7.56,7.56,0,0,1,7.69-.65.6.6,0,0,1,.3.8.59.59,0,0,1-.79.29,6.44,6.44,0,0,0-6.5.53C.7,15.66,1.61,18.7,2.12,19.92a.59.59,0,0,1-.32.78A.5.5,0,0,1,1.57,20.75Z"/><path class="cls-1" d="M14.52,14.43a.6.6,0,0,1-.22-1.16c4.67-1.81,5-4.81,4.48-6.3a4.58,4.58,0,0,0-3.24-2.92c-3.25-.79-5.09,3-5.89,5.4a.6.6,0,0,1-1.14-.39c1.6-4.66,4.26-6.92,7.31-6.18a5.8,5.8,0,0,1,4.09,3.69c.88,2.46-.36,5.95-5.17,7.82A.6.6,0,0,1,14.52,14.43Z"/><path class="cls-1" d="M5.51,23.22a7.27,7.27,0,0,1-1-.06A.6.6,0,0,1,4,22.49.61.61,0,0,1,4.71,22a5.71,5.71,0,0,0,4.36-1.12,4.71,4.71,0,0,0,1.5-3.65c.09-4.76,5-10.89,5.25-11.15A.59.59,0,0,1,16.66,6a.6.6,0,0,1,.09.85c-.05.06-4.9,6.07-5,10.41a5.87,5.87,0,0,1-1.92,4.54A6.66,6.66,0,0,1,5.51,23.22Z"/></g></svg>