<svg xmlns="http://www.w3.org/2000/svg" width="30.19" height="30.19" viewBox="0 0 30.19 30.19"><defs><style>.cls-1{fill:#fff;}</style></defs><title>Kantar iLink</title><g id="layer"><path class="cls-1" d="M10.78,21c-.84,0-1.55-.95-1.55-2.08V17.52l3.59-2-.05-.07a4.57,4.57,0,0,1-.84-2.74c0-1.59.36-3.43,3.16-3.43s3.17,1.84,3.17,3.43a4.63,4.63,0,0,1-.84,2.75l-.05.06,3.59,2v1.35C21,20,20.25,21,19.41,21Zm-.62-2.08c0,.66.37,1.16.62,1.16h8.63c.24,0,.62-.5.62-1.16v-.81l-3.36-1.92,0,0a2.74,2.74,0,0,1-1.54.47,2.71,2.71,0,0,1-1.53-.47l0,0-3.36,1.92Zm4.93-8.71c-1.67,0-2.23.63-2.23,2.5,0,1.48.78,3.05,2.23,3.05s2.24-1.57,2.24-3.05C17.33,10.79,16.76,10.16,15.09,10.16Z"/><path class="cls-1" d="M21.9,23.36V21.9h1.46v1.46Zm-15.07,0V21.9H8.29v1.46ZM21.9,8.29V6.83h1.46V8.29Zm-15.07,0V6.83H8.29V8.29Z"/><path class="cls-1" d="M22.54,17.63a5.93,5.93,0,0,0,.16-.73l0-.1.1,0A8,8,0,0,0,21.21,1,8.09,8.09,0,0,0,13.3,8.06v.11l-.1,0a5.83,5.83,0,0,0-.71.22l-.22.08,0-.24A9.15,9.15,0,0,1,21.21,0a9,9,0,0,1,1.51,17.81l-.23,0Z"/><path class="cls-1" d="M21.21,30.19a9.09,9.09,0,0,1-8.75-7l-.06-.26.25.08a7.59,7.59,0,0,0,.78.22l.09,0,0,.08a8.15,8.15,0,0,0,7.67,5.89,8,8,0,0,0,1.33-15.82h-.09l0-.09c-.08-.25-.18-.5-.28-.74L22,12.28l.26,0a9,9,0,0,1-1.08,17.88Z"/><path class="cls-1" d="M7.47,17.81A9,9,0,0,1,9,0a9.15,9.15,0,0,1,8.94,8.25l0,.24-.22-.08A5.83,5.83,0,0,0,17,8.19l-.1,0V8.06A8.1,8.1,0,0,0,9,1a8,8,0,0,0-1.6,15.77l.1,0,0,.1c0,.25.09.49.15.73l.06.22Z"/><path class="cls-1" d="M9,30.19A9,9,0,0,1,7.9,12.31l.26,0-.11.24c-.11.24-.2.49-.29.74l0,.09H7.64A8,8,0,0,0,9,29.18a8.14,8.14,0,0,0,7.67-5.89l0-.08.09,0a6.77,6.77,0,0,0,.77-.22l.26-.08-.06.26A9.09,9.09,0,0,1,9,30.19Z"/></g></svg>