<svg xmlns="http://www.w3.org/2000/svg" width="31.05" height="28.07" viewBox="0 0 31.05 28.07"><defs><style>.cls-1{fill:#fff;}</style></defs><title>Kantar iLink</title><g id="layer"><path class="cls-1" d="M4.4,27.88a3.87,3.87,0,0,1,.18-.59c.25-.63.52-1.25.76-1.8l0-.12c.29-.68.62-1.44.91-2.21a1.8,1.8,0,0,0-.72-1.92A11,11,0,0,1,.14,12.89,2.56,2.56,0,0,0,0,12.4V10.35A10.89,10.89,0,0,1,2,5.79,15.41,15.41,0,0,1,11.94.34,23.14,23.14,0,0,1,15.85,0a18.42,18.42,0,0,1,9.8,2.7c3.31,2,5.06,4.57,5.35,7.75.39,4.27-1.37,7.69-5.24,10.15a18,18,0,0,1-10,2.6c-.49,0-1,0-1.54,0H14a2.83,2.83,0,0,0-1.92.68A19.93,19.93,0,0,1,5,27.92l-.4.11-.19,0Zm2.9-6.76a.84.84,0,0,1,0,.19c-.19.87-.34,1.73-.48,2.62L5.45,27.24l2.44-1.35.93-.72.08-.06a21.57,21.57,0,0,0,2.17-1.82,3.34,3.34,0,0,1,2.51-1.06,5,5,0,0,1,.65,0,18.44,18.44,0,0,0,2.09.12,16.59,16.59,0,0,0,8.05-2A10.47,10.47,0,0,0,30,13.18c.8-3.89-1-7.46-4.86-9.78A17.87,17.87,0,0,0,15.82.88a22.85,22.85,0,0,0-3.35.26,15.37,15.37,0,0,0-9,4.26A8.13,8.13,0,0,0,.93,11.77,10.13,10.13,0,0,0,7,20.93l.22.1.08,0Z"/><path class="cls-1" d="M17,18.53a5.37,5.37,0,0,1-3.48-1.29l-1.69,0v.86a.46.46,0,0,1-.46.45H8.13a.45.45,0,0,1-.45-.45V9.55a.45.45,0,0,1,.45-.45h3.28a.46.46,0,0,1,.46.45v.2h1A4,4,0,0,1,13.91,9a3.66,3.66,0,0,0,.7-.44,6.1,6.1,0,0,0,1.93-2,2.49,2.49,0,0,0,0-1.92.41.41,0,0,1,0-.29,1.5,1.5,0,0,1,1.42-1,1.48,1.48,0,0,1,1,.37,4.29,4.29,0,0,1,1.22,4.62l0,.13h2.95A1.64,1.64,0,0,1,24.7,9.77a1.62,1.62,0,0,1-.4,1.35l-.06.07.06.06a1.59,1.59,0,0,1-.39,2.48l-.08,0,0,.08a1.6,1.6,0,0,1-1.15,2.35l-.12,0,0,.11a1.71,1.71,0,0,1,.11.59,1.6,1.6,0,0,1-1.6,1.6Zm-5.17-2.22h1.84a.52.52,0,0,1,.31.12,4.4,4.4,0,0,0,3,1.2h4.12a.7.7,0,0,0,0-1.4H20a.45.45,0,1,1,0-.9h2.49a.7.7,0,1,0,0-1.39H20A.46.46,0,1,1,20,13h3.15a.7.7,0,0,0,0-1.39H20a.45.45,0,1,1,0-.9h3.15a.7.7,0,0,0,.68-.82.73.73,0,0,0-.74-.58H18.83a.45.45,0,1,1,0-.9h.33L19.3,8a3.39,3.39,0,0,0-.93-3.63.66.66,0,0,0-.43-.16.6.6,0,0,0-.48.24c.51,1.93,0,3-2.29,4.78a6.1,6.1,0,0,1-.82.52,2.12,2.12,0,0,0-.89.7.44.44,0,0,1-.36.19H11.87ZM8.59,17.63H11V10H8.59Z"/></g></svg>