<svg xmlns="http://www.w3.org/2000/svg" width="28.12" height="27.89" viewBox="0 0 28.12 27.89"><defs><style>.cls-1{fill:#fff;}</style></defs><title>Kantar iLink</title><g id="layer"><path class="cls-1" d="M8.09,18.93a3.64,3.64,0,0,1-2.85-1.2C3.7,16,3.94,13.08,4,12.76A4.12,4.12,0,0,1,6,9.11,4.43,4.43,0,0,1,8.13,8.6a4.37,4.37,0,0,1,2.25.56,4.12,4.12,0,0,1,2,3.66c.05.52.23,3.22-1.27,4.91a3.64,3.64,0,0,1-2.85,1.2Zm.05-9.45A3.7,3.7,0,0,0,6.42,10a3.24,3.24,0,0,0-1.54,2.92c0,.28-.24,2.76,1,4.18a2.84,2.84,0,0,0,2.2,1h.11a2.85,2.85,0,0,0,2.21-1c1.24-1.4,1-3.84,1-4.11a3.33,3.33,0,0,0-1.53-3A3.37,3.37,0,0,0,8.2,9.48Z"/><path class="cls-1" d="M19.89,18.93A3.64,3.64,0,0,1,17,17.73c-1.54-1.73-1.3-4.65-1.27-5a4.12,4.12,0,0,1,2-3.65,4.44,4.44,0,0,1,2.18-.51,4.36,4.36,0,0,1,2.24.56,4.12,4.12,0,0,1,2,3.66c.05.52.23,3.22-1.26,4.91A3.68,3.68,0,0,1,20,18.93Zm.05-9.45a3.7,3.7,0,0,0-1.72.47,3.24,3.24,0,0,0-1.54,2.92c0,.28-.23,2.77,1,4.18a2.84,2.84,0,0,0,2.2,1H20a2.85,2.85,0,0,0,2.21-1c1.24-1.4,1-3.84,1-4.11a3.33,3.33,0,0,0-1.53-3A3.37,3.37,0,0,0,20,9.48Z"/><path class="cls-1" d="M20,27.89a16.93,16.93,0,0,1-5.91-1,16.84,16.84,0,0,1-5.89,1A14.83,14.83,0,0,1,.39,26a.43.43,0,0,1-.19-.23A6.11,6.11,0,0,1,0,24v-.12c0-.84.08-2.6,1.78-3.18a11.71,11.71,0,0,0,3.38-1.54A.53.53,0,0,1,5.43,19a.49.49,0,0,1,.41.21.54.54,0,0,1,.08.37.52.52,0,0,1-.2.32,12.66,12.66,0,0,1-3.64,1.65c-1,.35-1.07,1.32-1.1,2.29V24a6.26,6.26,0,0,0,.09,1.23v0h0a14.81,14.81,0,0,0,7.07,1.65,16.24,16.24,0,0,0,4.55-.64c-.32-.16-.5-.28-.52-.29a.48.48,0,0,1-.19-.23A5.76,5.76,0,0,1,11.8,24v-.12a3.58,3.58,0,0,1,1-2.72l-.07,0h0a13.51,13.51,0,0,1-2.14-1.14.57.57,0,0,1-.2-.32.49.49,0,0,1,.49-.57.47.47,0,0,1,.28.09,12.27,12.27,0,0,0,2.93,1.4A12.08,12.08,0,0,0,17,19.12a.53.53,0,0,1,.27-.08.49.49,0,0,1,.41.21.54.54,0,0,1,.08.37.48.48,0,0,1-.2.32,14.77,14.77,0,0,1-2.13,1.14h0l-.51.19,0,0-.56.16-.3.09H14l-.12.05c-1,.35-1.08,1.32-1.1,2.29V24a6.2,6.2,0,0,0,.09,1.23v0h0a10.53,10.53,0,0,0,1.27.59l.32.13.79.26a17,17,0,0,0,4.69.67A14.57,14.57,0,0,0,27,25.26h0v0A7.1,7.1,0,0,0,27.14,24c0-1.06-.14-2-1.1-2.38a12.74,12.74,0,0,1-3.64-1.66.57.57,0,0,1-.2-.32.5.5,0,0,1,.49-.57.47.47,0,0,1,.28.09,11.58,11.58,0,0,0,3.33,1.51c1.74.59,1.79,2.35,1.82,3.2V24a6.35,6.35,0,0,1-.19,1.79.39.39,0,0,1-.19.23A15,15,0,0,1,20,27.89Z"/><path class="cls-1" d="M6.33,7.81a.49.49,0,0,1-.39-.19l-.68-.85a.52.52,0,0,1-.1-.36.46.46,0,0,1,.18-.33A.51.51,0,0,1,5.65,6a.47.47,0,0,1,.28.09C6.48,2.63,10,0,14,0c4.5,0,8.16,3.15,8.16,7a.49.49,0,0,1-1,0C21.19,3.69,18,1,14,1,10.49,1,7.5,3.13,6.94,6a.56.56,0,0,1,.27.1.51.51,0,0,1,.19.32.49.49,0,0,1-.09.37l-.59.8a.49.49,0,0,1-.39.2Z"/><path class="cls-1" d="M18.88,8.08A.48.48,0,0,1,18.56,8l-.74-.65A.5.5,0,0,1,17.66,7a.51.51,0,0,1,.12-.36.52.52,0,0,1,.37-.16h0A4.24,4.24,0,0,0,14,3.64c-2.38,0-4.32,1.62-4.32,3.6a.49.49,0,0,1-1,0c0-2.53,2.38-4.58,5.3-4.58a5.22,5.22,0,0,1,5.19,3.65h.11a.5.5,0,0,1,.21,0,.49.49,0,0,1,.23.66l-.4.8a.48.48,0,0,1-.34.26Z"/></g></svg>