<svg xmlns="http://www.w3.org/2000/svg" width="20" height="20" viewBox="0 0 20 20"><defs><style>.cls-1{fill:#fff;}</style></defs><title>Kantar iLink_NonResponsive</title><g id="Layer_3" data-name="Layer 3"><path class="cls-1" d="M14.17,12.32l4.49-4.5A4.51,4.51,0,0,0,20,4.58a4.51,4.51,0,0,0-1.34-3.24,4.58,4.58,0,0,0-6.48,0L8.75,4.78a.45.45,0,0,0,0,.66.46.46,0,0,0,.65,0L12.84,2A3.67,3.67,0,0,1,18,2a3.65,3.65,0,0,1,0,5.16l-4.49,4.5a3.66,3.66,0,0,1-5.16,0A.47.47,0,0,0,8,11.52a.44.44,0,0,0-.33.14.45.45,0,0,0,0,.66,4.59,4.59,0,0,0,6.48,0Z"/><path class="cls-1" d="M8.81,6.61A4.58,4.58,0,0,0,5.57,8L1.34,12.19A4.57,4.57,0,0,0,4.58,20a4.54,4.54,0,0,0,3.24-1.33l2.91-2.91a.47.47,0,0,0,0-.66.46.46,0,0,0-.66,0L7.16,18a3.65,3.65,0,0,1-2.58,1.06A3.6,3.6,0,0,1,2,18a3.65,3.65,0,0,1,0-5.15L6.23,8.61a3.67,3.67,0,0,1,5.16,0,.45.45,0,0,0,.66,0,.47.47,0,0,0,0-.66A4.56,4.56,0,0,0,8.81,6.61Z"/><path class="cls-1" d="M12.44,16.46a.47.47,0,0,0-.47.47v2.25a.47.47,0,0,0,.94,0V16.93A.47.47,0,0,0,12.44,16.46Z"/><path class="cls-1" d="M14.92,15.85a.48.48,0,0,0-.66,0,.47.47,0,0,0,0,.66l1.59,1.59a.47.47,0,1,0,.66-.66Z"/><path class="cls-1" d="M16.91,13.47H14.67a.47.47,0,0,0,0,.94h2.24a.47.47,0,0,0,0-.94Z"/><path class="cls-1" d="M6.45,1.13A.47.47,0,0,0,6,1.59V3.84a.47.47,0,1,0,.93,0V1.59A.47.47,0,0,0,6.45,1.13Z"/><path class="cls-1" d="M4.54,4.26,3,2.67a.47.47,0,1,0-.66.66L3.88,4.92a.49.49,0,0,0,.66,0A.47.47,0,0,0,4.54,4.26Z"/><path class="cls-1" d="M4.19,6.36H2A.47.47,0,1,0,2,7.3H4.19a.47.47,0,1,0,0-.94Z"/></g></svg>