<svg xmlns="http://www.w3.org/2000/svg" width="19.2" height="21.64" viewBox="0 0 19.2 21.64"><defs><style>.cls-1{fill:#fff;}</style></defs><title>Kantar iLink_NonResponsive</title><g id="Layer_3" data-name="Layer 3"><path class="cls-1" d="M13.24,17.83l.12-.33.61.07c.5.06,1,.12,1.52.13h.12a6.27,6.27,0,0,0,1.6-.19,2.53,2.53,0,0,0,1.89-3.27,8.39,8.39,0,0,0-1.76-3.15l-.08-.1-.05-.28.13-.15c.16-.2.31-.39.46-.6a6.42,6.42,0,0,0,1.38-3.09A2.5,2.5,0,0,0,18.7,5a.67.67,0,0,1-.08-.4,2,2,0,0,0-1.47-2.22,2,2,0,0,0-.54-.07,1.94,1.94,0,0,0-1.83,1.24.59.59,0,0,1-.6.45,4.37,4.37,0,0,0-.54.08l-.25,0-.09-.24C12.65,2.34,12,.68,10.06,0H9.14C7.21.7,6.5,2.47,5.93,3.89l-.08.2-.76,0C4.43,4,3.75,4,3,4a4,4,0,0,0-1,.17,2.54,2.54,0,0,0-1.9,3.3,8.17,8.17,0,0,0,1.71,3.07l.27.33L2,10.89s-.25.3-.32.4A6.8,6.8,0,0,0,0,14.74a2.52,2.52,0,0,0,.49,1.87A.59.59,0,0,1,.59,17,2,2,0,0,0,2.1,19.22a1.73,1.73,0,0,0,.5.07A2,2,0,0,0,4.46,18a.47.47,0,0,1,.45-.35c.2,0,.39-.05.62-.08l.28-.05.09.22C6.56,19.3,7.24,21,9.14,21.64H10c1.69-.48,2.44-1.86,3.07-3.24C13.1,18.21,13.17,18,13.24,17.83ZM16.31,3.3V3.06h.61V3.3a1.1,1.1,0,0,1-.3,2.16,1,1,0,0,1-.76-.31,1.17,1.17,0,0,1-.32-.84A1.06,1.06,0,0,1,16.31,3.3ZM14.63,4.89l.09.21A2.14,2.14,0,0,0,16.1,6.33,1.94,1.94,0,0,0,17.78,6l.37-.26.11.43a2.4,2.4,0,0,1-.12,1.32,7.46,7.46,0,0,1-1.43,2.37l-.2.23L16,9.68c-.6-.51-1.14-1-1.69-1.46l-.08-.07,0-.1c-.13-.72-.25-1.44-.37-2.18L13.69,5Zm1.26,5.92-1.57,1.41V9.42Zm-2.11,5.26c.13-.83.28-1.69.47-2.56l0-.1,0,0,2.22-1.87.2.24a7,7,0,0,1,1.49,2.61,1.93,1.93,0,0,1-.09,1.48,1.93,1.93,0,0,1-1.21.81,5,5,0,0,1-1.3.16A8.58,8.58,0,0,1,14,16.65l-.3-.06ZM2.58,18.38a1.07,1.07,0,0,1-.77-.32,1.12,1.12,0,0,1-.33-.78,1.15,1.15,0,0,1,.79-1.06V16h.61v.23a1.11,1.11,0,0,1-.31,2.16Zm2.63-1.74-.43.07-.2,0-.1-.17c-.88-1.43-1.78-1.7-3.07-.91l-.36.21-.1-.4A2.12,2.12,0,0,1,1,14.23a7.26,7.26,0,0,1,1.46-2.47l.19-.24.58.48c.57.48,1.1.93,1.65,1.42l.07.07,0,.11c.13.73.46,2.69.46,2.69l0,.3Zm-1.9-5.82L4.88,9.41v2.81ZM5.4,5.73C5.27,6.51,5.14,7.25,5,8a.54.54,0,0,1-.19.31L3.21,9.67l-.53.44-.19-.23A6.93,6.93,0,0,1,1,7.23,1.67,1.67,0,0,1,2.28,5,6.45,6.45,0,0,1,5.22,5l.29.06Zm7.81,1.72L10.7,6l2.06-.72ZM6.83,4.06a5.43,5.43,0,0,1,2-2.92,1.57,1.57,0,0,1,2,.28,6.57,6.57,0,0,1,1.59,2.66l.09.28-.74.28c-.69.26-1.33.51-2.06.76h0l-.18,0c-.63-.23-1.24-.47-1.86-.71l-.87-.33Zm-.4,1.19L8.51,6,6,7.44Zm-.58,7.39c0-.45,0-.92,0-1.33v-1c0-.42,0-.85,0-1.27a.76.76,0,0,1,.28-.49c1.06-.66,2.14-1.3,3.21-1.9a.69.69,0,0,1,.53,0c1.13.63,2.19,1.26,3.19,1.88a.7.7,0,0,1,.3.5c0,.82,0,1.64,0,2.44V12.6a.62.62,0,0,1-.35.58l-1.28.75-.14.08c-.56.34-1.15.68-1.73,1a.72.72,0,0,1-.55,0c-1.12-.64-2.2-1.28-3.21-1.91A.67.67,0,0,1,5.85,12.64ZM6,14.19l2.52,1.48-2.07.72Zm6.38,3.38a5.9,5.9,0,0,1-1.76,2.78,1.63,1.63,0,0,1-1,.38,1.8,1.8,0,0,1-1.2-.53,6.46,6.46,0,0,1-1.58-2.63l-.1-.28.6-.24,2.16-.83h0l.1,0,.07,0,2.37.91.42.16Zm.26-1.22-1.94-.68,2.52-1.48-.45,2.21Z"/></g></svg>