<svg xmlns="http://www.w3.org/2000/svg" width="20.09" height="23.02" viewBox="0 0 20.09 23.02"><defs><style>.cls-1{fill:#fff;}</style></defs><title>Kantar iLink_NonResponsive</title><g id="Layer_3" data-name="Layer 3"><path class="cls-1" d="M13.22,23,9,23H5.44a.83.83,0,0,1-.64-.2,1,1,0,0,1-.21-.72c0-2.17,0-4.12,0-6a2,2,0,0,0-.26-1,7.07,7.07,0,0,1,5.93-10.9,7.31,7.31,0,0,1,2,.29,7.15,7.15,0,0,1,5.06,6.39,9.13,9.13,0,0,0,.4,1.79c.14.43.3.85.47,1.26s.26.68.38,1a1.2,1.2,0,0,1,0,1.06,1.17,1.17,0,0,1-1,.45h-.65c-.29,2.63-.66,3.11-2.87,3.72v.5c0,.45,0,.9,0,1.36a.93.93,0,0,1-.19.7.86.86,0,0,1-.66.22ZM13,21.86c0-.14,0-.28,0-.42a7.59,7.59,0,0,0,0-1.07c-.07-.83.22-1.18,1-1.26a1.71,1.71,0,0,0,1.78-1.83c0-1.69.07-1.72,1.76-1.88l0,0-.29-.76c-.25-.66-.51-1.33-.73-2a5.08,5.08,0,0,1-.29-1.47A6.09,6.09,0,0,0,12.33,5.7a5.86,5.86,0,0,0-2.06-.37,6,6,0,0,0-4.45,2A5.7,5.7,0,0,0,5,13.93a6,6,0,0,1,.75,3.33c0,1,0,2,0,3v1c0,.15,0,.3,0,.45v.14Z"/><path class="cls-1" d="M14.19,4.88c0-.09,0-.19-.08-.28S14,4.16,14,4a20.2,20.2,0,0,1,1.41-1.89A.65.65,0,0,1,15.91,2a.36.36,0,0,1,.19,0,.69.69,0,0,1,.27.42.25.25,0,0,1,0,.21c-.46.67-1,1.32-1.46,2l-.13.17a.38.38,0,0,1-.21.11L14.32,5l-.1,0Z"/><path class="cls-1" d="M5.65,4.83a.62.62,0,0,1-.44-.17C4.7,4,4.21,3.38,3.75,2.72a.62.62,0,0,1,.07-.6.8.8,0,0,1,.47-.19h0L4.43,2c.5.58,1,1.18,1.49,1.8l.4.5-.05.06a2.61,2.61,0,0,0-.17.2.76.76,0,0,1-.31.27Z"/><path class="cls-1" d="M2.27,8.08l-.09,0a18.13,18.13,0,0,1-2-1C0,7,0,6.65,0,6.46s.15-.21.28-.3l.16-.11,0,0,.57.3c.57.3,1.12.59,1.65.9a.34.34,0,0,1,.13.25.51.51,0,0,1-.05.37.76.76,0,0,1-.51.25Z"/><path class="cls-1" d="M17.71,8.17l-.17-.1c-.14-.08-.27-.16-.29-.28s0-.55.18-.64a19,19,0,0,1,2-1h0l.09,0a.74.74,0,0,1,.51.25.54.54,0,0,1,.06.41c0,.11,0,.18-.11.21-.53.32-1.08.61-1.65.9l-.56.3Z"/><path class="cls-1" d="M10.22,3.44A.68.68,0,0,1,9.76,3,20.9,20.9,0,0,1,9.75.6c0-.15.15-.27.29-.39L10.2.07,10.26,0l.07.07.16.13a.77.77,0,0,1,.3.38,4,4,0,0,1,0,.85c0,.11,0,.44,0,.44h0a1.93,1.93,0,0,0,0,.24,4.84,4.84,0,0,1,0,.85.74.74,0,0,1-.52.48Z"/><path class="cls-1" d="M10.27,14.3a3.47,3.47,0,0,1-3.51-3.48,3.53,3.53,0,0,1,3.48-3.55h0a3.57,3.57,0,0,1,3.51,3.5,3.43,3.43,0,0,1-1,2.48,3.51,3.51,0,0,1-2.48,1.05Zm0-6a2.51,2.51,0,0,0-1.75.74,2.48,2.48,0,0,0-.7,1.77,2.42,2.42,0,0,0,2.45,2.4,2.45,2.45,0,0,0,2.47-2.41A2.4,2.4,0,0,0,12,9.08a2.44,2.44,0,0,0-1.75-.75Z"/><path class="cls-1" d="M10.28,12.09a1.31,1.31,0,0,1,0-2.61,1.31,1.31,0,1,1,0,2.61Zm0-.41a.9.9,0,1,0,0-1.79.9.9,0,0,0,0,1.79Z"/></g></svg>