<svg id="Layer_1" data-name="Layer 1" xmlns="http://www.w3.org/2000/svg" xmlns:xlink="http://www.w3.org/1999/xlink" width="141.07" height="141.07" viewBox="0 0 141.07 141.07"><defs><style>.cls-1,.cls-12,.cls-5,.cls-9{fill:none;}.cls-2{fill:#df1f26;}.cls-3{fill:#b4b4b2;}.cls-4{fill:#717272;}.cls-5{stroke:#df1f26;stroke-width:0.61px;}.cls-12,.cls-5{stroke-miterlimit:10;}.cls-6{clip-path:url(#clip-path);}.cls-7{clip-path:url(#clip-path-2);}.cls-8{fill:#b3b4b2;}.cls-12,.cls-9{stroke:#b3b4b2;}.cls-9{stroke-linecap:round;stroke-linejoin:round;stroke-width:0.61px;}.cls-10{fill:#b3b3b3;}.cls-11{fill:#b7b7b8;}.cls-12{stroke-width:0.61px;}</style><clipPath id="clip-path"><path class="cls-1" d="M123.35,77.6V72.29a5.28,5.28,0,0,0-9-.23v5.78a5.28,5.28,0,0,0,9-.24Z"/></clipPath><clipPath id="clip-path-2"><rect class="cls-1" x="113.92" y="69.81" width="10.1" height="13.1"/></clipPath></defs><title>iLink SVG Elements_Non-Responsive</title><path class="cls-2" d="M53.2,42.29a3.73,3.73,0,0,1-.28-1.51c.06-.48.22-1.79.26-2.18a5.45,5.45,0,0,0,.07-1.18h0a10.83,10.83,0,0,0,0-1.58c-.07-.36-.16-.77-.21-.94a1,1,0,0,1,0-.31h0a.78.78,0,0,0,0-.4c0-.13-.4-1.18-.53-1.55A6.64,6.64,0,0,1,52,31.22c0-.4-.14-1.25-.15-1.38l.17-.14c.05-.05.05-.13,0-.22a2.22,2.22,0,0,1-.14-.32c-.22,0-.55,0-.92,0s-.71,0-.92,0c0,.08-.1.24-.14.32s-.07.17,0,.22l.17.14c0,.13-.11,1-.15,1.38a7.26,7.26,0,0,1-.4,1.42c-.14.37-.5,1.42-.53,1.55a.79.79,0,0,0,0,.4h0a1.07,1.07,0,0,1,0,.31c0,.17-.14.58-.21.94a10.71,10.71,0,0,0,0,1.58h0a6.2,6.2,0,0,0,.07,1.18c0,.39.21,1.7.26,2.18a3.73,3.73,0,0,1-.28,1.51,2.08,2.08,0,0,0,0,1.14,1.66,1.66,0,0,0,.46.59,2.27,2.27,0,0,0,.79.2h2a1.2,1.2,0,0,0,1.25-.79A2.08,2.08,0,0,0,53.2,42.29Z"/><path class="cls-2" d="M50.07,29.1h1.81A1,1,0,0,1,52.1,29s0-.46-.2-.52a2,2,0,0,0-.79-.11h-.27a2.07,2.07,0,0,0-.79.11c-.2.06-.2.52-.2.52s.23.07.22.09Z"/><rect class="cls-3" x="45.07" y="29.92" width="12.33" height="0.79" rx="0.35"/><rect class="cls-3" x="43.46" y="28.19" width="1.39" height="4.25" rx="0.62"/><rect class="cls-3" x="42.08" y="28.88" width="1.04" height="2.86" rx="0.46"/><rect class="cls-3" x="57.68" y="28.19" width="1.39" height="4.25" rx="0.62" transform="translate(116.75 60.63) rotate(-180)"/><rect class="cls-3" x="59.41" y="28.88" width="1.04" height="2.86" rx="0.46" transform="translate(119.86 60.63) rotate(180)"/><path class="cls-2" d="M49,34.54v1.09s-2-.32-2.5-1.08-.41-3.66-.41-3.66a1,1,0,0,1-.19-1.14c.13-.23.86-.23,1,0a1.5,1.5,0,0,1,0,1.14,5,5,0,0,0,.46,3A2,2,0,0,0,49,34.54Z"/><path class="cls-2" d="M53,34.54v1.09s2-.32,2.51-1.08.41-3.66.41-3.66a1,1,0,0,0,.18-1.14c-.12-.23-.86-.23-1,0a1.46,1.46,0,0,0,0,1.14,5.1,5.1,0,0,1-.46,3A2,2,0,0,1,53,34.54Z"/><path class="cls-4" d="M38.94,12.85a1.33,1.33,0,0,0,.35.26,1,1,0,0,0,.43.1.49.49,0,0,0,.34-.12.37.37,0,0,0,.14-.29.33.33,0,0,0-.11-.26,1.06,1.06,0,0,0-.26-.17,2.18,2.18,0,0,0-.34-.14,2.26,2.26,0,0,1-.35-.17,1.1,1.1,0,0,1-.32-.29.67.67,0,0,1-.14-.45.8.8,0,0,1,.09-.39,1.05,1.05,0,0,1,.25-.3,1,1,0,0,1,.34-.18,1.39,1.39,0,0,1,.4-.06,2,2,0,0,1,.49.07,1.9,1.9,0,0,1,.47.24l-.33.47a.87.87,0,0,0-.25-.15.91.91,0,0,0-.32-.06.55.55,0,0,0-.18,0,.49.49,0,0,0-.17.06l-.11.11a.3.3,0,0,0,0,.16.26.26,0,0,0,.12.22,1,1,0,0,0,.28.15l.36.15a1.58,1.58,0,0,1,.36.2,1,1,0,0,1,.29.3,1,1,0,0,1,0,.86,1.07,1.07,0,0,1-.25.31,1.33,1.33,0,0,1-.35.2,1.23,1.23,0,0,1-.42.07,1.53,1.53,0,0,1-.64-.13,1.74,1.74,0,0,1-.55-.36Z"/><path class="cls-4" d="M42.07,12.94a.35.35,0,0,0,.06.24.34.34,0,0,0,.22.07l.14,0,.14-.06.19.43a.75.75,0,0,1-.25.13,1,1,0,0,1-.31,0,1,1,0,0,1-.33,0,.61.61,0,0,1-.29-.19.58.58,0,0,1-.13-.23,1.18,1.18,0,0,1,0-.35v-1H41v-.49h.49v-.73h.61v.73h.64v.49h-.64Z"/><path class="cls-4" d="M44.8,12h-.22a.8.8,0,0,0-.33.08.71.71,0,0,0-.28.24v1.44h-.61V11.45H44v.23a.65.65,0,0,1,.28-.2,1.12,1.12,0,0,1,.38-.06h.19Z"/><path class="cls-4" d="M47.16,13.36a1,1,0,0,1-.42.31,1.34,1.34,0,0,1-.52.1,1.45,1.45,0,0,1-.47-.08,1.23,1.23,0,0,1-.38-.24,1.21,1.21,0,0,1-.25-.37,1.3,1.3,0,0,1-.09-.49,1.33,1.33,0,0,1,.08-.45,1,1,0,0,1,.22-.38,1.08,1.08,0,0,1,.81-.36.91.91,0,0,1,.43.1,1,1,0,0,1,.34.25.91.91,0,0,1,.22.37,1.12,1.12,0,0,1,.08.45.91.91,0,0,1,0,.17H45.62a.57.57,0,0,0,.07.22.55.55,0,0,0,.13.17.72.72,0,0,0,.19.11.56.56,0,0,0,.23,0,.64.64,0,0,0,.34-.09.72.72,0,0,0,.23-.17Zm-.57-1.07a.34.34,0,0,0-.05-.14.3.3,0,0,0-.09-.13.42.42,0,0,0-.14-.09.47.47,0,0,0-.17,0,.49.49,0,0,0-.49.39Z"/><path class="cls-4" d="M47.73,13.73V11.45h.59v.18a.92.92,0,0,1,.29-.17A1,1,0,0,1,49,11.4a.92.92,0,0,1,.44.1,1.17,1.17,0,0,1,.35.27,1.09,1.09,0,0,1,.17.32,1.56,1.56,0,0,1,.06.48v1.16h-.61V12.52a1,1,0,0,0,0-.27.86.86,0,0,0-.1-.16.5.5,0,0,0-.35-.12.55.55,0,0,0-.18,0l-.16.07a.4.4,0,0,0-.12.1.38.38,0,0,0-.09.09v1.48Z"/><path class="cls-4" d="M52.82,13.6a2.2,2.2,0,0,1,0,.5,1.06,1.06,0,0,1-.15.34,1.07,1.07,0,0,1-.42.34,1.41,1.41,0,0,1-.59.12,1.15,1.15,0,0,1-.33,0,1.32,1.32,0,0,1-.3-.09l-.26-.15a1.29,1.29,0,0,1-.21-.19l.39-.4.11.11a.56.56,0,0,0,.15.1.93.93,0,0,0,.2.09.9.9,0,0,0,.25,0,.67.67,0,0,0,.26,0,.46.46,0,0,0,.2-.13.64.64,0,0,0,.11-.2,1.46,1.46,0,0,0,0-.34v-.07a1,1,0,0,1-.61.2,1.12,1.12,0,0,1-.48-.1,1,1,0,0,1-.38-.28,1.31,1.31,0,0,1-.21-.36,1.27,1.27,0,0,1-.08-.44,1.19,1.19,0,0,1,.09-.47,1.36,1.36,0,0,1,.24-.38,1.24,1.24,0,0,1,.35-.25,1.08,1.08,0,0,1,.44-.09,1,1,0,0,1,.36.06,1.34,1.34,0,0,1,.31.17v-.18h.58Zm-.61-1.35A.61.61,0,0,0,52,12a.66.66,0,0,0-.32-.07.53.53,0,0,0-.25,0,.49.49,0,0,0-.18.14.56.56,0,0,0-.12.2.85.85,0,0,0,0,.23.7.7,0,0,0,0,.25.62.62,0,0,0,.12.19.53.53,0,0,0,.2.13.59.59,0,0,0,.23.05.69.69,0,0,0,.32-.08.74.74,0,0,0,.23-.2Z"/><path class="cls-4" d="M54.35,12.94a.35.35,0,0,0,.06.24.33.33,0,0,0,.21.07l.15,0,.13-.06.2.43a.79.79,0,0,1-.26.13,1,1,0,0,1-.31,0,1,1,0,0,1-.33,0,.59.59,0,0,1-.28-.19.74.74,0,0,1-.14-.23,1.2,1.2,0,0,1,0-.35v-1h-.5v-.49h.5v-.73h.61v.73H55v.49h-.63Z"/><path class="cls-4" d="M56.16,13.73h-.62V10.39h.62v1.22a1.06,1.06,0,0,1,.28-.15.92.92,0,0,1,.33-.06,1,1,0,0,1,.45.1,1.13,1.13,0,0,1,.34.27.92.92,0,0,1,.18.32,1.56,1.56,0,0,1,.06.48v1.16h-.61V12.52a.7.7,0,0,0,0-.27.39.39,0,0,0-.1-.16.47.47,0,0,0-.34-.12.58.58,0,0,0-.19,0l-.15.07-.13.1-.08.09Z"/><path class="cls-4" d="M59.53,12.59a1.19,1.19,0,0,1,.1-.46,1.09,1.09,0,0,1,.25-.38,1.19,1.19,0,0,1,.38-.25,1.13,1.13,0,0,1,.49-.1,1.12,1.12,0,0,1,.48.1,1.09,1.09,0,0,1,.38.25,1.28,1.28,0,0,1,.26.38,1.18,1.18,0,0,1,.09.46,1.14,1.14,0,0,1-.09.46,1.42,1.42,0,0,1-.26.38,1.09,1.09,0,0,1-.38.25,1.28,1.28,0,0,1-.48.09,1.3,1.3,0,0,1-.49-.09,1.13,1.13,0,0,1-.63-.63A1.15,1.15,0,0,1,59.53,12.59Zm.61,0a.69.69,0,0,0,0,.24.82.82,0,0,0,.12.2.64.64,0,0,0,.19.13.62.62,0,0,0,.25.05.69.69,0,0,0,.24-.05.53.53,0,0,0,.19-.13.82.82,0,0,0,.12-.2.69.69,0,0,0,.05-.24.64.64,0,0,0-.05-.24.56.56,0,0,0-.12-.2A.55.55,0,0,0,61,12a.67.67,0,0,0-.24,0,.62.62,0,0,0-.25,0,.67.67,0,0,0-.19.14.56.56,0,0,0-.12.2A.64.64,0,0,0,60.14,12.59Z"/><path class="cls-4" d="M63.8,11a.23.23,0,0,0-.12-.06.3.3,0,0,0-.13,0,.27.27,0,0,0-.13,0,.35.35,0,0,0-.09.07.3.3,0,0,0,0,.1.68.68,0,0,0,0,.18v.19h.63v.49h-.63v1.79h-.61V11.94h-.49v-.49h.49v-.19a1.1,1.1,0,0,1,.07-.44.7.7,0,0,1,.21-.29.83.83,0,0,1,.53-.18,1,1,0,0,1,.32,0,1.1,1.1,0,0,1,.26.15Z"/><path class="cls-4" d="M41.3,19.36V16.07h1.2a1,1,0,0,1,.75.26.88.88,0,0,1,.28.67.88.88,0,0,1-.06.33,1.1,1.1,0,0,1-.17.28,1,1,0,0,1,.32.32.94.94,0,0,1,.12.47.8.8,0,0,1-.08.37,1.21,1.21,0,0,1-.2.3,1,1,0,0,1-.33.21,1.17,1.17,0,0,1-.45.08Zm1.11-1.94a.89.89,0,0,0,.26,0,.4.4,0,0,0,.14-.11.39.39,0,0,0,0-.5.3.3,0,0,0-.14-.1.65.65,0,0,0-.26,0h-.48v.79Zm-.48,1.38h.65a.72.72,0,0,0,.28,0,.41.41,0,0,0,.25-.39.39.39,0,0,0-.09-.26.34.34,0,0,0-.16-.13.72.72,0,0,0-.28,0h-.65Z"/><path class="cls-4" d="M45.69,17.62h-.21a.84.84,0,0,0-.34.08.59.59,0,0,0-.27.25v1.43h-.61V17.08h.58v.23a.7.7,0,0,1,.28-.19,1,1,0,0,1,.39-.07.55.55,0,0,1,.18,0Z"/><path class="cls-4" d="M48.29,19.36h-.58v-.18a.92.92,0,0,1-.3.17,1,1,0,0,1-.34.06,1.2,1.2,0,0,1-.48-.11,1,1,0,0,1-.37-.28,1,1,0,0,1-.22-.36,1.27,1.27,0,0,1-.08-.44,1.23,1.23,0,0,1,.09-.47,1.18,1.18,0,0,1,.24-.37,1,1,0,0,1,.36-.25A1,1,0,0,1,47,17a.94.94,0,0,1,.37.07.9.9,0,0,1,.3.17v-.19h.58Zm-.61-1.48a.74.74,0,0,0-.23-.2.62.62,0,0,0-.33-.08.6.6,0,0,0-.24,0,.52.52,0,0,0-.19.14.64.64,0,0,0-.11.2.59.59,0,0,0,0,.23.66.66,0,0,0,0,.25.53.53,0,0,0,.13.2.7.7,0,0,0,.19.13.61.61,0,0,0,.24,0,.55.55,0,0,0,.31-.08.57.57,0,0,0,.23-.2Z"/><path class="cls-4" d="M49,19.36V17.08h.59v.19a.77.77,0,0,1,.29-.17.78.78,0,0,1,.35-.07,1.05,1.05,0,0,1,.44.1,1.17,1.17,0,0,1,.35.27,1.09,1.09,0,0,1,.17.32,1.56,1.56,0,0,1,.06.48v1.16h-.61V18.15a.88.88,0,0,0,0-.26.49.49,0,0,0-.1-.16.46.46,0,0,0-.35-.13.57.57,0,0,0-.18,0l-.16.07-.12.09a.38.38,0,0,0-.09.09v1.48Z"/><path class="cls-4" d="M53.51,19.36v-.18a.86.86,0,0,1-.31.17.88.88,0,0,1-.33.06,1.13,1.13,0,0,1-.48-.11,1.1,1.1,0,0,1-.59-.64,1.27,1.27,0,0,1-.08-.44,1.23,1.23,0,0,1,.09-.47,1.18,1.18,0,0,1,.24-.37,1.07,1.07,0,0,1,.35-.25,1.09,1.09,0,0,1,.44-.1,1,1,0,0,1,.64.22V16h.61v3.33Zm0-1.48a.68.68,0,0,0-.24-.2.57.57,0,0,0-.32-.08.7.7,0,0,0-.25,0,.49.49,0,0,0-.18.14.67.67,0,0,0-.12.2.85.85,0,0,0,0,.23.66.66,0,0,0,.05.25.67.67,0,0,0,.12.2,1,1,0,0,0,.2.13.68.68,0,0,0,.55,0,.74.74,0,0,0,.23-.2Z"/><path class="cls-4" d="M54.8,16h.61v.61H54.8Zm.61,3.33H54.8V17.08h.61Z"/><path class="cls-4" d="M56.11,19.36V17.08h.59v.19A.77.77,0,0,1,57,17.1a.78.78,0,0,1,.35-.07,1,1,0,0,1,.79.37,1.09,1.09,0,0,1,.17.32,1.56,1.56,0,0,1,.06.48v1.16h-.61V18.15a.88.88,0,0,0,0-.26.49.49,0,0,0-.1-.16.46.46,0,0,0-.35-.13.57.57,0,0,0-.18,0l-.16.07-.12.09-.09.09v1.48Z"/><path class="cls-4" d="M61.2,19.23a1.82,1.82,0,0,1-.05.51,1,1,0,0,1-.15.34,1.14,1.14,0,0,1-.42.33,1.41,1.41,0,0,1-.59.12,1.84,1.84,0,0,1-.33,0,2.11,2.11,0,0,1-.3-.1,1.35,1.35,0,0,1-.26-.15,1.29,1.29,0,0,1-.21-.19l.39-.4.11.11a1,1,0,0,0,.15.11.93.93,0,0,0,.2.08A.9.9,0,0,0,60,20a.77.77,0,0,0,.27,0,.52.52,0,0,0,.19-.14.55.55,0,0,0,.11-.2,1.46,1.46,0,0,0,0-.34V19.2a1,1,0,0,1-.61.21,1.13,1.13,0,0,1-.48-.11,1.1,1.1,0,0,1-.59-.64,1.27,1.27,0,0,1-.08-.44,1.23,1.23,0,0,1,.09-.47,1.18,1.18,0,0,1,.24-.37,1.07,1.07,0,0,1,.35-.25A1.09,1.09,0,0,1,60,17a1.17,1.17,0,0,1,.67.24v-.19h.58Zm-.61-1.35a.68.68,0,0,0-.24-.2A.57.57,0,0,0,60,17.6a.6.6,0,0,0-.24,0,.45.45,0,0,0-.19.14.49.49,0,0,0-.11.2.59.59,0,0,0-.05.23.66.66,0,0,0,.05.25.67.67,0,0,0,.12.2,1,1,0,0,0,.2.13.59.59,0,0,0,.23,0,.57.57,0,0,0,.32-.08.64.64,0,0,0,.23-.2Z"/><path class="cls-4" d="M45.39,23.82a3.57,3.57,0,0,0,.14,1,3.13,3.13,0,0,0,.42.86l-.46.32A3.78,3.78,0,0,1,45,25a3.68,3.68,0,0,1-.17-1.15A3.64,3.64,0,0,1,45,22.67a3.51,3.51,0,0,1,.49-1L46,22a3,3,0,0,0-.42.86A3.52,3.52,0,0,0,45.39,23.82Z"/><path class="cls-4" d="M46.88,24.15a.83.83,0,0,0,.26.23.7.7,0,0,0,.35.09.62.62,0,0,0,.23,0,.76.76,0,0,0,.19-.12.52.52,0,0,0,.14-.19.6.6,0,0,0,0-.48.64.64,0,0,0-.13-.19.57.57,0,0,0-.21-.13.71.71,0,0,0-.26,0,.92.92,0,0,0-.39.09V23l.62-.73h-1.1v-.56h2v.37l-.59.73a1.4,1.4,0,0,1,.55.41,1.08,1.08,0,0,1,.21.66,1.29,1.29,0,0,1-.1.48,1,1,0,0,1-.26.36A1.09,1.09,0,0,1,48,25a1.28,1.28,0,0,1-.48.09,1.49,1.49,0,0,1-.59-.13,1.79,1.79,0,0,1-.5-.38Z"/><path class="cls-4" d="M49.61,24.21a1,1,0,0,0,.26.19.64.64,0,0,0,.31.07.56.56,0,0,0,.39-.15.62.62,0,0,0,.14-.18.64.64,0,0,0,0-.24.53.53,0,0,0,0-.25.47.47,0,0,0-.15-.19.4.4,0,0,0-.18-.1.78.78,0,0,0-.22,0,.79.79,0,0,0-.25.05.76.76,0,0,0-.23.13l-.39-.05.21-1.74h1.73v.56H50l0,.52a1,1,0,0,1,.26,0,1.43,1.43,0,0,1,.39.06A1,1,0,0,1,51,23a1.1,1.1,0,0,1,.31.39,1.22,1.22,0,0,1,.11.5,1,1,0,0,1-.1.45,1,1,0,0,1-.26.36,1.36,1.36,0,0,1-.38.24,1.27,1.27,0,0,1-.47.09,1.38,1.38,0,0,1-1-.42Z"/><path class="cls-4" d="M51.88,22.53a.8.8,0,0,1,.07-.34.77.77,0,0,1,.19-.28.75.75,0,0,1,.28-.18.81.81,0,0,1,.35-.07.86.86,0,0,1,.36.07.84.84,0,0,1,.28.18.92.92,0,0,1,.19.28.86.86,0,0,1,0,.68,1,1,0,0,1-.19.27,1.07,1.07,0,0,1-.28.19,1,1,0,0,1-.36.07,1,1,0,0,1-.35-.07.92.92,0,0,1-.28-.19.83.83,0,0,1-.19-.27A.8.8,0,0,1,51.88,22.53Zm1.22,0a.37.37,0,0,0-.09-.25.32.32,0,0,0-.48,0,.37.37,0,0,0-.09.25.38.38,0,0,0,.09.25.34.34,0,0,0,.48,0A.38.38,0,0,0,53.1,22.53ZM52.7,25l1.92-3.28h.52L53.22,25Zm1.46-.82a.8.8,0,0,1,.07-.34.84.84,0,0,1,.18-.28,1,1,0,0,1,.29-.18.78.78,0,0,1,.35-.07.84.84,0,0,1,.35.07,1,1,0,0,1,.29.18.84.84,0,0,1,.18.28.86.86,0,0,1,0,.68.84.84,0,0,1-.18.28,1.19,1.19,0,0,1-.29.18.84.84,0,0,1-.35.07A.78.78,0,0,1,54.7,25a1.19,1.19,0,0,1-.29-.18.84.84,0,0,1-.18-.28A.8.8,0,0,1,54.16,24.17Zm1.22,0a.37.37,0,0,0-.09-.25.34.34,0,0,0-.48,0,.39.39,0,0,0,0,.5.34.34,0,0,0,.48,0A.37.37,0,0,0,55.38,24.17Z"/><path class="cls-4" d="M57.09,23.82a3.52,3.52,0,0,0-.14-1,3,3,0,0,0-.42-.86l.46-.32a3.51,3.51,0,0,1,.49,1,3.64,3.64,0,0,1,.18,1.15A3.69,3.69,0,0,1,57.48,25,3.78,3.78,0,0,1,57,26l-.46-.32A3.13,3.13,0,0,0,57,24.8,3.57,3.57,0,0,0,57.09,23.82Z"/><line class="cls-5" x1="123.35" y1="77.88" x2="123.35" y2="71.55"/><line class="cls-5" x1="114.36" y1="77.88" x2="114.36" y2="71.55"/><path class="cls-2" d="M117.72,67.21c-.07.1-.07.18,0,.23a1.35,1.35,0,0,0,.17.15c0,.15-.11,1-.16,1.48a1.27,1.27,0,0,1,0,.26,7.43,7.43,0,0,1,2.36.06c0-.11,0-.22-.05-.32,0-.43-.16-1.33-.16-1.48a2.21,2.21,0,0,0,.18-.15s0-.13,0-.23a2,2,0,0,1-.11-.25l.18-.25s0-.49-.21-.57A2.37,2.37,0,0,0,119,66h-.29a2.37,2.37,0,0,0-.85.11c-.21.08-.21.57-.21.57l.19.25A2,2,0,0,1,117.72,67.21Z"/><path class="cls-2" d="M120.93,79.94a6.71,6.71,0,0,1-1.42.26,7.8,7.8,0,0,1-2.76-.28,8.05,8.05,0,0,1-.28,1,2.27,2.27,0,0,0,0,1.22,1.89,1.89,0,0,0,.5.63,2.09,2.09,0,0,0,.84.21c.14,0,.93,0,.93,0H119s.79,0,.93,0a1.64,1.64,0,0,0,.85-.21,1.93,1.93,0,0,0,.49-.63,2.27,2.27,0,0,0,0-1.22C121.09,80.48,120.94,80.37,120.93,79.94Z"/><g class="cls-6"><path class="cls-2" d="M119.76,77.72v-.93a.67.67,0,0,0-1.33,0v.84a4,4,0,0,1-1,2.72l-.93,1a.21.21,0,1,0,.31.28l.93-1a4.48,4.48,0,0,0,1.16-3v-.84a.23.23,0,0,1,.24-.23.23.23,0,0,1,.23.23v.93A5,5,0,0,1,118,81.07l-.9,1a.21.21,0,0,0,0,.3.2.2,0,0,0,.14.06.24.24,0,0,0,.16-.07l.9-1a5.35,5.35,0,0,0,1.41-3.63Zm0,0"/><path class="cls-2" d="M120.66,76.79a1.57,1.57,0,0,0-3.13,0v.84a3.17,3.17,0,0,1-.81,2.12l-.66.74a.21.21,0,0,0,0,.29.21.21,0,0,0,.3,0L117,80a3.55,3.55,0,0,0,.92-2.4v-.84a1.15,1.15,0,0,1,2.29,0v.93a5.87,5.87,0,0,1-1.53,4l-.77.84a.22.22,0,0,0,0,.3.2.2,0,0,0,.14.06.24.24,0,0,0,.16-.07L119,82a6.27,6.27,0,0,0,1.64-4.24Zm0,0"/><path class="cls-2" d="M121.56,76.79a2.47,2.47,0,0,0-4.93,0v.84a2.3,2.3,0,0,1-.58,1.52l-.6.66a.21.21,0,1,0,.32.28l.59-.66a2.65,2.65,0,0,0,.69-1.8v-.84a2,2,0,0,1,4.09,0v.93a6.79,6.79,0,0,1-1.76,4.56l-.22.23a.22.22,0,0,0,0,.3.2.2,0,0,0,.14.06.24.24,0,0,0,.16-.07l.21-.24a7.14,7.14,0,0,0,1.87-4.84Zm0,0"/><path class="cls-2" d="M115.73,76.79a.21.21,0,1,0,.42,0,3,3,0,0,1,2.52-2.91.21.21,0,0,0,.18-.24.2.2,0,0,0-.24-.18,3.38,3.38,0,0,0-2,1.12,3.33,3.33,0,0,0-.83,2.21Zm0,0"/><path class="cls-2" d="M116.15,77.63a.21.21,0,0,0-.42,0,1.38,1.38,0,0,1-.35.91l-.53.59a.22.22,0,0,0,0,.3.2.2,0,0,0,.14.06.24.24,0,0,0,.16-.07l.53-.59a1.78,1.78,0,0,0,.46-1.2Zm0,0"/><path class="cls-2" d="M122.05,79.52a.21.21,0,0,0-.26.15,9.06,9.06,0,0,1-.29.88.21.21,0,0,0,.12.27l.08,0a.21.21,0,0,0,.19-.13,8.45,8.45,0,0,0,.31-.93.21.21,0,0,0-.15-.26Zm0,0"/><path class="cls-2" d="M121.34,74.29a.21.21,0,0,0-.28.31,3,3,0,0,1,1,2.19v.93a7.31,7.31,0,0,1-.07,1,.2.2,0,0,0,.18.24h0a.21.21,0,0,0,.21-.18,8.17,8.17,0,0,0,.07-1.11v-.93a3.34,3.34,0,0,0-1.12-2.5Zm0,0"/><path class="cls-2" d="M120.36,74.13a.15.15,0,0,0,.09,0,.21.21,0,0,0,.19-.12.22.22,0,0,0-.1-.28,3.66,3.66,0,0,0-1-.29.2.2,0,0,0-.24.18.21.21,0,0,0,.18.24,3.12,3.12,0,0,1,.84.25Zm0,0"/><path class="cls-2" d="M119.1,72.53h-.24a.21.21,0,0,0-.2.22.2.2,0,0,0,.22.2h.22a3.84,3.84,0,0,1,3.84,3.84v.93a.21.21,0,0,0,.21.21.21.21,0,0,0,.21-.21v-.93a4.26,4.26,0,0,0-4.26-4.26Zm0,0"/><path class="cls-2" d="M116.78,73.67a.16.16,0,0,0,.12,0,4.17,4.17,0,0,1,1.15-.54.21.21,0,1,0-.11-.41,4.31,4.31,0,0,0-1.28.61.21.21,0,0,0,.12.38Zm0,0"/><g class="cls-7"><path class="cls-2" d="M115.25,77.63v-.84a3.79,3.79,0,0,1,1-2.63.22.22,0,0,0,0-.3.21.21,0,0,0-.3,0,4.23,4.23,0,0,0-1.16,2.92v.84a.48.48,0,0,1-.12.31l-.26.29a.21.21,0,0,0,0,.3.19.19,0,0,0,.14,0,.2.2,0,0,0,.16-.07l.26-.29a.86.86,0,0,0,.23-.59Zm0,0"/><path class="cls-2" d="M124,75.15a5.06,5.06,0,0,0-1.1-1.85.21.21,0,0,0-.3,0,.22.22,0,0,0,0,.3,4.7,4.7,0,0,1,1,1.69.21.21,0,0,0,.2.15h.06a.21.21,0,0,0,.14-.27Zm0,0"/><path class="cls-2" d="M120.77,71.9a.2.2,0,0,0-.27.13.21.21,0,0,0,.13.27,4.79,4.79,0,0,1,1.3.69.2.2,0,0,0,.13,0,.19.19,0,0,0,.16-.09.2.2,0,0,0,0-.29,5.17,5.17,0,0,0-1.41-.75Zm0,0"/><path class="cls-2" d="M115.81,73.37a4.75,4.75,0,0,1,3.29-1.32,4,4,0,0,1,.68,0,.23.23,0,0,0,.24-.18.22.22,0,0,0-.18-.24,4.71,4.71,0,0,0-.74-.06,5.18,5.18,0,0,0-5.17,4.94.2.2,0,0,0,.2.22h0a.21.21,0,0,0,.21-.2,4.73,4.73,0,0,1,1.46-3.21Zm0,0"/></g><path class="cls-2" d="M119.1,70.72a6.46,6.46,0,0,0-1.4.16.21.21,0,0,0-.16.26.22.22,0,0,0,.25.16,5.8,5.8,0,0,1,1.31-.16,5.62,5.62,0,0,1,4.07,1.74.19.19,0,0,0,.15.07.22.22,0,0,0,.15-.06.22.22,0,0,0,0-.3,6.25,6.25,0,0,0-2-1.37,6,6,0,0,0-2.41-.5Zm0,0"/><path class="cls-2" d="M114.35,73.35a.2.2,0,0,0,.29,0,5.73,5.73,0,0,1,2.3-1.75.2.2,0,0,0,.11-.27.21.21,0,0,0-.27-.12,6.09,6.09,0,0,0-2.47,1.88.21.21,0,0,0,0,.29Zm0,0"/><path class="cls-2" d="M116.16,70.91l.1,0a6.46,6.46,0,0,1,2.84-.65,6.6,6.6,0,0,1,1.53.18.2.2,0,0,0,.25-.15.21.21,0,0,0-.15-.26,7,7,0,0,0-4.66.5.21.21,0,0,0,.09.4Zm0,0"/><path class="cls-2" d="M121.51,70.7a6.27,6.27,0,0,1,.64.3.19.19,0,0,0,.1,0,.22.22,0,0,0,.19-.12.21.21,0,0,0-.09-.28,6,6,0,0,0-.68-.32.22.22,0,0,0-.28.12.21.21,0,0,0,.12.27Zm0,0"/></g><path class="cls-8" d="M129.25,83.29l-5.71-5.13a5.77,5.77,0,0,0,1-3.54,5.85,5.85,0,1,0-2.18,4.77l5.71,5.13ZM113.44,75a5.3,5.3,0,1,1,5.48,5.11A5.29,5.29,0,0,1,113.44,75Zm9.5,3.87"/><path class="cls-4" d="M114.68,51.57V48.29h1.2a1.33,1.33,0,0,1,.44.06,1.08,1.08,0,0,1,.31.19,1.21,1.21,0,0,1,.2.3,1,1,0,0,1,.08.37.93.93,0,0,1-.24.61.9.9,0,0,1,.45.79,1,1,0,0,1-.29.68.89.89,0,0,1-.32.21,1.2,1.2,0,0,1-.46.07Zm1.11-1.94a.76.76,0,0,0,.25,0,.3.3,0,0,0,.15-.11.36.36,0,0,0,.08-.25.39.39,0,0,0-.08-.25.36.36,0,0,0-.15-.1.57.57,0,0,0-.25,0h-.48v.79ZM115.31,51H116a1,1,0,0,0,.28,0,.34.34,0,0,0,.16-.13.39.39,0,0,0,.09-.26.4.4,0,0,0-.09-.27.33.33,0,0,0-.16-.12.7.7,0,0,0-.28-.05h-.65Z"/><path class="cls-4" d="M119.07,49.83h-.21a.8.8,0,0,0-.34.07.65.65,0,0,0-.27.25v1.43h-.61V49.3h.58v.23a.65.65,0,0,1,.28-.2,1,1,0,0,1,.38-.07l.19,0Z"/><path class="cls-4" d="M121.67,51.57h-.58v-.18a.92.92,0,0,1-.3.17,1,1,0,0,1-.34.06,1.29,1.29,0,0,1-.48-.1,1.1,1.1,0,0,1-.38-.29,1.07,1.07,0,0,1-.21-.36,1.22,1.22,0,0,1-.08-.43,1.19,1.19,0,0,1,.09-.47,1.23,1.23,0,0,1,.24-.38,1.06,1.06,0,0,1,.79-.34,1,1,0,0,1,.36.06,1.17,1.17,0,0,1,.31.17V49.3h.58Zm-.61-1.48a.68.68,0,0,0-.24-.2.66.66,0,0,0-.32-.08.6.6,0,0,0-.24,0,.55.55,0,0,0-.19.14.82.82,0,0,0-.12.2.93.93,0,0,0,0,.24.6.6,0,0,0,0,.24.67.67,0,0,0,.12.2.69.69,0,0,0,.2.13.59.59,0,0,0,.23.05.69.69,0,0,0,.32-.08.58.58,0,0,0,.23-.21Z"/><path class="cls-4" d="M122.38,51.57V49.3H123v.18a1.22,1.22,0,0,1,.29-.17,1,1,0,0,1,.36-.06,1,1,0,0,1,.44.1,1,1,0,0,1,.35.26,1.23,1.23,0,0,1,.17.32,1.65,1.65,0,0,1,.06.48v1.16H124v-1.2a.64.64,0,0,0,0-.27.34.34,0,0,0-.1-.16.44.44,0,0,0-.34-.13.52.52,0,0,0-.18,0l-.16.07-.13.09-.08.09v1.48Z"/><path class="cls-4" d="M126.88,51.57v-.18a.75.75,0,0,1-.3.17.88.88,0,0,1-.33.06,1.29,1.29,0,0,1-.48-.1,1.1,1.1,0,0,1-.38-.29,1.07,1.07,0,0,1-.21-.36,1.22,1.22,0,0,1-.08-.43,1.19,1.19,0,0,1,.09-.47,1,1,0,0,1,.24-.38,1.07,1.07,0,0,1,.35-.25,1,1,0,0,1,.44-.09,1,1,0,0,1,.64.21V48.24h.61v3.33Zm0-1.48a.68.68,0,0,0-.24-.2.69.69,0,0,0-.32-.08.66.66,0,0,0-.25,0,.62.62,0,0,0-.18.14.82.82,0,0,0-.12.2.64.64,0,0,0,0,.24.61.61,0,0,0,0,.24.69.69,0,0,0,.13.2.8.8,0,0,0,.19.13.64.64,0,0,0,.56,0,.66.66,0,0,0,.23-.21Z"/><path class="cls-4" d="M110.94,53.92a2.48,2.48,0,0,1,.66.08,1.47,1.47,0,0,1,.47.23,1.53,1.53,0,0,1,.47.57,1.64,1.64,0,0,1,.18.76,1.61,1.61,0,0,1-.18.76,1.53,1.53,0,0,1-.47.57,1.29,1.29,0,0,1-.47.23,2.13,2.13,0,0,1-.66.08h-1V53.92Zm1.15,1.64a1.23,1.23,0,0,0-.07-.39,1.09,1.09,0,0,0-.17-.32,1,1,0,0,0-.34-.27,1.12,1.12,0,0,0-.5-.1h-.47v2.16H111a1.28,1.28,0,0,0,.5-.09,1.13,1.13,0,0,0,.34-.28A1.09,1.09,0,0,0,112,56,1.23,1.23,0,0,0,112.09,55.56Z"/><path class="cls-4" d="M113.21,53.87h.61v.61h-.61Zm.61,3.33h-.61V54.93h.61Z"/><path class="cls-4" d="M117.61,54.44l-.11,0a.35.35,0,0,0-.14,0,.28.28,0,0,0-.13,0l-.08.07a.31.31,0,0,0-.05.1.62.62,0,0,0,0,.18v.19h.64v.49h-.64V57.2h-.61V55.42h-1.12V57.2h-.61V55.42h-.5v-.49h.5v-.19a1.18,1.18,0,0,1,.07-.45A.74.74,0,0,1,115,54a.82.82,0,0,1,.53-.19,1.13,1.13,0,0,1,.32,0,.7.7,0,0,1,.25.15l-.24.42-.12,0a.32.32,0,0,0-.14,0,.24.24,0,0,0-.12,0,.35.35,0,0,0-.09.07.31.31,0,0,0,0,.1.77.77,0,0,0,0,.18v.19h1.12v-.19a1.17,1.17,0,0,1,.08-.45.65.65,0,0,1,.21-.28.8.8,0,0,1,.53-.19,1.13,1.13,0,0,1,.32,0,.79.79,0,0,1,.25.15Z"/><path class="cls-4" d="M120.06,56.84a1.1,1.1,0,0,1-.42.31,1.34,1.34,0,0,1-.52.1,1.45,1.45,0,0,1-.47-.08,1.23,1.23,0,0,1-.38-.24,1.25,1.25,0,0,1-.25-.38,1.21,1.21,0,0,1-.09-.48,1.33,1.33,0,0,1,.08-.45,1,1,0,0,1,.22-.38,1.08,1.08,0,0,1,.81-.36,1,1,0,0,1,.43.09,1.23,1.23,0,0,1,.34.26,1.09,1.09,0,0,1,.22.36,1.19,1.19,0,0,1,.08.45,1,1,0,0,1,0,.18h-1.58a.57.57,0,0,0,.07.22.7.7,0,0,0,.13.17.59.59,0,0,0,.19.11.56.56,0,0,0,.23,0,.64.64,0,0,0,.34-.09.91.91,0,0,0,.23-.17Zm-.57-1.07a.34.34,0,0,0,0-.14.3.3,0,0,0-.09-.13.42.42,0,0,0-.14-.09.33.33,0,0,0-.17,0,.44.44,0,0,0-.33.13.43.43,0,0,0-.16.27Z"/><path class="cls-4" d="M122.06,55.46h-.21a.84.84,0,0,0-.34.08.62.62,0,0,0-.27.24V57.2h-.61V54.93h.59v.23a.62.62,0,0,1,.27-.2,1.23,1.23,0,0,1,.39-.06h.18Z"/><path class="cls-4" d="M124.42,56.84a1.14,1.14,0,0,1-.41.31,1.34,1.34,0,0,1-.52.1,1.4,1.4,0,0,1-.47-.08,1.12,1.12,0,0,1-.38-.24,1.09,1.09,0,0,1-.25-.38,1.06,1.06,0,0,1-.1-.48,1.33,1.33,0,0,1,.08-.45,1.19,1.19,0,0,1,.22-.38,1.1,1.1,0,0,1,.35-.26,1,1,0,0,1,1.23.25,1.11,1.11,0,0,1,.23.36,1.42,1.42,0,0,1,.08.45.9.9,0,0,1,0,.18h-1.57a.79.79,0,0,0,.06.22.75.75,0,0,0,.14.17.54.54,0,0,0,.18.11.59.59,0,0,0,.23,0,.68.68,0,0,0,.35-.09,1.05,1.05,0,0,0,.22-.17Zm-.57-1.07a.33.33,0,0,0,0-.14.45.45,0,0,0-.1-.13.3.3,0,0,0-.13-.09.39.39,0,0,0-.18,0,.44.44,0,0,0-.33.13.48.48,0,0,0-.16.27Z"/><path class="cls-4" d="M125,57.2V54.93h.59v.18a1.05,1.05,0,0,1,.29-.17,1,1,0,0,1,.35-.06,1,1,0,0,1,.79.37.83.83,0,0,1,.18.32,1.53,1.53,0,0,1,.06.47V57.2h-.61V56a1,1,0,0,0,0-.27.44.44,0,0,0-.1-.16.48.48,0,0,0-.34-.13.58.58,0,0,0-.19,0l-.16.07-.12.09-.09.1V57.2Z"/><path class="cls-4" d="M130,56.74a1.21,1.21,0,0,1-1,.51,1.25,1.25,0,0,1-.88-.34,1.19,1.19,0,0,1-.25-.38,1.18,1.18,0,0,1-.09-.46,1.23,1.23,0,0,1,.09-.47,1.08,1.08,0,0,1,.26-.37,1.16,1.16,0,0,1,.39-.26,1.24,1.24,0,0,1,.48-.09,1.14,1.14,0,0,1,.55.13,1.11,1.11,0,0,1,.41.33l-.43.38a.87.87,0,0,0-.23-.2.61.61,0,0,0-.3-.08.6.6,0,0,0-.24.05.72.72,0,0,0-.2.14.64.64,0,0,0-.13.19.8.8,0,0,0,0,.5.64.64,0,0,0,.13.19.53.53,0,0,0,.2.13.71.71,0,0,0,.26,0,.51.51,0,0,0,.32-.1.72.72,0,0,0,.22-.2Z"/><path class="cls-4" d="M132.38,56.84a1.1,1.1,0,0,1-.42.31,1.34,1.34,0,0,1-.52.1,1.45,1.45,0,0,1-.47-.08,1.36,1.36,0,0,1-.38-.24,1.25,1.25,0,0,1-.25-.38,1.21,1.21,0,0,1-.09-.48,1.33,1.33,0,0,1,.08-.45,1,1,0,0,1,.22-.38,1.1,1.1,0,0,1,.35-.26,1.09,1.09,0,0,1,.89,0,1.1,1.1,0,0,1,.34.26,1,1,0,0,1,.22.36,1.19,1.19,0,0,1,.08.45,1,1,0,0,1,0,.18h-1.58a.57.57,0,0,0,.07.22.7.7,0,0,0,.13.17.72.72,0,0,0,.19.11.59.59,0,0,0,.23,0,.64.64,0,0,0,.34-.09.91.91,0,0,0,.23-.17Zm-.57-1.07a.34.34,0,0,0-.05-.14.3.3,0,0,0-.09-.13.34.34,0,0,0-.14-.09.33.33,0,0,0-.17,0,.44.44,0,0,0-.33.13.48.48,0,0,0-.16.27Z"/><path class="cls-4" d="M115.56,61.66a3.64,3.64,0,0,0,.14,1,3.07,3.07,0,0,0,.42.85l-.46.32a3.51,3.51,0,0,1-.49-1,3.64,3.64,0,0,1-.17-1.15,3.68,3.68,0,0,1,.17-1.15,3.78,3.78,0,0,1,.49-1l.46.32a3.27,3.27,0,0,0-.42.86A3.63,3.63,0,0,0,115.56,61.66Z"/><path class="cls-4" d="M116.73,60l.8-.47H118v3.29h-.64V60.28l-.61.34Z"/><path class="cls-4" d="M119.09,62.06a1.18,1.18,0,0,0,.25.19.67.67,0,0,0,.31.07.57.57,0,0,0,.4-.15.53.53,0,0,0,.13-.19.59.59,0,0,0,0-.23.51.51,0,0,0-.06-.25.56.56,0,0,0-.14-.2l-.18-.1a.78.78,0,0,0-.22,0,.74.74,0,0,0-.25,0,.76.76,0,0,0-.23.13l-.4-.06.21-1.74h1.74v.56h-1.22l0,.52.25,0a1.74,1.74,0,0,1,.39,0,1,1,0,0,1,.38.2,1,1,0,0,1,.3.39,1,1,0,0,1,.11.5,1.13,1.13,0,0,1-.09.45,1.19,1.19,0,0,1-.26.36,1.28,1.28,0,0,1-.39.24,1.22,1.22,0,0,1-.47.08,1.35,1.35,0,0,1-1-.42Z"/><path class="cls-4" d="M121.36,60.37a.88.88,0,0,1,.06-.33.92.92,0,0,1,.19-.28,1.07,1.07,0,0,1,.28-.19.94.94,0,0,1,.71,0,.92.92,0,0,1,.28.19.77.77,0,0,1,.19.28.72.72,0,0,1,.07.33.8.8,0,0,1-.07.34.77.77,0,0,1-.19.28.75.75,0,0,1-.28.18.84.84,0,0,1-.35.07.86.86,0,0,1-.36-.07.84.84,0,0,1-.28-.18.92.92,0,0,1-.19-.28A1,1,0,0,1,121.36,60.37Zm1.22,0a.38.38,0,0,0-.09-.25.34.34,0,0,0-.48,0,.38.38,0,0,0-.09.25.37.37,0,0,0,.09.25.32.32,0,0,0,.48,0A.37.37,0,0,0,122.58,60.37Zm-.41,2.47,1.92-3.29h.52l-1.92,3.29Zm1.46-.82a.94.94,0,0,1,.07-.34.92.92,0,0,1,.19-.28.75.75,0,0,1,.28-.18.84.84,0,0,1,.35-.07.86.86,0,0,1,.36.07.75.75,0,0,1,.28.18.92.92,0,0,1,.19.28.94.94,0,0,1,.07.34.88.88,0,0,1-.07.33.9.9,0,0,1-.47.47,1,1,0,0,1-.36.06,1,1,0,0,1-.35-.06.9.9,0,0,1-.47-.47A.88.88,0,0,1,123.63,62Zm1.22,0a.37.37,0,0,0-.09-.25.3.3,0,0,0-.24-.11.27.27,0,0,0-.23.11.37.37,0,0,0-.09.25.34.34,0,0,0,.09.24.27.27,0,0,0,.23.11.3.3,0,0,0,.24-.11A.34.34,0,0,0,124.85,62Z"/><path class="cls-4" d="M126.57,61.66a3.28,3.28,0,0,0-.15-1,3.25,3.25,0,0,0-.41-.86l.45-.32a3.81,3.81,0,0,1,.5,1,4,4,0,0,1,.17,1.15,4,4,0,0,1-.17,1.15,3.53,3.53,0,0,1-.5,1L126,63.5a3,3,0,0,0,.41-.85A3.3,3.3,0,0,0,126.57,61.66Z"/><path class="cls-2" d="M24.15,64a4,4,0,0,1-.29-1.59c.06-.51.23-1.89.28-2.3a6.86,6.86,0,0,0,.07-1.24h0a11.83,11.83,0,0,0,0-1.66c-.08-.38-.18-.81-.22-1a.88.88,0,0,1,0-.33h0a.86.86,0,0,0,0-.42c0-.13-.42-1.24-.56-1.62a7.59,7.59,0,0,1-.43-1.5c0-.43-.15-1.32-.15-1.46a1.35,1.35,0,0,0,.17-.15c0-.05,0-.13,0-.23a2.57,2.57,0,0,1-.14-.42l.21-.07s0-.48-.21-.55a2.3,2.3,0,0,0-.84-.11h-.28a2.24,2.24,0,0,0-.83.11c-.21.07-.21.55-.21.55l.2.07a1.88,1.88,0,0,1-.14.42c-.06.1-.06.18,0,.23a1.22,1.22,0,0,0,.18.15c0,.14-.12,1-.16,1.46a7.59,7.59,0,0,1-.43,1.5c-.14.38-.52,1.49-.55,1.62a.77.77,0,0,0,0,.42h0a.83.83,0,0,1,0,.33c-.05.18-.15.61-.22,1a12,12,0,0,0,0,1.66h0a5.38,5.38,0,0,0,.07,1.24c0,.41.21,1.79.28,2.3a4,4,0,0,1-.3,1.59,2.23,2.23,0,0,0,0,1.2,2,2,0,0,0,.49.62,2.09,2.09,0,0,0,.83.2h2.12a1.55,1.55,0,0,0,.83-.2,1.89,1.89,0,0,0,.49-.62A2.23,2.23,0,0,0,24.15,64Zm-2.34-5.18c-3-1.66-.84-3.72,0-2.33C22.65,55.14,24.85,57.2,21.81,58.86Z"/><path class="cls-8" d="M27.64,56.66C23,52.13,28,49.5,28.81,52.44c2.22-2.1,5.16,2.74-1.17,4.22Zm0,0"/><path class="cls-8" d="M16.4,60c-4.62-.62-2.85-4.27-1.12-2.93.39-2.15,4.14-.61,1.12,2.93Zm0,0"/><path class="cls-8" d="M17.56,50.92c-3.22-1-1.52-3.38-.45-2.22.54-1.49,3,.06.45,2.22Zm0,0"/><path class="cls-4" d="M11.27,36.56v.75h1v.56h-1v.85h1.39v.56h-2V36h2v.56Z"/><path class="cls-4" d="M13.2,39.28V37h.59v.19a.92.92,0,0,1,.29-.17,1,1,0,0,1,.35-.06.92.92,0,0,1,.44.1,1,1,0,0,1,.35.26,1.09,1.09,0,0,1,.17.32,1.56,1.56,0,0,1,.06.48v1.16h-.61V38.07a.88.88,0,0,0,0-.26.62.62,0,0,0-.1-.16.46.46,0,0,0-.35-.13l-.18,0-.16.07-.12.09-.09.09v1.48Z"/><path class="cls-4" d="M15.77,39.84l.11,0a.34.34,0,0,0,.14,0,.27.27,0,0,0,.13,0l.09-.07a1,1,0,0,0,0-.1.74.74,0,0,0,0-.18V37h.61v2.54a1.17,1.17,0,0,1-.08.45.63.63,0,0,1-.2.28.83.83,0,0,1-.53.18,1,1,0,0,1-.32,0,.93.93,0,0,1-.26-.15ZM16.3,36h.61v.61H16.3Z"/><path class="cls-4" d="M17.42,38.15a1.07,1.07,0,0,1,.1-.47,1.19,1.19,0,0,1,.25-.38,1.25,1.25,0,0,1,.38-.25,1.28,1.28,0,0,1,.48-.09,1.3,1.3,0,0,1,.49.09,1.39,1.39,0,0,1,.38.25,1.19,1.19,0,0,1,.25.38,1.07,1.07,0,0,1,.1.47,1,1,0,0,1-.1.46,1.05,1.05,0,0,1-.25.37,1.22,1.22,0,0,1-.38.26,1.3,1.3,0,0,1-.49.09,1.28,1.28,0,0,1-.48-.09,1.12,1.12,0,0,1-.38-.26,1.05,1.05,0,0,1-.25-.37A1,1,0,0,1,17.42,38.15Zm.61,0a.59.59,0,0,0,0,.23.56.56,0,0,0,.12.2.55.55,0,0,0,.19.14.61.61,0,0,0,.24,0,.69.69,0,0,0,.25,0,.67.67,0,0,0,.19-.14.56.56,0,0,0,.12-.2.59.59,0,0,0,0-.23.7.7,0,0,0,0-.25.82.82,0,0,0-.12-.2.64.64,0,0,0-.19-.13.7.7,0,0,0-.25,0,.6.6,0,0,0-.24,0,.53.53,0,0,0-.19.13.82.82,0,0,0-.12.2A.7.7,0,0,0,18,38.15Z"/><path class="cls-4" d="M20.49,40.34l.59-1.27L20,37h.66l.7,1.42L22,37h.63l-1.54,3.34Z"/><path class="cls-4" d="M23.06,39.28V37h.59v.19a1,1,0,0,1,.29-.18,1.19,1.19,0,0,1,.32,0,1,1,0,0,1,.77.35,1.3,1.3,0,0,1,.34-.25,1,1,0,0,1,.47-.1,1,1,0,0,1,.45.1.88.88,0,0,1,.34.26.9.9,0,0,1,.17.32,1.4,1.4,0,0,1,.06.43v1.21h-.61V38.05a.78.78,0,0,0,0-.24.36.36,0,0,0-.08-.15.42.42,0,0,0-.16-.11l-.18,0a.58.58,0,0,0-.19,0,.53.53,0,0,0-.15.08l-.13.09-.08.1s0,.08,0,.12a.57.57,0,0,1,0,.13v1.21h-.61V38.05a.78.78,0,0,0,0-.24.38.38,0,0,0-.09-.15.36.36,0,0,0-.16-.11l-.18,0-.18,0-.15.07-.12.09-.08.09v1.48Z"/><path class="cls-4" d="M29.46,38.92a1.08,1.08,0,0,1-.42.3,1.3,1.3,0,0,1-.51.11,1.28,1.28,0,0,1-.48-.09.91.91,0,0,1-.37-.24,1.12,1.12,0,0,1-.26-.37,1.24,1.24,0,0,1-.09-.48,1.39,1.39,0,0,1,.08-.46,1.3,1.3,0,0,1,.22-.38,1.28,1.28,0,0,1,.35-.26,1.14,1.14,0,0,1,.46-.09,1,1,0,0,1,.43.09,1.07,1.07,0,0,1,.34.25,1.28,1.28,0,0,1,.23.37,1.33,1.33,0,0,1,.08.45.9.9,0,0,1,0,.18H27.92a.81.81,0,0,0,.07.22.51.51,0,0,0,.13.16.76.76,0,0,0,.19.12.85.85,0,0,0,.23,0,.61.61,0,0,0,.34-.08.92.92,0,0,0,.23-.18Zm-.57-1.07a.42.42,0,0,0,0-.15.64.64,0,0,0-.1-.13.48.48,0,0,0-.14-.09.47.47,0,0,0-.17,0,.48.48,0,0,0-.33.12.5.5,0,0,0-.16.28Z"/><path class="cls-4" d="M30,39.28V37h.59v.19a1.05,1.05,0,0,1,.29-.17,1.06,1.06,0,0,1,.8,0,1,1,0,0,1,.34.26.9.9,0,0,1,.17.32,1.52,1.52,0,0,1,.07.48v1.16h-.61V38.07a.83.83,0,0,0,0-.26.44.44,0,0,0-.1-.16.45.45,0,0,0-.34-.13.58.58,0,0,0-.19,0l-.16.07-.12.09-.09.09v1.48Z"/><path class="cls-4" d="M33.67,38.49a.35.35,0,0,0,.06.24.28.28,0,0,0,.21.07.36.36,0,0,0,.15,0l.13-.05.2.43a1.15,1.15,0,0,1-.25.12,1.07,1.07,0,0,1-.32,0,1.26,1.26,0,0,1-.33,0,.73.73,0,0,1-.28-.19.7.7,0,0,1-.13-.24,1.13,1.13,0,0,1,0-.35v-1h-.49V37h.49v-.72h.61V37h.63v.5h-.63Z"/><path class="cls-4" d="M16.5,43.74a3.52,3.52,0,0,0,.14,1,3.13,3.13,0,0,0,.42.86l-.46.32a3.66,3.66,0,0,1-.5-1,4,4,0,0,1,0-2.3,3.66,3.66,0,0,1,.5-1l.46.32a3.13,3.13,0,0,0-.42.86A3.57,3.57,0,0,0,16.5,43.74Z"/><path class="cls-4" d="M17.62,42.34a1.3,1.3,0,0,1,.16-.31,1,1,0,0,1,.23-.24,1.05,1.05,0,0,1,.3-.15,1,1,0,0,1,.35-.06,1.06,1.06,0,0,1,.4.08,1.08,1.08,0,0,1,.34.21,1,1,0,0,1,.23.32,1.07,1.07,0,0,1,.08.41,1,1,0,0,1-.13.52,2.42,2.42,0,0,1-.29.42l-.7.81h1.15v.56H17.6v-.37l1.15-1.31a1.49,1.49,0,0,0,.26-.37.6.6,0,0,0,.07-.27.47.47,0,0,0,0-.17L19,42.28a.71.71,0,0,0-.14-.1.47.47,0,0,0-.17,0,.41.41,0,0,0-.28.11.63.63,0,0,0-.16.26Z"/><path class="cls-4" d="M22.67,43.27a2.62,2.62,0,0,1-.08.71,1.53,1.53,0,0,1-.25.53,1.14,1.14,0,0,1-.39.34,1.24,1.24,0,0,1-1,0,1,1,0,0,1-.39-.34,1.53,1.53,0,0,1-.25-.53,2.85,2.85,0,0,1,0-1.42,1.53,1.53,0,0,1,.25-.53.89.89,0,0,1,.39-.33,1.14,1.14,0,0,1,1,0,1,1,0,0,1,.39.33,1.53,1.53,0,0,1,.25.53A2.62,2.62,0,0,1,22.67,43.27Zm-.63,0a2.19,2.19,0,0,0,0-.46,1.52,1.52,0,0,0-.12-.36.62.62,0,0,0-.19-.23.43.43,0,0,0-.5,0,.62.62,0,0,0-.19.23,1.17,1.17,0,0,0-.12.36,2.66,2.66,0,0,0,0,.92,1.17,1.17,0,0,0,.12.36.62.62,0,0,0,.19.23.43.43,0,0,0,.5,0,.62.62,0,0,0,.19-.23,1.52,1.52,0,0,0,.12-.36A2.19,2.19,0,0,0,22,43.27Z"/><path class="cls-4" d="M23.17,42.45a1,1,0,0,1,.06-.34.92.92,0,0,1,.19-.28,1,1,0,0,1,.28-.18.86.86,0,0,1,.36-.07.84.84,0,0,1,.35.07.9.9,0,0,1,.28.18.77.77,0,0,1,.19.28.86.86,0,0,1,0,.68.74.74,0,0,1-.19.27.92.92,0,0,1-.28.19.94.94,0,0,1-.71,0,1.07,1.07,0,0,1-.28-.19.88.88,0,0,1-.19-.27A1,1,0,0,1,23.17,42.45Zm1.22,0a.37.37,0,0,0-.09-.25.34.34,0,0,0-.48,0,.39.39,0,0,0,0,.5.34.34,0,0,0,.48,0A.37.37,0,0,0,24.39,42.45ZM24,44.91l1.92-3.28h.52L24.5,44.91Zm1.46-.82a1,1,0,0,1,.07-.34,1,1,0,0,1,.19-.27.92.92,0,0,1,.28-.19.94.94,0,0,1,.71,0,.92.92,0,0,1,.28.19,1,1,0,0,1,.19.27.86.86,0,0,1,0,.68.92.92,0,0,1-.19.28.75.75,0,0,1-.28.18.84.84,0,0,1-.35.07.86.86,0,0,1-.36-.07.75.75,0,0,1-.28-.18.92.92,0,0,1-.19-.28A1,1,0,0,1,25.44,44.09Zm1.22,0a.38.38,0,0,0-.09-.25.26.26,0,0,0-.23-.1.3.3,0,0,0-.24.1.38.38,0,0,0-.09.25.37.37,0,0,0,.09.25.3.3,0,0,0,.24.1.26.26,0,0,0,.23-.1A.37.37,0,0,0,26.66,44.09Z"/><path class="cls-4" d="M28.38,43.74a3.24,3.24,0,0,0-.15-1,3.1,3.1,0,0,0-.41-.86l.45-.32a3.66,3.66,0,0,1,.5,1,4,4,0,0,1,0,2.3,3.66,3.66,0,0,1-.5,1l-.45-.32a3.1,3.1,0,0,0,.41-.86A3.19,3.19,0,0,0,28.38,43.74Z"/><path class="cls-2" d="M28.11,108.22a1.74,1.74,0,0,1-.12-.66c0-.2.1-.77.12-.94a3.76,3.76,0,0,0,0-.51h0a3.93,3.93,0,0,0,0-.68c0-.16-.07-.33-.09-.41a.34.34,0,0,1,0-.13h0a.38.38,0,0,0,0-.18s-.17-.51-.23-.66a3.15,3.15,0,0,1-.17-.62c0-.17-.06-.54-.07-.6l.08-.06s0-.05,0-.1a.75.75,0,0,1-.06-.13h-.8a.75.75,0,0,1-.06.13s0,.08,0,.1l.08.06c0,.06-.05.43-.07.6a3.15,3.15,0,0,1-.17.62c-.06.15-.22.61-.23.66a.38.38,0,0,0,0,.18h0a.34.34,0,0,1,0,.13c0,.08-.06.25-.09.41a3.93,3.93,0,0,0,0,.68h0a3.76,3.76,0,0,0,0,.51c0,.17.09.74.12.94a1.74,1.74,0,0,1-.12.66.92.92,0,0,0,0,.49.73.73,0,0,0,.2.26.9.9,0,0,0,.35.08c.05,0,.37,0,.37,0h.12s.32,0,.37,0a.68.68,0,0,0,.35-.08.82.82,0,0,0,.2-.26A.92.92,0,0,0,28.11,108.22Z"/><path class="cls-2" d="M26.76,102.5h.78s.1,0,.1,0,0-.2-.09-.22a.86.86,0,0,0-.34,0h-.12a.86.86,0,0,0-.34,0c-.09,0-.09.22-.09.22s.1,0,.1,0Z"/><path class="cls-8" d="M24.83,112.41a.77.77,0,1,1,0-1.49.77.77,0,1,1,0,1.49Zm0-1.26c-.4,0-.72.23-.72.52s.32.51.72.51.73-.23.73-.51S25.24,111.15,24.83,111.15Z"/><path class="cls-8" d="M23.36,113a.28.28,0,1,1,.34-.27A.31.31,0,0,1,23.36,113Zm0-.42c-.12,0-.22.07-.22.15s.1.15.22.15.22-.07.22-.15S23.48,112.57,23.36,112.57Z"/><path class="cls-8" d="M30.94,113a.28.28,0,1,1,.34-.27A.31.31,0,0,1,30.94,113Zm0-.42c-.12,0-.22.07-.22.15s.1.15.22.15.22-.07.22-.15S31.06,112.57,30.94,112.57Z"/><path class="cls-8" d="M29.47,112.41a.77.77,0,1,1,1-.74A.87.87,0,0,1,29.47,112.41Zm0-1.26c-.41,0-.73.23-.73.52s.32.51.73.51.72-.23.72-.51S29.87,111.15,29.47,111.15Z"/><ellipse class="cls-8" cx="21.42" cy="113.98" rx="1.05" ry="1.26"/><path class="cls-8" d="M22.74,115.67a8.56,8.56,0,0,1-1.34.32,8.12,8.12,0,0,1-1.3-.32c-.43,0-1.31,0-1.31,1a.88.88,0,0,0,.88.94h3.51a.88.88,0,0,0,.87-.94C24.05,115.67,23.18,115.67,22.74,115.67Z"/><ellipse class="cls-8" cx="27.21" cy="113.98" rx="1.05" ry="1.26"/><path class="cls-8" d="M28.53,115.67a8.67,8.67,0,0,1-1.33.32,7.59,7.59,0,0,1-1.3-.32c-.44,0-1.32,0-1.32,1a.88.88,0,0,0,.88.94H29a.88.88,0,0,0,.87-.94C29.84,115.67,29,115.67,28.53,115.67Z"/><ellipse class="cls-8" cx="32.88" cy="113.98" rx="1.05" ry="1.26"/><path class="cls-8" d="M34.2,115.67a8.56,8.56,0,0,1-1.34.32,8.12,8.12,0,0,1-1.3-.32c-.44,0-1.31,0-1.31,1a.88.88,0,0,0,.87.94h3.51a.88.88,0,0,0,.88-.94C35.51,115.67,34.63,115.67,34.2,115.67Z"/><path class="cls-9" d="M24.13,109.51a4.25,4.25,0,0,0,2.73,1.14,2.7,2.7,0,0,0,2.28-1.14s3.64.46,5-2.05a1.82,1.82,0,0,0-.68-2.73s1.14-2.5-1.82-3a4,4,0,0,0-2.5.23,3.46,3.46,0,0,0-4.1-1.36c-2.73.91-2.5,2.5-2.5,2.5A2.34,2.34,0,0,0,19.81,105a.92.92,0,0,0,.68,1.14,2.17,2.17,0,0,0,1.37,3A5.56,5.56,0,0,0,24.13,109.51Z"/><path class="cls-4" d="M20.18,83.24V84h1v.56h-1v.85h1.38V86h-2V82.67h2v.57Z"/><path class="cls-4" d="M24.21,86h-.58v-.18a.92.92,0,0,1-.3.17A1,1,0,0,1,23,86a1.13,1.13,0,0,1-.48-.11,1.1,1.1,0,0,1-.59-.64,1.27,1.27,0,0,1-.08-.44,1.23,1.23,0,0,1,.09-.47,1.18,1.18,0,0,1,.24-.37,1.07,1.07,0,0,1,.35-.25,1.09,1.09,0,0,1,.44-.1,1.17,1.17,0,0,1,.67.24v-.19h.58Zm-.61-1.48a.68.68,0,0,0-.24-.2A.57.57,0,0,0,23,84.2a.6.6,0,0,0-.24,0,.45.45,0,0,0-.19.14.49.49,0,0,0-.11.2.59.59,0,0,0-.05.23.66.66,0,0,0,.05.25.53.53,0,0,0,.13.2.7.7,0,0,0,.19.13.59.59,0,0,0,.23,0,.57.57,0,0,0,.32-.08.64.64,0,0,0,.23-.2Z"/><path class="cls-4" d="M25,85.26a.73.73,0,0,0,.28.17,1,1,0,0,0,.34.06.46.46,0,0,0,.21,0,.16.16,0,0,0,.08-.14.14.14,0,0,0-.08-.14.75.75,0,0,0-.2-.1L25.35,85l-.26-.13a.8.8,0,0,1-.21-.2.51.51,0,0,1-.08-.3.69.69,0,0,1,.07-.29.87.87,0,0,1,.2-.23,1,1,0,0,1,.28-.14,1.13,1.13,0,0,1,.32-.05l.23,0a1.29,1.29,0,0,1,.21.06l.19.07a.56.56,0,0,1,.14.09l-.28.44a.78.78,0,0,0-.2-.11.69.69,0,0,0-.24,0,.51.51,0,0,0-.22,0,.14.14,0,0,0-.09.13.14.14,0,0,0,.08.12l.21.09.26.09a1.15,1.15,0,0,1,.27.14.58.58,0,0,1,.2.21.53.53,0,0,1,.08.32.54.54,0,0,1-.07.29.87.87,0,0,1-.2.23A1.12,1.12,0,0,1,26,86a1.27,1.27,0,0,1-.34.05,1.61,1.61,0,0,1-.48-.08,1.54,1.54,0,0,1-.44-.23Z"/><path class="cls-4" d="M29,85.6a1.08,1.08,0,0,1-.42.3,1.35,1.35,0,0,1-.52.11,1.25,1.25,0,0,1-.85-.33,1.21,1.21,0,0,1-.25-.37,1.3,1.3,0,0,1-.09-.49,1.33,1.33,0,0,1,.08-.45,1.11,1.11,0,0,1,.22-.38,1.08,1.08,0,0,1,.81-.36,1,1,0,0,1,.43.1,1.2,1.2,0,0,1,.34.25,1,1,0,0,1,.22.37,1.12,1.12,0,0,1,.08.45.91.91,0,0,1,0,.17H27.48a.52.52,0,0,0,.07.22.45.45,0,0,0,.13.17.52.52,0,0,0,.19.11.56.56,0,0,0,.23,0,.74.74,0,0,0,.34-.08.92.92,0,0,0,.23-.18Zm-.57-1.07a.44.44,0,0,0-.05-.15.38.38,0,0,0-.09-.13.42.42,0,0,0-.14-.09.47.47,0,0,0-.17,0,.48.48,0,0,0-.33.12.47.47,0,0,0-.16.28Z"/><path class="cls-4" d="M30.67,84.82a1.22,1.22,0,0,1,.09-.46A1.25,1.25,0,0,1,31,84a1.3,1.3,0,0,1,.39-.25,1.2,1.2,0,0,1,1,0,1.3,1.3,0,0,1,.39.25,1.25,1.25,0,0,1,.25.38,1.22,1.22,0,0,1,.09.46,1.23,1.23,0,0,1-.09.47,1.34,1.34,0,0,1-.25.37,1.14,1.14,0,0,1-.39.25,1.2,1.2,0,0,1-1,0,1.14,1.14,0,0,1-.39-.25,1.34,1.34,0,0,1-.25-.37A1.23,1.23,0,0,1,30.67,84.82Zm.61,0a.61.61,0,0,0,0,.24.53.53,0,0,0,.13.2.46.46,0,0,0,.18.13.53.53,0,0,0,.25,0,.47.47,0,0,0,.24,0,.43.43,0,0,0,.19-.13.53.53,0,0,0,.13-.2.61.61,0,0,0,0-.24.67.67,0,0,0,0-.24.6.6,0,0,0-.32-.33.47.47,0,0,0-.24,0,.53.53,0,0,0-.25,0,.59.59,0,0,0-.18.13.53.53,0,0,0-.13.2A.67.67,0,0,0,31.28,84.82Z"/><path class="cls-4" d="M34.94,83.2a.34.34,0,0,0-.12-.06l-.14,0a.21.21,0,0,0-.12,0,.22.22,0,0,0-.09.07.19.19,0,0,0,0,.09.74.74,0,0,0,0,.18v.19H35v.49H34.4V86h-.61V84.17H33.3v-.49h.49v-.19a1.15,1.15,0,0,1,.08-.44.7.7,0,0,1,.21-.29.79.79,0,0,1,.53-.18.86.86,0,0,1,.32,0,.77.77,0,0,1,.25.14Z"/><path class="cls-4" d="M12.11,91.64a1.61,1.61,0,0,1-.54-.09,1.24,1.24,0,0,1-.45-.25,1.1,1.1,0,0,1-.31-.45,1.53,1.53,0,0,1-.11-.64v-1.9h.63v1.94a1,1,0,0,0,.06.37.51.51,0,0,0,.16.24.76.76,0,0,0,.56.21.75.75,0,0,0,.55-.21.51.51,0,0,0,.16-.24,1,1,0,0,0,.06-.37V88.31h.63v1.9a1.72,1.72,0,0,1-.1.64,1.23,1.23,0,0,1-.32.45,1.24,1.24,0,0,1-.45.25A1.6,1.6,0,0,1,12.11,91.64Z"/><path class="cls-4" d="M14.19,91.59V89.31h.59v.19a1.22,1.22,0,0,1,.29-.17,1,1,0,0,1,.35-.06,1,1,0,0,1,.45.1,1,1,0,0,1,.34.26.92.92,0,0,1,.18.32,1.61,1.61,0,0,1,.06.48v1.16h-.61V90.38a.62.62,0,0,0,0-.26.44.44,0,0,0-.44-.29.58.58,0,0,0-.19,0,.69.69,0,0,0-.15.07l-.13.09-.09.09v1.48Z"/><path class="cls-4" d="M18.7,91.59v-.18a.75.75,0,0,1-.3.17,1,1,0,0,1-.33.06,1.29,1.29,0,0,1-.48-.1,1,1,0,0,1-.38-.29,1.28,1.28,0,0,1-.22-.36,1.21,1.21,0,0,1-.07-.43A1.4,1.4,0,0,1,17,90a1.23,1.23,0,0,1,.24-.38,1,1,0,0,1,.36-.25,1.1,1.1,0,0,1,1.08.12V88.26h.61v3.33Zm0-1.48a.91.91,0,0,0-.24-.2.73.73,0,0,0-.33-.08.6.6,0,0,0-.24,0,.62.62,0,0,0-.18.14.82.82,0,0,0-.12.2.64.64,0,0,0,0,.24.61.61,0,0,0,0,.24.53.53,0,0,0,.13.2.64.64,0,0,0,.19.13.61.61,0,0,0,.24,0,.64.64,0,0,0,.31-.07.61.61,0,0,0,.24-.21Z"/><path class="cls-4" d="M21.93,91.23a1.08,1.08,0,0,1-.42.3,1.3,1.3,0,0,1-.51.11,1.28,1.28,0,0,1-.48-.09.91.91,0,0,1-.37-.24,1,1,0,0,1-.25-.37,1.09,1.09,0,0,1-.1-.48,1.44,1.44,0,0,1,.08-.46,1.3,1.3,0,0,1,.22-.38,1.52,1.52,0,0,1,.35-.26,1.14,1.14,0,0,1,.46-.09,1,1,0,0,1,.43.09,1.07,1.07,0,0,1,.34.25,1.28,1.28,0,0,1,.23.37,1.33,1.33,0,0,1,.08.45.9.9,0,0,1,0,.18H20.4a.55.55,0,0,0,.06.22.7.7,0,0,0,.13.16.76.76,0,0,0,.19.12.85.85,0,0,0,.23,0,.68.68,0,0,0,.35-.09,1.06,1.06,0,0,0,.22-.18Zm-.57-1.07a.42.42,0,0,0,0-.15.64.64,0,0,0-.1-.13l-.13-.09a.57.57,0,0,0-.18,0,.48.48,0,0,0-.33.12.5.5,0,0,0-.16.28Z"/><path class="cls-4" d="M23.93,89.85h-.21a.78.78,0,0,0-.33.07.67.67,0,0,0-.28.25v1.43H22.5V89.31h.59v.23a.73.73,0,0,1,.28-.19.92.92,0,0,1,.38-.07l.18,0Z"/><path class="cls-4" d="M24.47,90.9a.9.9,0,0,0,.29.16,1,1,0,0,0,.34.06.46.46,0,0,0,.21-.05.16.16,0,0,0,0-.28l-.21-.1-.26-.09a1.13,1.13,0,0,1-.27-.13.61.61,0,0,1-.2-.19.48.48,0,0,1-.08-.3.6.6,0,0,1,.07-.3.67.67,0,0,1,.19-.22,1,1,0,0,1,.28-.14,1,1,0,0,1,.33,0,.9.9,0,0,1,.23,0l.21,0,.19.07.14.09-.29.44a1,1,0,0,0-.2-.11.59.59,0,0,0-.23,0,.48.48,0,0,0-.22,0,.15.15,0,0,0-.09.14.12.12,0,0,0,.08.12.76.76,0,0,0,.2.08l.27.09a1.3,1.3,0,0,1,.26.14.84.84,0,0,1,.21.21.64.64,0,0,1,0,.62.79.79,0,0,1-.19.22,1,1,0,0,1-.29.14,1.34,1.34,0,0,1-.35,0,1.55,1.55,0,0,1-.47-.08,1.42,1.42,0,0,1-.44-.23Z"/><path class="cls-4" d="M27.29,90.8a.35.35,0,0,0,.06.24.28.28,0,0,0,.21.07.34.34,0,0,0,.15,0l.13,0,.2.43a1.15,1.15,0,0,1-.25.12,1.07,1.07,0,0,1-.32,0,1.13,1.13,0,0,1-.32,0,.63.63,0,0,1-.42-.43,1.13,1.13,0,0,1-.05-.35v-1h-.49v-.5h.49v-.72h.61v.72h.63v.5h-.63Z"/><path class="cls-4" d="M30.69,91.59h-.58v-.18a.92.92,0,0,1-.3.17,1,1,0,0,1-.34.06,1.29,1.29,0,0,1-.48-.1,1.1,1.1,0,0,1-.38-.29,1.07,1.07,0,0,1-.21-.36,1.22,1.22,0,0,1-.08-.43,1.19,1.19,0,0,1,.09-.47,1.23,1.23,0,0,1,.24-.38,1.06,1.06,0,0,1,.79-.34,1,1,0,0,1,.36.06,1,1,0,0,1,.31.17v-.19h.58Zm-.61-1.48a.68.68,0,0,0-.24-.2.66.66,0,0,0-.32-.08.6.6,0,0,0-.24,0,.55.55,0,0,0-.19.14.56.56,0,0,0-.11.2.64.64,0,0,0-.05.24.6.6,0,0,0,.05.24.6.6,0,0,0,.32.33.59.59,0,0,0,.23,0,.66.66,0,0,0,.32-.07.58.58,0,0,0,.23-.21Z"/><path class="cls-4" d="M31.4,91.59V89.31H32v.19a.92.92,0,0,1,.29-.17,1,1,0,0,1,.35-.06.92.92,0,0,1,.44.1,1,1,0,0,1,.35.26,1.09,1.09,0,0,1,.17.32,1.61,1.61,0,0,1,.06.48v1.16H33V90.38a.88.88,0,0,0,0-.26A.46.46,0,0,0,32.9,90a.42.42,0,0,0-.34-.13.52.52,0,0,0-.18,0l-.16.07L32.1,90a.38.38,0,0,0-.09.09v1.48Z"/><path class="cls-4" d="M35.9,91.59v-.18a.75.75,0,0,1-.3.17.88.88,0,0,1-.33.06,1.29,1.29,0,0,1-.48-.1,1.1,1.1,0,0,1-.38-.29,1.07,1.07,0,0,1-.21-.36,1.22,1.22,0,0,1-.08-.43,1.19,1.19,0,0,1,.09-.47,1.23,1.23,0,0,1,.24-.38,1.06,1.06,0,0,1,.79-.34,1,1,0,0,1,.64.21V88.26h.61v3.33Zm0-1.48a.68.68,0,0,0-.24-.2.67.67,0,0,0-.57,0,.62.62,0,0,0-.18.14.82.82,0,0,0-.12.2.93.93,0,0,0,0,.24.6.6,0,0,0,.05.24.67.67,0,0,0,.12.2.8.8,0,0,0,.19.13.67.67,0,0,0,.24,0,.68.68,0,0,0,.32-.07.66.66,0,0,0,.23-.21Z"/><path class="cls-4" d="M37.2,88.26h.61v.61H37.2Zm.61,3.33H37.2V89.31h.61Z"/><path class="cls-4" d="M38.51,91.59V89.31h.59v.19a.92.92,0,0,1,.29-.17,1,1,0,0,1,.35-.06.92.92,0,0,1,.44.1,1,1,0,0,1,.35.26,1.09,1.09,0,0,1,.17.32,1.61,1.61,0,0,1,.06.48v1.16h-.61V90.38a.88.88,0,0,0,0-.26A.62.62,0,0,0,40,90a.46.46,0,0,0-.35-.13.57.57,0,0,0-.18,0l-.16.07-.12.09a.38.38,0,0,0-.09.09v1.48Z"/><path class="cls-4" d="M43.6,91.46a1.82,1.82,0,0,1-.05.51,1,1,0,0,1-.15.34,1,1,0,0,1-.42.33,1.27,1.27,0,0,1-.59.12,1.69,1.69,0,0,1-.33,0,1.32,1.32,0,0,1-.3-.1,1.1,1.1,0,0,1-.26-.15l-.21-.18.39-.4.11.1a.58.58,0,0,0,.15.11.93.93,0,0,0,.2.08.87.87,0,0,0,.25,0,.67.67,0,0,0,.26,0,.48.48,0,0,0,.2-.14.55.55,0,0,0,.11-.2,1.37,1.37,0,0,0,0-.33v-.08a1,1,0,0,1-.61.21,1.29,1.29,0,0,1-.48-.1,1.1,1.1,0,0,1-.38-.29,1.07,1.07,0,0,1-.21-.36,1.22,1.22,0,0,1-.08-.43,1.19,1.19,0,0,1,.09-.47,1.23,1.23,0,0,1,.24-.38,1.06,1.06,0,0,1,.79-.34,1,1,0,0,1,.36.06,1.17,1.17,0,0,1,.31.17v-.19h.58ZM43,90.11a.68.68,0,0,0-.24-.2.66.66,0,0,0-.32-.08.6.6,0,0,0-.24,0A.55.55,0,0,0,42,90a.82.82,0,0,0-.12.2.93.93,0,0,0,0,.24.6.6,0,0,0,0,.24.67.67,0,0,0,.12.2.69.69,0,0,0,.2.13.59.59,0,0,0,.23,0,.68.68,0,0,0,.32-.07.58.58,0,0,0,.23-.21Z"/><path class="cls-4" d="M22.64,96.05a3.19,3.19,0,0,0,.15,1,3.1,3.1,0,0,0,.41.86l-.45.32a3.66,3.66,0,0,1-.5-1,4,4,0,0,1,0-2.3,3.66,3.66,0,0,1,.5-1l.45.32a3.1,3.1,0,0,0-.41.86A3.24,3.24,0,0,0,22.64,96.05Z"/><path class="cls-4" d="M24.18,96.44a.92.92,0,0,0,.25.19.68.68,0,0,0,.31.08.57.57,0,0,0,.4-.15.8.8,0,0,0,.13-.19.6.6,0,0,0,.05-.24.53.53,0,0,0-.2-.44.81.81,0,0,0-.18-.1.78.78,0,0,0-.22,0,.73.73,0,0,0-.25,0,.79.79,0,0,0-.23.14l-.4-.06.21-1.74h1.74v.56H24.57l-.05.52a.9.9,0,0,1,.25,0,1.32,1.32,0,0,1,.39.06,1,1,0,0,1,.38.19,1.14,1.14,0,0,1,.3.39,1.1,1.1,0,0,1,.11.5,1.14,1.14,0,0,1-.09.46,1.28,1.28,0,0,1-.26.35,1,1,0,0,1-.39.24,1.23,1.23,0,0,1-.47.09,1.35,1.35,0,0,1-1-.42Z"/><path class="cls-4" d="M26.45,94.76a1,1,0,0,1,.06-.34,1.07,1.07,0,0,1,.19-.28A1,1,0,0,1,27,94a.86.86,0,0,1,.36-.07.84.84,0,0,1,.35.07.9.9,0,0,1,.28.18.87.87,0,0,1,.19.28.86.86,0,0,1,0,.68.74.74,0,0,1-.19.27.92.92,0,0,1-.28.19.84.84,0,0,1-.35.07.86.86,0,0,1-.36-.07,1.07,1.07,0,0,1-.28-.19.88.88,0,0,1-.19-.27A1,1,0,0,1,26.45,94.76Zm1.22,0a.37.37,0,0,0-.09-.25.34.34,0,0,0-.48,0,.39.39,0,0,0,0,.5.34.34,0,0,0,.48,0A.37.37,0,0,0,27.67,94.76Zm-.41,2.46,1.92-3.28h.52l-1.92,3.28Zm1.46-.82a1,1,0,0,1,.07-.34,1,1,0,0,1,.19-.27.92.92,0,0,1,.28-.19.94.94,0,0,1,.71,0,.92.92,0,0,1,.28.19,1,1,0,0,1,.19.27.86.86,0,0,1,0,.68.92.92,0,0,1-.19.28.75.75,0,0,1-.28.18.86.86,0,0,1-.36.07.84.84,0,0,1-.35-.07A.75.75,0,0,1,29,97a.92.92,0,0,1-.19-.28A1,1,0,0,1,28.72,96.4Zm1.22,0a.38.38,0,0,0-.09-.25.3.3,0,0,0-.24-.1.26.26,0,0,0-.23.1.38.38,0,0,0-.09.25.37.37,0,0,0,.09.25.26.26,0,0,0,.23.1.3.3,0,0,0,.24-.1A.37.37,0,0,0,29.94,96.4Z"/><path class="cls-4" d="M31.66,96.05a3.24,3.24,0,0,0-.15-1,3.1,3.1,0,0,0-.41-.86l.45-.32a3.66,3.66,0,0,1,.5,1,4,4,0,0,1,0,2.3,3.66,3.66,0,0,1-.5,1l-.45-.32a3.1,3.1,0,0,0,.41-.86A3.19,3.19,0,0,0,31.66,96.05Z"/><path class="cls-10" d="M70.06,125.85a2.78,2.78,0,0,1-.22-1.17c0-.38.17-1.4.2-1.71a4,4,0,0,0,0-.91h0a7.46,7.46,0,0,0,0-1.23c0-.28-.12-.6-.16-.73a1.61,1.61,0,0,1,0-.25h0a.68.68,0,0,0,0-.31c0-.1-.31-.92-.41-1.2a6.12,6.12,0,0,1-.32-1.11c0-.32-.11-1-.11-1.08l.13-.11s0-.1,0-.17a1.36,1.36,0,0,1-.11-.25H67.6a1.36,1.36,0,0,1-.11.25c0,.07,0,.13,0,.17l.13.11c0,.1-.08.76-.11,1.08a5.41,5.41,0,0,1-.32,1.11c-.1.28-.38,1.1-.41,1.2a.55.55,0,0,0,0,.31h0a.91.91,0,0,1,0,.25c0,.13-.11.45-.16.73a8.75,8.75,0,0,0,0,1.23h0a4.67,4.67,0,0,0,0,.91c0,.31.16,1.33.21,1.71a3.14,3.14,0,0,1-.22,1.17,1.58,1.58,0,0,0,0,.89,1.34,1.34,0,0,0,.36.46,1.41,1.41,0,0,0,.62.15c.1,0,.68,0,.68,0h.2s.58,0,.68,0a1.06,1.06,0,0,0,.62-.15,1.21,1.21,0,0,0,.36-.46A1.65,1.65,0,0,0,70.06,125.85Z"/><path class="cls-10" d="M67.62,115.56H69a.87.87,0,0,1,.17-.07s0-.36-.16-.41a1.73,1.73,0,0,0-.62-.08h-.2a1.73,1.73,0,0,0-.62.08c-.16,0-.16.41-.16.41a1.34,1.34,0,0,1,.18.07Z"/><path class="cls-10" d="M64.55,132.75h2.1a3.06,3.06,0,0,0-.84-4.62c-2.94-2.09-3.36-2.93-3.36-2.93a.92.92,0,0,0-1.26-.42c-.84.42.21,2.31,1.89,3.15,0,0-2.52-.42-2.94-2.1s0-2.52-.84-2.94-.42,2.1-.42,2.1a5,5,0,0,0,2.52,3.77C63.92,130.44,65.18,131.7,64.55,132.75Z"/><path class="cls-10" d="M72.09,132.75H70a3.05,3.05,0,0,1,.83-4.62c2.94-2.09,3.36-2.93,3.36-2.93a.92.92,0,0,1,1.26-.42c.84.42-.21,2.31-1.89,3.15,0,0,2.52-.42,2.94-2.1s0-2.52.84-2.94.42,2.1.42,2.1a5,5,0,0,1-2.52,3.77C72.72,130.44,71.46,131.7,72.09,132.75Z"/><path class="cls-11" d="M57.24,106.51h-.63v-3.29h1.24a1.34,1.34,0,0,1,.48.08,1.12,1.12,0,0,1,.33.22,1,1,0,0,1,.21.32.85.85,0,0,1,.08.39.9.9,0,0,1-.08.4,1,1,0,0,1-.21.32.93.93,0,0,1-.33.21,1.15,1.15,0,0,1-.48.08h-.61Zm.54-1.83a.69.69,0,0,0,.28,0,.43.43,0,0,0,.17-.12.46.46,0,0,0,.09-.29.45.45,0,0,0-.09-.28.43.43,0,0,0-.17-.12.69.69,0,0,0-.28,0h-.54v.89Z"/><path class="cls-11" d="M61.24,106.15a1,1,0,0,1-.41.3,1.35,1.35,0,0,1-.52.11,1.19,1.19,0,0,1-.47-.09,1,1,0,0,1-.38-.24,1,1,0,0,1-.25-.37,1.3,1.3,0,0,1-.09-.49,1.29,1.29,0,0,1,.3-.83,1.14,1.14,0,0,1,.35-.26,1.11,1.11,0,0,1,.46-.09,1,1,0,0,1,.43.09,1.2,1.2,0,0,1,.34.25,1.25,1.25,0,0,1,.22.37,1.33,1.33,0,0,1,.08.45.86.86,0,0,1,0,.17H59.71a.56.56,0,0,0,.07.23.4.4,0,0,0,.13.16.45.45,0,0,0,.19.11.54.54,0,0,0,.22,0,.75.75,0,0,0,.35-.08,1.15,1.15,0,0,0,.23-.18Zm-.56-1.07a.44.44,0,0,0,0-.15.38.38,0,0,0-.09-.13.42.42,0,0,0-.14-.09.47.47,0,0,0-.17,0,.48.48,0,0,0-.33.12.43.43,0,0,0-.16.28Z"/><path class="cls-11" d="M63.25,104.77H63a.81.81,0,0,0-.34.08.65.65,0,0,0-.27.25v1.43h-.61v-2.28h.58v.23a.63.63,0,0,1,.28-.19,1,1,0,0,1,.39-.07l.18,0Z"/><path class="cls-11" d="M63.79,105.82a.85.85,0,0,0,.28.16,1,1,0,0,0,.34.06.46.46,0,0,0,.21-.05.16.16,0,0,0,.08-.14.15.15,0,0,0-.08-.14.75.75,0,0,0-.2-.1l-.27-.09a2.1,2.1,0,0,1-.26-.13,1,1,0,0,1-.21-.19.56.56,0,0,1-.08-.3.73.73,0,0,1,.07-.3.7.7,0,0,1,.2-.22.82.82,0,0,1,.28-.14.86.86,0,0,1,.32,0,.9.9,0,0,1,.23,0,.72.72,0,0,1,.21.05l.19.07a.56.56,0,0,1,.14.09l-.28.44a.78.78,0,0,0-.2-.11.69.69,0,0,0-.24,0,.51.51,0,0,0-.22,0,.15.15,0,0,0-.09.14.14.14,0,0,0,.08.12l.21.08.26.09a1.15,1.15,0,0,1,.27.14.58.58,0,0,1,.2.21.53.53,0,0,1,.08.32.6.6,0,0,1-.07.3.83.83,0,0,1-.2.22.87.87,0,0,1-.29.14,1.27,1.27,0,0,1-.34,0,1.61,1.61,0,0,1-.48-.08,1.54,1.54,0,0,1-.44-.23Z"/><path class="cls-11" d="M68,104.23v2.28h-.59v-.18a.79.79,0,0,1-.29.17,1,1,0,0,1-.33.06,1,1,0,0,1-.43-.1,1,1,0,0,1-.34-.27,1.09,1.09,0,0,1-.17-.32,1.35,1.35,0,0,1-.06-.43v-1.21h.61v1.23a.7.7,0,0,0,0,.24.53.53,0,0,0,.08.15.32.32,0,0,0,.17.11.57.57,0,0,0,.18,0l.18,0,.15-.07a.52.52,0,0,0,.11-.1l.09-.09v-1.48Z"/><path class="cls-11" d="M70.92,106.51h-.58v-.18a.92.92,0,0,1-.3.17,1,1,0,0,1-.34.06,1.13,1.13,0,0,1-.48-.11,1.1,1.1,0,0,1-.59-.64,1.26,1.26,0,0,1,0-.91,1.31,1.31,0,0,1,.24-.37,1.06,1.06,0,0,1,.79-.34,1,1,0,0,1,.36.06.94.94,0,0,1,.31.17v-.19h.58ZM70.31,105a.68.68,0,0,0-.24-.2.66.66,0,0,0-.32-.08.6.6,0,0,0-.24,0,.55.55,0,0,0-.19.14.49.49,0,0,0-.11.2.59.59,0,0,0,0,.23.62.62,0,0,0,0,.25.67.67,0,0,0,.12.2.69.69,0,0,0,.2.13.59.59,0,0,0,.23,0,.66.66,0,0,0,.32-.07.67.67,0,0,0,.23-.21Z"/><path class="cls-11" d="M71.7,105.82A.85.85,0,0,0,72,106a1,1,0,0,0,.34.06.46.46,0,0,0,.21-.05.19.19,0,0,0,.08-.14.15.15,0,0,0-.08-.14.75.75,0,0,0-.2-.1l-.27-.09a2.1,2.1,0,0,1-.26-.13.77.77,0,0,1-.21-.19.56.56,0,0,1-.08-.3.6.6,0,0,1,.07-.3.7.7,0,0,1,.2-.22.82.82,0,0,1,.28-.14.86.86,0,0,1,.32,0,.9.9,0,0,1,.23,0,.8.8,0,0,1,.21.05l.19.07a.56.56,0,0,1,.14.09l-.28.44a.78.78,0,0,0-.2-.11.69.69,0,0,0-.24,0,.51.51,0,0,0-.22,0,.15.15,0,0,0-.09.14.14.14,0,0,0,.08.12l.21.08.26.09a1.15,1.15,0,0,1,.27.14.58.58,0,0,1,.2.21.53.53,0,0,1,.08.32.6.6,0,0,1-.07.3.83.83,0,0,1-.2.22.87.87,0,0,1-.29.14,1.27,1.27,0,0,1-.34,0,1.61,1.61,0,0,1-.48-.08,1.54,1.54,0,0,1-.44-.23Z"/><path class="cls-11" d="M73.79,103.18h.61v.61h-.61Zm.61,3.33h-.61v-2.28h.61Z"/><path class="cls-11" d="M74.91,105.37a1.06,1.06,0,0,1,.1-.46,1.19,1.19,0,0,1,.25-.38,1.25,1.25,0,0,1,.38-.25,1.28,1.28,0,0,1,.48-.09,1.3,1.3,0,0,1,.49.09,1.39,1.39,0,0,1,.38.25,1.19,1.19,0,0,1,.25.38,1.13,1.13,0,0,1,0,.93,1.15,1.15,0,0,1-.25.37,1.42,1.42,0,0,1-.38.26,1.3,1.3,0,0,1-.49.09,1.15,1.15,0,0,1-.86-.35,1.15,1.15,0,0,1-.25-.37A1.07,1.07,0,0,1,74.91,105.37Zm.61,0a.6.6,0,0,0,0,.24.67.67,0,0,0,.12.2.43.43,0,0,0,.19.13.47.47,0,0,0,.24,0,.53.53,0,0,0,.25,0,.5.5,0,0,0,.19-.13.67.67,0,0,0,.12-.2.6.6,0,0,0,0-.24.69.69,0,0,0,0-.24.82.82,0,0,0-.12-.2.64.64,0,0,0-.19-.13.7.7,0,0,0-.25,0,.6.6,0,0,0-.24,0,.53.53,0,0,0-.19.13.82.82,0,0,0-.12.2A.69.69,0,0,0,75.52,105.37Z"/><path class="cls-11" d="M77.85,106.51v-2.28h.59v.19a.85.85,0,0,1,.29-.17,1,1,0,0,1,.35-.06,1,1,0,0,1,.79.36.9.9,0,0,1,.17.32,1.52,1.52,0,0,1,.07.48v1.16H79.5V105.3a.83.83,0,0,0,0-.26.37.37,0,0,0-.1-.16.45.45,0,0,0-.34-.13.58.58,0,0,0-.19,0l-.16.07-.12.09-.09.09v1.48Z"/><path class="cls-11" d="M63.94,111a3.24,3.24,0,0,0,.15,1,3.1,3.1,0,0,0,.41.86l-.45.32a3.66,3.66,0,0,1-.5-1,4,4,0,0,1,0-2.3,3.66,3.66,0,0,1,.5-1l.45.32a3.1,3.1,0,0,0-.41.86A3.19,3.19,0,0,0,63.94,111Z"/><path class="cls-11" d="M65.23,108.86h.45L67.51,111v-2.14h.63v3.28H67.7L65.87,110v2.14h-.64Z"/><path class="cls-11" d="M68.52,112.14l1.41-3.28h.44l1.41,3.28h-.66l-.31-.72H69.49l-.31.72Zm1.21-1.29h.84l-.42-1Z"/><path class="cls-11" d="M72.7,111a3.19,3.19,0,0,0-.15-1,2.85,2.85,0,0,0-.41-.86l.45-.32a3.4,3.4,0,0,1,.5,1,4,4,0,0,1,0,2.3,3.4,3.4,0,0,1-.5,1l-.45-.32a2.85,2.85,0,0,0,.41-.86A3.24,3.24,0,0,0,72.7,111Z"/><path class="cls-2" d="M104.43,111.76a10.27,10.27,0,0,0,6,0l.18.78a19.7,19.7,0,0,1-6.41,0l-.23-1Z"/><path class="cls-8" d="M105.54,119a3.4,3.4,0,0,1-.42-1.31v-2a5,5,0,0,0-.08-1h0a9.46,9.46,0,0,0-.21-1.41c-.1-.31-.23-.66-.28-.81a.71.71,0,0,1-.07-.27h0a.68.68,0,0,0-.06-.36c0-.1-.48-1-.64-1.32a6.31,6.31,0,0,1-.52-1.22c-.08-.35-.26-1.1-.28-1.21l.13-.15s0-.12,0-.19a2.4,2.4,0,0,1-.16-.27l-.82.09-.82.11a1,1,0,0,1-.09.3c0,.09,0,.16,0,.2l.16.11c0,.11,0,.88,0,1.25a7.14,7.14,0,0,1-.2,1.31c-.08.34-.29,1.32-.3,1.43a.7.7,0,0,0,0,.36h0a.85.85,0,0,1,0,.28c0,.16-.06.53-.08.86a10.66,10.66,0,0,0,.14,1.41h0a4.93,4.93,0,0,0,.19,1c.08.34.37,1.49.48,1.92a3.4,3.4,0,0,1-.09,1.37,1.83,1.83,0,0,0,.1,1,1.35,1.35,0,0,0,.48.47,1.53,1.53,0,0,0,.72.09c.12,0,.78-.09.78-.09l.24,0,.77-.1a1.27,1.27,0,0,0,.68-.26,1.45,1.45,0,0,0,.35-.57A1.85,1.85,0,0,0,105.54,119Z"/><path class="cls-8" d="M101.29,107.54l.81-.11.8-.09h0a1.74,1.74,0,0,1,.19-.1s0-.41-.24-.44a2,2,0,0,0-.71,0l-.24,0a2.07,2.07,0,0,0-.7.18c-.16.08-.12.49-.12.49a1.6,1.6,0,0,1,.21.05Z"/><path class="cls-8" d="M109.3,119a3.37,3.37,0,0,0,.41-1.31c0-.44,0-1.63,0-2a4.54,4.54,0,0,1,.07-1h0a11,11,0,0,1,.21-1.41c.1-.31.23-.66.29-.81a1,1,0,0,0,.07-.27h0a.8.8,0,0,1,.06-.36c0-.1.48-1,.64-1.32a6.31,6.31,0,0,0,.52-1.22c.08-.35.27-1.1.29-1.21l-.14-.15s0-.12,0-.19a1.48,1.48,0,0,0,.16-.27l.82.09.82.11a2.63,2.63,0,0,0,.09.3c0,.09,0,.16,0,.2l-.17.11c0,.11,0,.88,0,1.25a6.39,6.39,0,0,0,.21,1.31c.08.34.28,1.32.3,1.43a.7.7,0,0,1,0,.36h0a.78.78,0,0,0,0,.28c0,.16.06.53.09.86a9.1,9.1,0,0,1-.15,1.41h0a4.75,4.75,0,0,1-.18,1c-.09.34-.38,1.49-.48,1.92a3.22,3.22,0,0,0,.08,1.37,1.83,1.83,0,0,1-.1,1,1.32,1.32,0,0,1-.47.47,1.57,1.57,0,0,1-.73.09c-.12,0-.78-.09-.78-.09l-.23,0-.78-.1a1.29,1.29,0,0,1-.68-.26,1.57,1.57,0,0,1-.35-.57A1.79,1.79,0,0,1,109.3,119Z"/><path class="cls-8" d="M113.54,107.54l-.8-.11-.81-.09h0a1.14,1.14,0,0,0-.19-.1s.06-.41.24-.44a2,2,0,0,1,.72,0l.23,0a2.07,2.07,0,0,1,.7.18c.17.08.12.49.12.49a1.6,1.6,0,0,0-.21.05Z"/><path class="cls-8" d="M99.49,110.91c-3.3-.14-2.29-2.83-1-2,.14-1.55,2.88-.71,1,2Zm0,0"/><path class="cls-8" d="M115.51,109.53c-2.36-2.3.19-3.63.6-2.14,1.13-1,2.62,1.4-.6,2.14Zm0,0"/><path class="cls-8" d="M104.17,105.84c-1.32-1.29.11-2,.34-1.2.63-.59,1.46.79-.34,1.2Zm0,0"/><path class="cls-8" d="M110.85,105.84c-1.8-.41-1-1.79-.34-1.2.23-.83,1.66-.09.34,1.2Zm0,0"/><path class="cls-2" d="M109.66,119.09a3.78,3.78,0,0,1-.28-1.52c.05-.49.22-1.81.26-2.2a5.57,5.57,0,0,0,.07-1.19h0a11,11,0,0,0,0-1.59c-.07-.36-.17-.77-.21-.94a.79.79,0,0,1,0-.32h0a.79.79,0,0,0,0-.4c0-.13-.4-1.19-.53-1.56a7.8,7.8,0,0,1-.41-1.43c0-.41-.14-1.26-.15-1.4l.17-.14s0-.13,0-.22a2,2,0,0,1-.15-.33h-1.85a3.27,3.27,0,0,1-.14.33c-.07.09-.07.17,0,.22l.17.14c0,.14-.11,1-.15,1.4a7.09,7.09,0,0,1-.41,1.43c-.13.37-.49,1.43-.53,1.56a.79.79,0,0,0,0,.4h0a1.13,1.13,0,0,1,0,.32c0,.17-.14.58-.21.94a10.87,10.87,0,0,0,0,1.59h0a6.33,6.33,0,0,0,.07,1.19c0,.39.21,1.71.27,2.2a3.63,3.63,0,0,1-.29,1.52,2.11,2.11,0,0,0,0,1.15,1.68,1.68,0,0,0,.47.59,1.87,1.87,0,0,0,.8.2c.13,0,.87,0,.87,0h.27s.75,0,.88,0a1.4,1.4,0,0,0,.79-.2,1.54,1.54,0,0,0,.47-.59A2.11,2.11,0,0,0,109.66,119.09Z"/><path class="cls-2" d="M106.51,105.78h1.82a1.43,1.43,0,0,1,.22-.08s0-.47-.2-.53a2.09,2.09,0,0,0-.8-.11h-.27a2.13,2.13,0,0,0-.8.11c-.2.06-.2.53-.2.53a2.09,2.09,0,0,1,.23.08Z"/><path class="cls-2" d="M113.59,110.78a.31.31,0,0,0,.07.42c.24.17,0,.54.34.45s.1-.35,0-.47S113.86,110.55,113.59,110.78Z"/><path class="cls-2" d="M101.35,110.78a.3.3,0,0,1-.07.42c-.24.17,0,.54-.34.45s-.1-.35,0-.47S101.08,110.55,101.35,110.78Z"/><path class="cls-4" d="M96.12,86.54h.63v3.28h-.63Z"/><path class="cls-4" d="M97.48,89.82V87.55h.59v.18a1,1,0,0,1,.29-.18,1.19,1.19,0,0,1,.32,0,1,1,0,0,1,.77.36,1.11,1.11,0,0,1,.34-.25,1,1,0,0,1,.46-.11,1.06,1.06,0,0,1,.46.1.91.91,0,0,1,.34.27,1,1,0,0,1,.17.31,1.42,1.42,0,0,1,.06.44v1.2h-.61V88.59a.78.78,0,0,0,0-.24.64.64,0,0,0-.08-.14.33.33,0,0,0-.16-.11.39.39,0,0,0-.18,0,.41.41,0,0,0-.19,0l-.16.07-.12.1a.57.57,0,0,0-.08.09s0,.08,0,.12a.66.66,0,0,1,0,.14v1.2h-.61V88.59a.78.78,0,0,0,0-.24.42.42,0,0,0-.09-.14.29.29,0,0,0-.16-.11.39.39,0,0,0-.18,0,.57.57,0,0,0-.18,0l-.15.07-.12.09-.08.1v1.47Z"/><path class="cls-4" d="M101.94,87.55h.59v.18a1.11,1.11,0,0,1,.3-.17,1,1,0,0,1,.36-.06,1.08,1.08,0,0,1,.44.09,1.24,1.24,0,0,1,.35.25,1,1,0,0,1,.24.38,1.19,1.19,0,0,1,.09.47,1.27,1.27,0,0,1-.07.44,1.65,1.65,0,0,1-.22.36,1,1,0,0,1-.38.28,1.12,1.12,0,0,1-.48.1,1,1,0,0,1-.61-.2V91h-.61Zm.61,1.48a.74.74,0,0,0,.23.2.64.64,0,0,0,.56,0,.59.59,0,0,0,.19-.13.64.64,0,0,0,.13-.19.69.69,0,0,0,0-.25.67.67,0,0,0,0-.24.82.82,0,0,0-.12-.2.59.59,0,0,0-.18-.13.54.54,0,0,0-.25-.06.69.69,0,0,0-.32.08.61.61,0,0,0-.24.21Z"/><path class="cls-4" d="M107.06,89.82h-.59v-.18a.92.92,0,0,1-.3.18,1.26,1.26,0,0,1-.33.05,1.19,1.19,0,0,1-.49-.1,1,1,0,0,1-.37-.28,1.65,1.65,0,0,1-.22-.36,1.27,1.27,0,0,1-.07-.44,1.19,1.19,0,0,1,.08-.47,1.36,1.36,0,0,1,.24-.38,1.16,1.16,0,0,1,.36-.25,1,1,0,0,1,.43-.09,1,1,0,0,1,.67.23v-.18h.59Zm-.61-1.47a.79.79,0,0,0-.24-.21.73.73,0,0,0-.33-.08.48.48,0,0,0-.24.06.59.59,0,0,0-.18.13.82.82,0,0,0-.12.2.67.67,0,0,0,0,.24.69.69,0,0,0,0,.25.62.62,0,0,0,.32.32.6.6,0,0,0,.24,0,.65.65,0,0,0,.31-.08.68.68,0,0,0,.24-.2Z"/><path class="cls-4" d="M109.83,89.36a1.28,1.28,0,0,1-.46.39,1.42,1.42,0,0,1-1.07,0,1.25,1.25,0,0,1-.38-.25,1.42,1.42,0,0,1-.26-.38,1.18,1.18,0,0,1-.09-.46,1.07,1.07,0,0,1,.1-.47,1.21,1.21,0,0,1,.25-.37,1.16,1.16,0,0,1,.39-.26,1.3,1.3,0,0,1,.49-.09,1.11,1.11,0,0,1,.54.13,1.14,1.14,0,0,1,.42.33l-.44.38a.83.83,0,0,0-.22-.2.61.61,0,0,0-.3-.08.7.7,0,0,0-.25,0,.67.67,0,0,0-.19.14.5.5,0,0,0-.13.19.65.65,0,0,0,0,.5.5.5,0,0,0,.13.19.46.46,0,0,0,.2.13.66.66,0,0,0,.25,0,.52.52,0,0,0,.33-.1.86.86,0,0,0,.22-.2Z"/><path class="cls-4" d="M111.12,89a.35.35,0,0,0,.06.24.31.31,0,0,0,.21.07.4.4,0,0,0,.15,0l.13,0,.2.43a.91.91,0,0,1-.26.13,1,1,0,0,1-.31,0,1.26,1.26,0,0,1-.33-.05.67.67,0,0,1-.29-.19.73.73,0,0,1-.13-.23,1.2,1.2,0,0,1,0-.35V88H110v-.49h.5v-.73h.61v.73h.63V88h-.63Z"/><path class="cls-4" d="M113.49,88.69a1.18,1.18,0,0,1,.09-.46,1,1,0,0,1,.25-.38,1.14,1.14,0,0,1,.39-.25,1.2,1.2,0,0,1,1,0,1,1,0,0,1,.38.25,1,1,0,0,1,.26.38,1.22,1.22,0,0,1,0,.92,1.22,1.22,0,0,1-.26.38,1.14,1.14,0,0,1-.38.25,1.32,1.32,0,0,1-1,0,1.3,1.3,0,0,1-.39-.25,1.19,1.19,0,0,1-.25-.38A1.18,1.18,0,0,1,113.49,88.69Zm.61,0a.67.67,0,0,0,0,.24.82.82,0,0,0,.12.2.8.8,0,0,0,.19.13.7.7,0,0,0,.25,0,.6.6,0,0,0,.24,0,.53.53,0,0,0,.19-.13.82.82,0,0,0,.12-.2.69.69,0,0,0,0-.24.6.6,0,0,0,0-.24.56.56,0,0,0-.12-.2.55.55,0,0,0-.19-.14.6.6,0,0,0-.24,0,.7.7,0,0,0-.25,0,.85.85,0,0,0-.19.14.56.56,0,0,0-.12.2A.61.61,0,0,0,114.1,88.69Z"/><path class="cls-4" d="M116.43,89.82V87.55H117v.18a1.22,1.22,0,0,1,.29-.17,1,1,0,0,1,.36-.06,1,1,0,0,1,.44.1.91.91,0,0,1,.34.27.83.83,0,0,1,.18.32,1.56,1.56,0,0,1,.06.48v1.15h-.61v-1.2a.7.7,0,0,0,0-.27.34.34,0,0,0-.1-.16.48.48,0,0,0-.34-.13.58.58,0,0,0-.19,0,.69.69,0,0,0-.15.07l-.13.09-.08.1v1.47Z"/><path class="cls-4" d="M92.47,95.46V92.17h1.2a1.18,1.18,0,0,1,.45.07,1,1,0,0,1,.3.19.81.81,0,0,1,.21.3.9.9,0,0,1,.07.37.91.91,0,0,1-.23.61,1,1,0,0,1,.32.32,1,1,0,0,1,0,.84,1.61,1.61,0,0,1-.21.3.93.93,0,0,1-.33.21,1.17,1.17,0,0,1-.45.08Zm1.11-1.95a.62.62,0,0,0,.26,0,.3.3,0,0,0,.14-.1.39.39,0,0,0,0-.5.3.3,0,0,0-.14-.1.62.62,0,0,0-.26,0h-.47v.78Zm-.47,1.39h.64a.69.69,0,0,0,.28,0,.4.4,0,0,0,.16-.12.42.42,0,0,0,.09-.27.44.44,0,0,0-.09-.27.4.4,0,0,0-.16-.12.69.69,0,0,0-.28,0h-.64Z"/><path class="cls-4" d="M96.86,93.72l-.1,0h-.11a.88.88,0,0,0-.34.08A.59.59,0,0,0,96,94v1.43h-.61V93.18H96v.23a.6.6,0,0,1,.27-.19,1,1,0,0,1,.39-.07.55.55,0,0,1,.18,0Z"/><path class="cls-4" d="M99.47,95.46h-.59v-.19a.78.78,0,0,1-.3.18,1,1,0,0,1-.33,0,1.19,1.19,0,0,1-.49-.1,1,1,0,0,1-.37-.28,1.09,1.09,0,0,1-.22-.36,1.27,1.27,0,0,1-.07-.44,1.22,1.22,0,0,1,.08-.47,1.18,1.18,0,0,1,.24-.37,1,1,0,0,1,.36-.25,1,1,0,0,1,.8,0,1.08,1.08,0,0,1,.3.16v-.18h.59ZM98.86,94a1,1,0,0,0-.24-.21.72.72,0,0,0-.33-.07.47.47,0,0,0-.24,0,.49.49,0,0,0-.18.14.67.67,0,0,0-.12.2.59.59,0,0,0,0,.23.66.66,0,0,0,0,.25.53.53,0,0,0,.13.2.62.62,0,0,0,.19.12.47.47,0,0,0,.24,0,.55.55,0,0,0,.31-.08.68.68,0,0,0,.24-.2Z"/><path class="cls-4" d="M100.17,95.46V93.18h.59v.18a.9.9,0,0,1,.29-.16.78.78,0,0,1,.35-.07,1.05,1.05,0,0,1,.44.1,1.17,1.17,0,0,1,.35.27,1.09,1.09,0,0,1,.17.32,1.56,1.56,0,0,1,.06.48v1.16h-.61V94.25a.88.88,0,0,0,0-.26.69.69,0,0,0-.1-.17.5.5,0,0,0-.35-.12.57.57,0,0,0-.18,0,.46.46,0,0,0-.16.07.27.27,0,0,0-.12.09.38.38,0,0,0-.09.09v1.48Z"/><path class="cls-4" d="M104.68,95.46v-.19a1,1,0,0,1-.3.18,1,1,0,0,1-.34,0,1.12,1.12,0,0,1-.48-.1,1.1,1.1,0,0,1-.59-.64,1.27,1.27,0,0,1-.08-.44,1.23,1.23,0,0,1,.09-.47,1.18,1.18,0,0,1,.24-.37,1.07,1.07,0,0,1,.35-.25,1,1,0,0,1,.44-.1,1,1,0,0,1,.64.22V92.12h.61v3.34Zm0-1.48a.7.7,0,0,0-.24-.21.66.66,0,0,0-.32-.07.47.47,0,0,0-.24,0,.45.45,0,0,0-.19.14.49.49,0,0,0-.11.2.59.59,0,0,0,0,.23.66.66,0,0,0,0,.25.48.48,0,0,0,.32.32.46.46,0,0,0,.23,0,.57.57,0,0,0,.32-.08.64.64,0,0,0,.23-.2Z"/><path class="cls-4" d="M106.79,95.46l1.41-3.29h.44l1.41,3.29h-.66l-.31-.73h-1.32l-.31.73ZM108,94.17h.84l-.42-1Z"/><path class="cls-4" d="M110.4,93.18H111v.18a1.08,1.08,0,0,1,.3-.16.87.87,0,0,1,.37-.07.94.94,0,0,1,.43.1,1,1,0,0,1,.36.25,1.18,1.18,0,0,1,.24.37,1.45,1.45,0,0,1,.08.47,1.27,1.27,0,0,1-.07.44,1.1,1.1,0,0,1-.59.64,1.19,1.19,0,0,1-.49.1,1,1,0,0,1-.61-.2v1.28h-.61Zm.61,1.48a.68.68,0,0,0,.24.2.55.55,0,0,0,.31.08.47.47,0,0,0,.24,0,.62.62,0,0,0,.19-.12.53.53,0,0,0,.13-.2.66.66,0,0,0,0-.25.59.59,0,0,0,0-.23.67.67,0,0,0-.12-.2.49.49,0,0,0-.18-.14.52.52,0,0,0-.24,0,.72.72,0,0,0-.33.07A1,1,0,0,0,111,94Z"/><path class="cls-4" d="M113.29,93.18h.59v.18a1.08,1.08,0,0,1,.3-.16.86.86,0,0,1,.36-.07,1,1,0,0,1,.44.1,1.07,1.07,0,0,1,.35.25.91.91,0,0,1,.24.37,1.23,1.23,0,0,1,.09.47,1.27,1.27,0,0,1-.07.44,1.09,1.09,0,0,1-.22.36,1,1,0,0,1-.38.28,1.12,1.12,0,0,1-.48.1,1,1,0,0,1-.61-.2v1.28h-.61Zm.61,1.48a.74.74,0,0,0,.23.2.59.59,0,0,0,.32.08.52.52,0,0,0,.24,0,.76.76,0,0,0,.19-.12.69.69,0,0,0,.13-.2.66.66,0,0,0,0-.25.59.59,0,0,0,0-.23.67.67,0,0,0-.12-.2.49.49,0,0,0-.18-.14.53.53,0,0,0-.25,0,.68.68,0,0,0-.32.07.7.7,0,0,0-.24.21Z"/><path class="cls-4" d="M118.16,95.1a1.12,1.12,0,0,1-.41.3,1.34,1.34,0,0,1-.52.1,1.19,1.19,0,0,1-.47-.08,1.23,1.23,0,0,1-.38-.24,1.05,1.05,0,0,1-.25-.37,1.3,1.3,0,0,1-.09-.49,1.16,1.16,0,0,1,.3-.83.92.92,0,0,1,.35-.26,1.06,1.06,0,0,1,.45-.1,1.09,1.09,0,0,1,.44.1,1,1,0,0,1,.34.25,1.14,1.14,0,0,1,.22.37,1.33,1.33,0,0,1,.08.45.88.88,0,0,1,0,.17h-1.57a.71.71,0,0,0,.06.22.58.58,0,0,0,.14.17A.42.42,0,0,0,117,95a.62.62,0,0,0,.23,0,.68.68,0,0,0,.35-.09.86.86,0,0,0,.23-.17ZM117.59,94a.42.42,0,0,0,0-.15.38.38,0,0,0-.09-.13.42.42,0,0,0-.14-.09.52.52,0,0,0-.18,0,.47.47,0,0,0-.32.12.39.39,0,0,0-.16.28Z"/><path class="cls-4" d="M121,95.46h-.58v-.19a1,1,0,0,1-.3.18,1,1,0,0,1-.34,0,1.18,1.18,0,0,1-.48-.1,1,1,0,0,1-.37-.28,1,1,0,0,1-.22-.36,1.27,1.27,0,0,1-.08-.44,1.23,1.23,0,0,1,.09-.47,1.18,1.18,0,0,1,.24-.37,1,1,0,0,1,.36-.25.91.91,0,0,1,.43-.1.94.94,0,0,1,.37.07,1.08,1.08,0,0,1,.3.16v-.18H121ZM120.35,94a.77.77,0,0,0-.23-.21.72.72,0,0,0-.33-.07.47.47,0,0,0-.24,0,.52.52,0,0,0-.19.14.64.64,0,0,0-.11.2.59.59,0,0,0,0,.23.66.66,0,0,0,0,.25.53.53,0,0,0,.13.2.52.52,0,0,0,.19.12.47.47,0,0,0,.24,0,.55.55,0,0,0,.31-.08.57.57,0,0,0,.23-.2Z"/><path class="cls-4" d="M122.28,95.46h-.61V92.12h.61Z"/><path class="cls-4" d="M101.69,99.92a3.33,3.33,0,0,0,.56,1.84l-.45.32a3.81,3.81,0,0,1-.5-1,4,4,0,0,1-.17-1.15,4,4,0,0,1,.17-1.15,3.53,3.53,0,0,1,.5-1l.45.32a3,3,0,0,0-.41.86A3.19,3.19,0,0,0,101.69,99.92Z"/><path class="cls-4" d="M102.87,98.27l.79-.47h.45v3.29h-.63V98.54l-.61.33Z"/><path class="cls-4" d="M107.33,99.45a2.6,2.6,0,0,1-.09.71,1.62,1.62,0,0,1-.24.53,1.11,1.11,0,0,1-.39.33,1.17,1.17,0,0,1-1,0,1.11,1.11,0,0,1-.39-.33,1.85,1.85,0,0,1-.24-.53,2.6,2.6,0,0,1-.09-.71,2.55,2.55,0,0,1,.09-.71,1.73,1.73,0,0,1,.24-.53,1.14,1.14,0,0,1,.39-.34,1.26,1.26,0,0,1,1,0,1.14,1.14,0,0,1,.39.34,1.53,1.53,0,0,1,.24.53A2.55,2.55,0,0,1,107.33,99.45Zm-.63,0a3,3,0,0,0,0-.46,1.52,1.52,0,0,0-.12-.36.63.63,0,0,0-.19-.23.46.46,0,0,0-.25-.08.47.47,0,0,0-.26.08.63.63,0,0,0-.19.23,1.17,1.17,0,0,0-.11.36,2.13,2.13,0,0,0,0,.46,2.19,2.19,0,0,0,0,.46,1.17,1.17,0,0,0,.11.36.6.6,0,0,0,.19.22.4.4,0,0,0,.26.08.39.39,0,0,0,.25-.08.6.6,0,0,0,.19-.22,1.52,1.52,0,0,0,.12-.36A3.15,3.15,0,0,0,106.7,99.45Z"/><path class="cls-4" d="M107.82,98.63a.94.94,0,0,1,.07-.34.92.92,0,0,1,.19-.28.75.75,0,0,1,.28-.18.86.86,0,0,1,.36-.07.84.84,0,0,1,.35.07.75.75,0,0,1,.28.18.92.92,0,0,1,.19.28.84.84,0,0,1,0,.67.9.9,0,0,1-.47.47,1,1,0,0,1-.35.06,1,1,0,0,1-.36-.06.89.89,0,0,1-.54-.8Zm1.22,0a.37.37,0,0,0-.09-.25.27.27,0,0,0-.23-.11.3.3,0,0,0-.24.11.37.37,0,0,0-.09.25.34.34,0,0,0,.09.24.3.3,0,0,0,.24.11.27.27,0,0,0,.23-.11A.34.34,0,0,0,109,98.63Zm-.4,2.46,1.92-3.29h.52l-1.92,3.29Zm1.46-.82a.8.8,0,0,1,.07-.34.77.77,0,0,1,.19-.28.9.9,0,0,1,.28-.18.91.91,0,0,1,.7,0,1,1,0,0,1,.29.18.92.92,0,0,1,.19.28,1,1,0,0,1,0,.68.88.88,0,0,1-.19.27,1,1,0,0,1-.29.19.91.91,0,0,1-.7,0,.92.92,0,0,1-.28-.19.74.74,0,0,1-.19-.27A.8.8,0,0,1,110.1,100.27Zm1.22,0a.37.37,0,0,0-.09-.25.34.34,0,0,0-.48,0,.39.39,0,0,0,0,.5.34.34,0,0,0,.48,0A.37.37,0,0,0,111.32,100.27Z"/><path class="cls-4" d="M113,99.92a3.18,3.18,0,0,0-.14-1,3.26,3.26,0,0,0-.41-.86l.45-.32a3.53,3.53,0,0,1,.5,1,4,4,0,0,1,.17,1.15,4,4,0,0,1-.17,1.15,3.81,3.81,0,0,1-.5,1l-.45-.32a3.59,3.59,0,0,0,.41-.86A3.23,3.23,0,0,0,113,99.92Z"/><path class="cls-12" d="M87.23,35.7l-.69,2,2.33-1.2a19.58,19.58,0,0,0,3.35.28c2.75-.13,4.91-2.24,4.93-4.41,0-1.7-1.9-4.34-5.62-4.33s-5.88,2.32-5.79,4.33A5.62,5.62,0,0,0,87.23,35.7Z"/><path class="cls-12" d="M96.6,34.36a7.66,7.66,0,0,1,1-.06c3.69,0,5.89,2.32,5.8,4.33a5.6,5.6,0,0,1-1.5,3.28l.7,1.81-2.34-1.08a19.58,19.58,0,0,1-3.35.28c-2.74-.13-4.79-2.12-4.8-4.29a3.13,3.13,0,0,1,.41-1.73"/><path class="cls-2" d="M92.27,34.79a1.41,1.41,0,0,1-.1-.56c0-.19.08-.68.1-.82a2.53,2.53,0,0,0,0-.44h0a4,4,0,0,0,0-.59c0-.13-.07-.28-.08-.35a.26.26,0,0,1,0-.12h0a.27.27,0,0,0,0-.15s-.14-.44-.19-.57a3.08,3.08,0,0,1-.16-.54c0-.15,0-.46,0-.51l.06-.06s0,0,0-.08a.53.53,0,0,1,0-.15l.07,0s0-.18-.07-.2a1,1,0,0,0-.3,0h-.1a1,1,0,0,0-.3,0c-.07,0-.07.2-.07.2l.07,0A.53.53,0,0,1,91,30s0,.06,0,.08l.06.06c0,.05,0,.36-.06.51a2.39,2.39,0,0,1-.15.54c0,.13-.18.53-.2.57a.38.38,0,0,0,0,.15h0a.26.26,0,0,1,0,.12c0,.07-.05.22-.08.35a4,4,0,0,0,0,.59h0a2.53,2.53,0,0,0,0,.44c0,.14.08.63.1.82a1.41,1.41,0,0,1-.1.56.93.93,0,0,0,0,.43.92.92,0,0,0,.18.22.79.79,0,0,0,.29.07h.76a.56.56,0,0,0,.29-.07.73.73,0,0,0,.18-.22A.93.93,0,0,0,92.27,34.79Z"/><path class="cls-2" d="M98.59,40.91a1.48,1.48,0,0,1-.11-.57c0-.18.08-.67.1-.82a1.78,1.78,0,0,0,0-.44h0a4,4,0,0,0,0-.59c0-.13-.06-.29-.08-.35a.26.26,0,0,1,0-.12h0a.25.25,0,0,0,0-.15s-.15-.44-.2-.58a2.31,2.31,0,0,1-.15-.53c0-.15-.06-.47-.06-.52l.07-.05a.08.08,0,0,0,0-.08A.66.66,0,0,1,98.1,36l.07,0s0-.17-.07-.19a.71.71,0,0,0-.3,0h-.1a.66.66,0,0,0-.29,0c-.08,0-.08.19-.08.19l.07,0,0,.15s0,.06,0,.08l.06.05s0,.37,0,.52a3,3,0,0,1-.15.53c0,.14-.19.54-.2.58A.27.27,0,0,0,97,38h0a.3.3,0,0,1,0,.12c0,.06,0,.22-.07.35a4.09,4.09,0,0,0,0,.59h0a1.91,1.91,0,0,0,0,.44c0,.15.07.64.1.82a1.48,1.48,0,0,1-.11.57.77.77,0,0,0,0,.43.68.68,0,0,0,.17.21.84.84,0,0,0,.3.08h.75a.55.55,0,0,0,.29-.08.7.7,0,0,0,.18-.21A.77.77,0,0,0,98.59,40.91Z"/><path class="cls-4" d="M87,12.31l1.2-2h.45v3.28H88V11.8l-.78,1.29h-.45L86,11.8v1.83h-.64V10.35h.45Z"/><path class="cls-4" d="M91.3,13.27a1,1,0,0,1-.41.3,1.35,1.35,0,0,1-.52.11,1.19,1.19,0,0,1-.47-.09,1,1,0,0,1-.38-.24,1,1,0,0,1-.25-.37,1.24,1.24,0,0,1-.09-.48,1.43,1.43,0,0,1,.07-.46,1.33,1.33,0,0,1,.23-.38,1.18,1.18,0,0,1,.35-.26,1.11,1.11,0,0,1,.46-.09,1,1,0,0,1,.43.09,1.2,1.2,0,0,1,.34.25,1.25,1.25,0,0,1,.22.37,1.33,1.33,0,0,1,.08.45,1,1,0,0,1,0,.18H89.77a.79.79,0,0,0,.06.22A.75.75,0,0,0,90,13a.86.86,0,0,0,.19.11.78.78,0,0,0,.22,0,.65.65,0,0,0,.35-.09,1.15,1.15,0,0,0,.23-.18Zm-.56-1.07a.88.88,0,0,0,0-.15.38.38,0,0,0-.09-.13l-.14-.09a.47.47,0,0,0-.17,0,.48.48,0,0,0-.33.12.45.45,0,0,0-.16.28Z"/><path class="cls-4" d="M92,12.94a.85.85,0,0,0,.28.16,1.06,1.06,0,0,0,.34.06.43.43,0,0,0,.21-.05.15.15,0,0,0,0-.28,1.23,1.23,0,0,0-.2-.1l-.27-.09a1.26,1.26,0,0,1-.26-.13.76.76,0,0,1-.21-.19.56.56,0,0,1-.08-.3.61.61,0,0,1,.08-.3.57.57,0,0,1,.19-.22.82.82,0,0,1,.28-.14.88.88,0,0,1,.33,0,.82.82,0,0,1,.22,0l.21.05.19.07.15.09-.29.44-.2-.11a.69.69,0,0,0-.24,0,.54.54,0,0,0-.22,0,.15.15,0,0,0-.09.14.14.14,0,0,0,.08.12,1,1,0,0,0,.21.08l.26.09a1.15,1.15,0,0,1,.27.14.8.8,0,0,1,.2.21.53.53,0,0,1,.09.32.61.61,0,0,1-.08.3.83.83,0,0,1-.2.22.87.87,0,0,1-.29.14,1.27,1.27,0,0,1-.34,0,1.61,1.61,0,0,1-.48-.08,1.69,1.69,0,0,1-.44-.23Z"/><path class="cls-4" d="M94.11,12.94a.76.76,0,0,0,.28.16,1,1,0,0,0,.34.06.46.46,0,0,0,.21-.05.16.16,0,0,0,0-.28l-.2-.1-.27-.09a1.34,1.34,0,0,1-.27-.13.72.72,0,0,1-.2-.19.56.56,0,0,1-.08-.3.6.6,0,0,1,.27-.52.82.82,0,0,1,.28-.14.86.86,0,0,1,.32,0,.9.9,0,0,1,.23,0l.21.05.19.07.14.09-.29.44a.75.75,0,0,0-.2-.11.59.59,0,0,0-.23,0,.48.48,0,0,0-.22,0,.15.15,0,0,0-.09.14.14.14,0,0,0,.08.12.93.93,0,0,0,.2.08l.27.09a1.38,1.38,0,0,1,.27.14,1,1,0,0,1,.2.21.68.68,0,0,1,0,.62.83.83,0,0,1-.2.22,1,1,0,0,1-.29.14,1.33,1.33,0,0,1-.34,0,1.61,1.61,0,0,1-.48-.08,1.42,1.42,0,0,1-.44-.23Z"/><path class="cls-4" d="M98.38,13.63h-.59v-.18a.75.75,0,0,1-.3.17,1,1,0,0,1-.33.06,1.29,1.29,0,0,1-.48-.1,1,1,0,0,1-.38-.29,1.28,1.28,0,0,1-.22-.36A1.21,1.21,0,0,1,96,12.5a1.4,1.4,0,0,1,.08-.47,1.23,1.23,0,0,1,.24-.38,1.11,1.11,0,0,1,.36-.25,1,1,0,0,1,.43-.09,1.06,1.06,0,0,1,.37.06,1.11,1.11,0,0,1,.3.17v-.19h.59Zm-.61-1.48a.78.78,0,0,0-.24-.2.73.73,0,0,0-.33-.08.6.6,0,0,0-.24.05.62.62,0,0,0-.18.14.82.82,0,0,0-.12.2.64.64,0,0,0,0,.24.61.61,0,0,0,0,.24.53.53,0,0,0,.13.2.64.64,0,0,0,.19.13.61.61,0,0,0,.24,0,.71.71,0,0,0,.32-.07.66.66,0,0,0,.23-.21Z"/><path class="cls-4" d="M101.26,13.5a1.82,1.82,0,0,1-.05.51,1,1,0,0,1-.15.34,1,1,0,0,1-.42.33,1.27,1.27,0,0,1-.59.12l-.33,0a1.32,1.32,0,0,1-.3-.1,1.35,1.35,0,0,1-.26-.15,1.2,1.2,0,0,1-.2-.18l.38-.4.11.1a.58.58,0,0,0,.15.11.93.93,0,0,0,.2.08.87.87,0,0,0,.25,0,.76.76,0,0,0,.27,0,.52.52,0,0,0,.19-.14.43.43,0,0,0,.11-.2,1.37,1.37,0,0,0,0-.33v-.08a.94.94,0,0,1-.61.21,1.33,1.33,0,0,1-.48-.1,1.1,1.1,0,0,1-.38-.29,1.07,1.07,0,0,1-.21-.36,1.22,1.22,0,0,1-.08-.43A1.19,1.19,0,0,1,99,12a1.23,1.23,0,0,1,.24-.38,1.06,1.06,0,0,1,.79-.34,1,1,0,0,1,.36.06,1,1,0,0,1,.31.17v-.19h.58Zm-.61-1.35a.68.68,0,0,0-.24-.2.66.66,0,0,0-.32-.08.6.6,0,0,0-.24.05.67.67,0,0,0-.19.14.56.56,0,0,0-.11.2.64.64,0,0,0,0,.24.6.6,0,0,0,0,.24.6.6,0,0,0,.32.33.61.61,0,0,0,.24,0,.64.64,0,0,0,.31-.07.58.58,0,0,0,.23-.21Z"/><path class="cls-4" d="M103.91,13.27a1.08,1.08,0,0,1-.42.3,1.35,1.35,0,0,1-.52.11,1.23,1.23,0,0,1-.47-.09,1,1,0,0,1-.38-.24,1.1,1.1,0,0,1-.25-.37,1.24,1.24,0,0,1-.09-.48,1.44,1.44,0,0,1,.08-.46,1.11,1.11,0,0,1,.22-.38,1.33,1.33,0,0,1,.35-.26,1.14,1.14,0,0,1,.46-.09,1,1,0,0,1,.43.09,1.07,1.07,0,0,1,.56.62,1.12,1.12,0,0,1,.08.45,1,1,0,0,1,0,.18h-1.58a.57.57,0,0,0,.07.22.7.7,0,0,0,.13.17,1.18,1.18,0,0,0,.19.11.85.85,0,0,0,.23,0,.64.64,0,0,0,.34-.09.92.92,0,0,0,.23-.18Zm-.57-1.07a.44.44,0,0,0,0-.15.38.38,0,0,0-.09-.13l-.14-.09a.47.47,0,0,0-.17,0,.48.48,0,0,0-.33.12.5.5,0,0,0-.16.28Z"/><path class="cls-4" d="M84.48,17.88h-.2v1.38h-.63V16h1.2a1.24,1.24,0,0,1,.46.07,1.1,1.1,0,0,1,.31.2,1,1,0,0,1,.21.31.86.86,0,0,1,.07.36.91.91,0,0,1-.19.61.83.83,0,0,1-.52.3l1.09,1.43h-.76Zm.29-.54a.64.64,0,0,0,.27,0,.3.3,0,0,0,.15-.11.41.41,0,0,0,.08-.25.45.45,0,0,0-.08-.26.37.37,0,0,0-.15-.11.85.85,0,0,0-.27,0h-.49v.81Z"/><path class="cls-4" d="M88.48,18.9a1.21,1.21,0,0,1-.42.31,1.34,1.34,0,0,1-.52.1,1.45,1.45,0,0,1-.47-.08,1.23,1.23,0,0,1-.38-.24,1.25,1.25,0,0,1-.25-.38,1.34,1.34,0,0,1,0-.94,1.07,1.07,0,0,1,.22-.37,1.08,1.08,0,0,1,.81-.36,1,1,0,0,1,.43.09,1.23,1.23,0,0,1,.34.26,1.09,1.09,0,0,1,.22.36,1.16,1.16,0,0,1,.08.45,1,1,0,0,1,0,.18H86.94a.57.57,0,0,0,.07.22.7.7,0,0,0,.13.17.86.86,0,0,0,.19.11.79.79,0,0,0,.23,0,.64.64,0,0,0,.34-.09,1.14,1.14,0,0,0,.23-.17Zm-.57-1.07a.44.44,0,0,0,0-.15.34.34,0,0,0-.09-.12.42.42,0,0,0-.14-.09.33.33,0,0,0-.17,0,.44.44,0,0,0-.33.13.43.43,0,0,0-.16.27Z"/><path class="cls-4" d="M89.66,19.26h-.61V15.93h.61Z"/><path class="cls-4" d="M92.3,18.9a1.27,1.27,0,0,1-.41.31,1.34,1.34,0,0,1-.52.1,1.4,1.4,0,0,1-.47-.08,1.12,1.12,0,0,1-.38-.24,1.09,1.09,0,0,1-.25-.38,1.21,1.21,0,0,1-.09-.48,1.43,1.43,0,0,1,.07-.46,1.1,1.1,0,0,1,.23-.37.92.92,0,0,1,.35-.26.93.93,0,0,1,.45-.1,1,1,0,0,1,.77.35,1.11,1.11,0,0,1,.23.36,1.38,1.38,0,0,1,.08.45.9.9,0,0,1,0,.18H90.77a.79.79,0,0,0,.06.22.75.75,0,0,0,.14.17.78.78,0,0,0,.18.11.85.85,0,0,0,.23,0,.68.68,0,0,0,.35-.09,1.05,1.05,0,0,0,.22-.17Zm-.57-1.07a.42.42,0,0,0,0-.15.38.38,0,0,0-.1-.12.3.3,0,0,0-.13-.09.37.37,0,0,0-.18,0,.44.44,0,0,0-.33.13.48.48,0,0,0-.16.27Z"/><path class="cls-4" d="M93.78,18.34,94.39,17H95l-1,2.27h-.43l-1-2.27h.65Z"/><path class="cls-4" d="M97.52,19.26h-.59v-.18a.92.92,0,0,1-.3.18,1.14,1.14,0,0,1-.33,0,1.12,1.12,0,0,1-.48-.1,1.08,1.08,0,0,1-.38-.28,1.25,1.25,0,0,1-.29-.8,1.19,1.19,0,0,1,.09-.47,1.23,1.23,0,0,1,.24-.38,1.24,1.24,0,0,1,.35-.25,1.08,1.08,0,0,1,.44-.09,1,1,0,0,1,.36.06,1.11,1.11,0,0,1,.3.17V17h.59Zm-.61-1.47a.61.61,0,0,0-.24-.21.69.69,0,0,0-.32-.08.54.54,0,0,0-.25.06.59.59,0,0,0-.18.13.82.82,0,0,0-.12.2.67.67,0,0,0,0,.24.7.7,0,0,0,0,.25.62.62,0,0,0,.12.19.59.59,0,0,0,.19.13.64.64,0,0,0,.56,0,.74.74,0,0,0,.23-.2Z"/><path class="cls-4" d="M98.23,19.26V17h.58v.18A1.22,1.22,0,0,1,99.1,17a1,1,0,0,1,.36-.06,1,1,0,0,1,.44.1.89.89,0,0,1,.34.27.83.83,0,0,1,.18.32,1.53,1.53,0,0,1,.06.47v1.16h-.61v-1.2a.7.7,0,0,0,0-.27.34.34,0,0,0-.1-.16.48.48,0,0,0-.34-.13.58.58,0,0,0-.19,0,.69.69,0,0,0-.15.07l-.13.09-.08.1v1.47Z"/><path class="cls-4" d="M103.2,18.8a1.26,1.26,0,0,1-.45.39,1.37,1.37,0,0,1-.58.12,1.25,1.25,0,0,1-.88-.34,1.19,1.19,0,0,1-.25-.38,1.18,1.18,0,0,1-.09-.46,1.23,1.23,0,0,1,.09-.47,1.08,1.08,0,0,1,.26-.37,1.16,1.16,0,0,1,.39-.26,1.28,1.28,0,0,1,.48-.09,1.26,1.26,0,0,1,.55.12,1.25,1.25,0,0,1,.41.34l-.43.38a.63.63,0,0,0-.23-.2.61.61,0,0,0-.3-.08.64.64,0,0,0-.24.05.72.72,0,0,0-.2.14.62.62,0,0,0-.12.19.65.65,0,0,0,0,.5.62.62,0,0,0,.12.19.53.53,0,0,0,.2.13.71.71,0,0,0,.26.05.56.56,0,0,0,.33-.1.81.81,0,0,0,.21-.2Z"/><path class="cls-4" d="M105.61,18.9a1.21,1.21,0,0,1-.42.31,1.3,1.3,0,0,1-.52.1,1.5,1.5,0,0,1-.47-.08,1.18,1.18,0,0,1-.37-.24,1.28,1.28,0,0,1-.26-.38,1.21,1.21,0,0,1-.09-.48,1.44,1.44,0,0,1,.08-.46,1.25,1.25,0,0,1,.22-.37,1.1,1.1,0,0,1,.35-.26,1.09,1.09,0,0,1,.89,0,1.1,1.1,0,0,1,.34.26,1.11,1.11,0,0,1,.23.36,1.38,1.38,0,0,1,.08.45.9.9,0,0,1,0,.18h-1.58a.81.81,0,0,0,.07.22.7.7,0,0,0,.13.17,1.18,1.18,0,0,0,.19.11.85.85,0,0,0,.23,0,.62.62,0,0,0,.34-.09.91.91,0,0,0,.23-.17ZM105,17.83a.83.83,0,0,0,0-.15.58.58,0,0,0-.1-.12.34.34,0,0,0-.14-.09.33.33,0,0,0-.17,0,.44.44,0,0,0-.33.13.48.48,0,0,0-.16.27Z"/><path class="cls-4" d="M89.05,23.72a3.52,3.52,0,0,0,.14,1,3,3,0,0,0,.42.86l-.46.32a3.51,3.51,0,0,1-.49-1,3.64,3.64,0,0,1-.17-1.15,3.68,3.68,0,0,1,.17-1.15,3.78,3.78,0,0,1,.49-1l.46.32a3.27,3.27,0,0,0-.42.86A3.63,3.63,0,0,0,89.05,23.72Z"/><path class="cls-4" d="M90.22,22.08l.8-.47h.45V24.9h-.64V22.34l-.61.34Z"/><path class="cls-4" d="M92.58,24.12a1,1,0,0,0,.25.19.67.67,0,0,0,.31.07.59.59,0,0,0,.4-.15.64.64,0,0,0,.13-.19.59.59,0,0,0,0-.23.51.51,0,0,0-.06-.25.56.56,0,0,0-.14-.2l-.18-.1a.78.78,0,0,0-.22,0,.74.74,0,0,0-.25.05.8.8,0,0,0-.24.13l-.39-.06.21-1.74h1.74v.56H93l0,.52.25,0a1.74,1.74,0,0,1,.39,0,1,1,0,0,1,.37.2.92.92,0,0,1,.31.39,1,1,0,0,1,.11.5,1.13,1.13,0,0,1-.09.45,1.19,1.19,0,0,1-.26.36,1.28,1.28,0,0,1-.39.24,1.45,1.45,0,0,1-.47.08,1.35,1.35,0,0,1-1-.42Z"/><path class="cls-4" d="M94.85,22.43a1,1,0,0,1,.06-.34,1,1,0,0,1,.19-.27.92.92,0,0,1,.28-.19.94.94,0,0,1,.71,0,.92.92,0,0,1,.28.19.83.83,0,0,1,.19.27.86.86,0,0,1,0,.68.77.77,0,0,1-.19.28.75.75,0,0,1-.28.18.84.84,0,0,1-.35.07.86.86,0,0,1-.36-.07.75.75,0,0,1-.28-.18.92.92,0,0,1-.19-.28A1,1,0,0,1,94.85,22.43Zm1.22,0a.38.38,0,0,0-.09-.25.34.34,0,0,0-.48,0,.38.38,0,0,0-.09.25.37.37,0,0,0,.09.25.34.34,0,0,0,.48,0A.37.37,0,0,0,96.07,22.43Zm-.41,2.47,1.92-3.29h.52L96.18,24.9Zm1.46-.82a.77.77,0,0,1,.07-.34.92.92,0,0,1,.19-.28.75.75,0,0,1,.28-.18.84.84,0,0,1,.35-.07.86.86,0,0,1,.36.07.75.75,0,0,1,.28.18.92.92,0,0,1,.19.28.84.84,0,0,1,0,.67.9.9,0,0,1-.47.47,1,1,0,0,1-.36.06,1,1,0,0,1-.35-.06.9.9,0,0,1-.47-.47A.75.75,0,0,1,97.12,24.08Zm1.22,0a.37.37,0,0,0-.09-.25.32.32,0,0,0-.48,0,.41.41,0,0,0-.08.25.38.38,0,0,0,.08.24.32.32,0,0,0,.48,0A.34.34,0,0,0,98.34,24.08Z"/><path class="cls-4" d="M100.06,23.72a3.28,3.28,0,0,0-.15-1,3.25,3.25,0,0,0-.41-.86l.45-.32a3.81,3.81,0,0,1,.5,1,4,4,0,0,1,.17,1.15,4,4,0,0,1-.17,1.15,3.53,3.53,0,0,1-.5,1l-.45-.32a3,3,0,0,0,.41-.86A3.19,3.19,0,0,0,100.06,23.72Z"/></svg>