<svg id="Layer_1" data-name="Layer 1" xmlns="http://www.w3.org/2000/svg" width="24.9" height="24.9" viewBox="0 0 24.9 24.9"><defs><style>.cls-1{fill:#f5ac1b;}</style></defs><title>iLink</title><path class="cls-1" d="M24.19,0H5.51A.71.71,0,0,0,4.8.71V19.39a.71.71,0,0,0,.71.71H24.19a.71.71,0,0,0,.71-.71V.71A.71.71,0,0,0,24.19,0Zm-.71,18.68H6.23V1.42H23.48Zm0,0"/><path class="cls-1" d="M19.39,23.48h-18v-18A.71.71,0,1,0,0,5.51V24.19a.71.71,0,0,0,.71.71H19.39a.71.71,0,0,0,0-1.42Zm0,0"/><path class="cls-1" d="M10.82,10.76h3.32v3.33a.71.71,0,1,0,1.42,0V10.76h3.33a.71.71,0,0,0,0-1.42H15.56V6a.71.71,0,1,0-1.42,0V9.34H10.82a.71.71,0,1,0,0,1.42Zm0,0"/></svg>