<svg xmlns="http://www.w3.org/2000/svg" width="13.72" height="15.65" viewBox="0 0 13.72 15.65"><title>Kantar iLink_NonResponsive</title><g id="Layer_3" data-name="Layer 3"><path d="M8.68,15.65V13H8.21v-.7h2.25a1,1,0,0,0,1.11-1.11V9.11c0-.3.13-.43.44-.43h1a.54.54,0,0,0,0-.15L12.73,8c-.31-.68-.63-1.39-1-2.07a2.6,2.6,0,0,1-.21-1V4.89A4.69,4.69,0,0,0,7.38.73a4.35,4.35,0,0,0-.51,0,4.62,4.62,0,0,0-2.63.79l-.09.06L4,1.51l-.13-.18L3.68,1,4,.86,4.31.64A5.4,5.4,0,0,1,6.41,0h0l.07,0h.66L7.4,0l.39.06a5.49,5.49,0,0,1,4.39,4.4c0,.12,0,.24.05.36s0,.2,0,.3a1.74,1.74,0,0,0,.08.36L13.4,7.79l.27.57.05.1v.63a.43.43,0,0,1-.43.29h-1v1.77A1.82,1.82,0,0,1,10.43,13h-1v2.66Z"/><path d="M4,9.38a.21.21,0,0,1-.12,0A9.51,9.51,0,0,1,.67,6.48,3.75,3.75,0,0,1,0,4.77l0-.08V4.21l0-.16A2.46,2.46,0,0,1,.1,3.76,2.45,2.45,0,0,1,2.25,1.94h.16A1.82,1.82,0,0,1,4,2.74H4a2,2,0,0,1,1.58-.82,2.26,2.26,0,0,1,1,.23,2.53,2.53,0,0,1,1.4,2.58A4.55,4.55,0,0,1,6.76,7.17,10.55,10.55,0,0,1,4.13,9.34.47.47,0,0,1,4,9.38ZM2.4,2.63A1.71,1.71,0,0,0,.7,4.31a3,3,0,0,0,.54,1.78A8.44,8.44,0,0,0,4,8.61l.07,0a9.54,9.54,0,0,0,2.1-1.74,4,4,0,0,0,1.1-2.14A1.75,1.75,0,0,0,5.73,2.64l-.24,0a1.09,1.09,0,0,0-1.13.93,2.7,2.7,0,0,0,0,.28l0,.24H3.64l0-.24,0-.23a1.05,1.05,0,0,0-.86-.94A1.84,1.84,0,0,0,2.4,2.63Z"/><path d="M3.37,15.65s0-.76,0-1.08c0-.74,0-1.47,0-2.21a6.46,6.46,0,0,0-.57-2.19l-.15-.38.62-.26.07.1.13.34.27.75a6.8,6.8,0,0,1,.34,2.18c0,.62,0,1.23,0,1.85v.9Z"/><rect x="2.67" y="5.08" width="0.68" height="0.68"/><rect x="3.63" y="5.07" width="0.68" height="0.68"/><rect x="4.59" y="5.08" width="0.68" height="0.68"/></g></svg>