<svg xmlns="http://www.w3.org/2000/svg" width="18.28" height="17.28" viewBox="0 0 18.28 17.28"><title>Kantar iLink_NonResponsive</title><g id="Layer_3" data-name="Layer 3"><path d="M7.24,17.28c-.29,0-.38-.09-.38-.39V15.34l-.08.06a1.68,1.68,0,0,1-.91.29,1.43,1.43,0,0,1-.71-.19,1.08,1.08,0,0,1-.59-1.08c0-.39.16-1.87.16-1.87h-1c-.2,0-.33-.05-.38-.15s0-.28.09-.49c.28-.48.54-1,.8-1.44l.34-.62,0,0a1,1,0,0,1-.4-1.27A6.65,6.65,0,0,1,5.39,5.82a4.46,4.46,0,0,1,3-1.58,7.64,7.64,0,0,1,1-.07,5.77,5.77,0,0,1,1.28.14A4.58,4.58,0,0,1,13.24,6a4.38,4.38,0,0,1,1,2.23,6.13,6.13,0,0,1-.17,2.1,13.55,13.55,0,0,1-1.84,4.05.64.64,0,0,0-.12.42v2.06c0,.31-.09.39-.38.39ZM7.1,14.22a.18.18,0,0,1,.1,0,.35.35,0,0,1,.22.37c0,.47,0,.94,0,1.41v.65h4.08v-.73c0-.41,0-.81,0-1.22a.91.91,0,0,1,.16-.52,13.35,13.35,0,0,0,1.75-3.74,7.62,7.62,0,0,0,.24-1.32,3.54,3.54,0,0,0-.8-2.62,4.11,4.11,0,0,0-2.39-1.64,4.71,4.71,0,0,0-1-.1l-.78,0A3.81,3.81,0,0,0,6.14,5.93a5.42,5.42,0,0,0-1.3,2.36A3.47,3.47,0,0,0,4.68,9a.37.37,0,0,0,0,.21A.39.39,0,0,0,5,9.31c.2,0,.29.09.32.15a.37.37,0,0,1,0,.36l-1.16,2.1h.81a.49.49,0,0,1,.36.11.46.46,0,0,1,.07.37l-.07.84c0,.4-.07.81-.11,1.22a.42.42,0,0,0,.16.4.76.76,0,0,0,.5.2h.12a1.37,1.37,0,0,0,.9-.65A.39.39,0,0,1,7.1,14.22Z"/><path d="M17.14,10.25a.28.28,0,0,1-.2-.09.29.29,0,0,1,0-.44l.18-.17.11-.1H15.76c-.21,0-.34-.12-.34-.31s.13-.3.35-.3h1.48l-.1-.1-.21-.22a.33.33,0,0,1-.08-.31A.27.27,0,0,1,17.05,8h.07a.39.39,0,0,1,.26.09c.23.21.45.44.67.66l.13.13a.31.31,0,0,1,0,.47l-.79.77A.39.39,0,0,1,17.14,10.25Z"/><path d="M1.15,10.25a.37.37,0,0,1-.26-.12L.13,9.39A.38.38,0,0,1,0,9.14a.39.39,0,0,1,.14-.26l.74-.74A.38.38,0,0,1,1.15,8a.28.28,0,0,1,.2.09c.13.13.12.3,0,.46L1,8.84H2.48c.24,0,.35.1.36.3s-.07.3-.36.31H1l.27.25a.31.31,0,0,1,.05.45A.3.3,0,0,1,1.15,10.25Z"/><path d="M4.26,5.48A.39.39,0,0,1,4,5.36l-1-1v.38c0,.21-.11.34-.29.34a.31.31,0,0,1-.31-.34c0-.38,0-.75,0-1.13a.29.29,0,0,1,.29-.31H3.84a.31.31,0,0,1,.29.3.29.29,0,0,1-.29.3H3.37l.12.1.94.94c.15.16.16.32,0,.45A.3.3,0,0,1,4.26,5.48Z"/><path d="M14.16,5.48A.27.27,0,0,1,14,5.4a.34.34,0,0,1-.09-.19A.35.35,0,0,1,14,5l.85-.85L15,4l.12-.1h-.45c-.21,0-.33-.12-.33-.3a.3.3,0,0,1,.32-.31h1.14a.31.31,0,0,1,.32.33c0,.37,0,.75,0,1.12a.3.3,0,1,1-.6,0V4.33l-1.08,1A.34.34,0,0,1,14.16,5.48Z"/><path d="M9.22,2.82a.31.31,0,0,1-.15,0,.35.35,0,0,1-.15-.28c0-.34,0-.69,0-1V1l-.11.11c-.05.07-.11.13-.17.2a.36.36,0,0,1-.25.11.29.29,0,0,1-.21-.09.28.28,0,0,1-.1-.21A.32.32,0,0,1,8.2.88L9,.11A.37.37,0,0,1,9.22,0a.35.35,0,0,1,.24.12l.78.78a.31.31,0,0,1-.18.54.38.38,0,0,1-.25-.11L9.52,1v.51c0,.31,0,.63,0,.94a.39.39,0,0,1-.13.29A.26.26,0,0,1,9.22,2.82Z"/><path d="M10.37,11.91c-.16,0-.25-.1-.26-.29L10,10H10A.66.66,0,0,0,9.6,10l-1.72.83-.58.28a.48.48,0,0,1-.21.06.25.25,0,0,1-.2-.1.46.46,0,0,1-.06-.25V7.1c0-.31.18-.35.26-.35a.45.45,0,0,1,.21.06L8,7.14l1.64.77A.5.5,0,0,0,9.87,8h1.31c.27,0,.34.06.36.31v.05h.34c.21,0,.28.08.28.29v.65c0,.25-.08.32-.33.33h-.31v.05c0,.18-.06.27-.18.3h0l-.1,1.7a.26.26,0,0,1-.26.25h-.57Zm.24-.89h.12l.06-1h-.23Zm-3.23-.5.18-.08,1.83-.88,0,0v0c0-.2,0-.36,0-.52V8.48c0-.06,0-.08-.07-.11l-.63-.3L7.38,7.42ZM10,9.45h1V8.52H10Z"/></g></svg>