<svg xmlns="http://www.w3.org/2000/svg" viewBox="0 0 34 34"><defs><style>.a{fill:#2b221f;}</style></defs><title>iLink SVG Elements_Responsive</title><path class="a" d="M5,34H29a5,5,0,0,0,5-5V5a5,5,0,0,0-5-5H5A5,5,0,0,0,0,5v6a.5.5,0,0,0,.5.5A.5.5,0,0,0,1,11V5A4,4,0,0,1,5,1H29a4,4,0,0,1,4,4V29a4,4,0,0,1-4,4H5a4,4,0,0,1-4-4V23a.5.5,0,0,0-.5-.5A.5.5,0,0,0,0,23v6A5,5,0,0,0,5,34Z"/><path class="a" d="M10.61,23.35l4.8-4.93a2,2,0,0,0,0-2.82l-4.82-4.95a.59.59,0,0,0-.36-.15.51.51,0,0,0-.35.14.5.5,0,0,0-.15.35.53.53,0,0,0,.14.36l4.82,5a1,1,0,0,1,0,1.39L9.89,22.65a.53.53,0,0,0-.14.36.5.5,0,0,0,.5.49A.51.51,0,0,0,10.61,23.35Z"/><path class="a" d="M18.86,23.35l4.8-4.93a2,2,0,0,0,0-2.82l-4.82-4.95a.45.45,0,0,0-.36-.15.51.51,0,0,0-.35.14A.5.5,0,0,0,18,11a.53.53,0,0,0,.14.36l4.82,5a1,1,0,0,1,0,1.39l-4.81,4.94A.53.53,0,0,0,18,23a.5.5,0,0,0,.5.49A.51.51,0,0,0,18.86,23.35Z"/></svg>