<svg xmlns="http://www.w3.org/2000/svg" width="16.32" height="14" viewBox="0 0 16.32 14"><title>Kantar iLink_NonResponsive</title><g id="Layer_3" data-name="Layer 3"><path d="M12.69,3.29a.59.59,0,0,0-.49-.41L9.9,2.54a.21.21,0,0,1-.17-.12L8.7.34a.6.6,0,0,0-1.08,0l-1,2.08a.21.21,0,0,1-.17.12l-2.3.34a.59.59,0,0,0-.49.41.62.62,0,0,0,.15.62L5.45,5.53a.25.25,0,0,1,.06.2L5.12,8A.6.6,0,0,0,6,8.66L8.05,7.58a.22.22,0,0,1,.22,0l2.05,1.08A.6.6,0,0,0,11.2,8l-.39-2.29a.22.22,0,0,1,.06-.2l1.67-1.62A.62.62,0,0,0,12.69,3.29Zm-.42.35L10.61,5.26a.63.63,0,0,0-.18.54l.4,2.29a.23.23,0,0,1-.09.22.25.25,0,0,1-.14,0l-.1,0L8.44,7.25a.59.59,0,0,0-.56,0L5.82,8.33a.23.23,0,0,1-.24,0,.23.23,0,0,1-.09-.22l.4-2.29a.63.63,0,0,0-.18-.54L4.05,3.64A.2.2,0,0,1,4,3.41a.23.23,0,0,1,.18-.16l2.3-.33a.61.61,0,0,0,.46-.33L8,.5a.23.23,0,0,1,.4,0l1,2.09a.61.61,0,0,0,.46.33l2.3.33a.24.24,0,0,1,.18.16A.2.2,0,0,1,12.27,3.64Z"/><path d="M7.18,9.71a.49.49,0,0,0-.39-.33L5,9.12A.21.21,0,0,1,4.84,9L4,7.37a.49.49,0,0,0-.86,0L2.36,9a.21.21,0,0,1-.13.1L.41,9.38A.49.49,0,0,0,0,9.71a.49.49,0,0,0,.12.49l1.32,1.28a.17.17,0,0,1,.05.15L1.2,13.44a.48.48,0,0,0,.69.51l1.63-.86.08,0,.08,0L5.31,14a.5.5,0,0,0,.5,0A.48.48,0,0,0,6,13.44l-.31-1.81a.17.17,0,0,1,0-.15L7.06,10.2A.49.49,0,0,0,7.18,9.71ZM6.82,10l-1.3,1.27a.5.5,0,0,0-.14.42l.31,1.79a.18.18,0,0,1-.07.17.17.17,0,0,1-.11,0l-.08,0-1.61-.85a.49.49,0,0,0-.44,0l-1.61.85a.21.21,0,0,1-.19,0,.21.21,0,0,1-.07-.18l.31-1.79a.5.5,0,0,0-.14-.42L.38,10a.19.19,0,0,1,0-.19.19.19,0,0,1,.15-.12l1.8-.26a.45.45,0,0,0,.35-.26l.81-1.63a.18.18,0,0,1,.32,0l.81,1.63a.45.45,0,0,0,.35.26l1.8.26a.2.2,0,0,1,.15.12A.19.19,0,0,1,6.82,10Z"/><path d="M16.3,9.71a.49.49,0,0,0-.39-.33L14.1,9.12A.21.21,0,0,1,14,9l-.81-1.65a.49.49,0,0,0-.86,0L11.48,9a.21.21,0,0,1-.13.1l-1.82.26a.49.49,0,0,0-.39.33.49.49,0,0,0,.12.49l1.32,1.28a.17.17,0,0,1,.05.15l-.31,1.81A.48.48,0,0,0,11,14l1.63-.86.08,0,.08,0,1.63.86a.5.5,0,0,0,.5,0,.48.48,0,0,0,.19-.47l-.31-1.81a.17.17,0,0,1,0-.15l1.32-1.28A.49.49,0,0,0,16.3,9.71Zm-.36.28-1.3,1.27a.5.5,0,0,0-.14.42l.31,1.79a.18.18,0,0,1-.07.17.17.17,0,0,1-.11,0l-.08,0-1.61-.85a.49.49,0,0,0-.44,0l-1.61.85a.21.21,0,0,1-.19,0,.19.19,0,0,1-.07-.18l.31-1.79a.5.5,0,0,0-.14-.42L9.5,10a.19.19,0,0,1-.05-.19.19.19,0,0,1,.15-.12l1.8-.26a.45.45,0,0,0,.35-.26l.81-1.63a.18.18,0,0,1,.32,0l.81,1.63a.45.45,0,0,0,.35.26l1.8.26A.2.2,0,0,1,16,9.8.19.19,0,0,1,15.94,10Z"/></g></svg>