<svg xmlns="http://www.w3.org/2000/svg" width="22.08" height="22" viewBox="0 0 22.08 22"><title>Kantar iLink</title><g id="layer"><path d="M15.23,17.1a.53.53,0,0,1-.17,0L11,14.93,7,17.06a.47.47,0,0,1-.17,0A.31.31,0,0,1,6.62,17a.36.36,0,0,1-.15-.36l.77-4.49L4,9a.38.38,0,0,1-.1-.38.37.37,0,0,1,.27-.24L5.67,8.2l3-.44,2-4.06a.28.28,0,0,1,.15-.15.37.37,0,0,1,.18,0,.38.38,0,0,1,.19,0,.29.29,0,0,1,.14.15l2,4.08,4.49.63a.39.39,0,0,1,.3.25A.37.37,0,0,1,18.1,9l-.68.67L14.8,12.22l.79,4.45a.36.36,0,0,1-.14.36A.41.41,0,0,1,15.23,17.1ZM7.89,11.81a.37.37,0,0,1,.1.33l-.67,3.93,3.54-1.86a.31.31,0,0,1,.34,0l3.55,1.85-.69-3.92a.38.38,0,0,1,.11-.33L17,9l-4-.57a.35.35,0,0,1-.28-.2L11,4.68,9.26,8.26a.35.35,0,0,1-.27.2L5,9Z"/><path d="M11,22a11,11,0,1,1,11-11A11,11,0,0,1,11,22ZM11,.66A10.34,10.34,0,1,0,21.42,11,10.38,10.38,0,0,0,11,.66Z"/></g></svg>