<svg xmlns="http://www.w3.org/2000/svg" width="13.46" height="13.46" viewBox="0 0 13.46 13.46"><title>Kantar iLink_NonResponsive</title><g id="Layer_3" data-name="Layer 3"><path d="M9.42,2V1a1,1,0,0,0-1-1H1A1,1,0,0,0,0,1V8.41a1,1,0,0,0,1,1H2V8.76H.88a.22.22,0,0,1-.22-.23V.88A.22.22,0,0,1,.88.66H8.53a.22.22,0,0,1,.23.22V2Z"/><path d="M4,11.45v1a1,1,0,0,0,1,1h7.42a1,1,0,0,0,1-1V5a1,1,0,0,0-1-1h-1V4.7h1.13a.22.22,0,0,1,.22.22v7.66a.22.22,0,0,1-.22.22H4.92a.22.22,0,0,1-.22-.22V11.45Z"/><path d="M8.53,8.76H7.41v.66h1a1,1,0,0,0,1-1v-1H8.76V8.53A.23.23,0,0,1,8.53,8.76Z"/><path d="M9.42,5.37V4H8.08V4.7h.45a.22.22,0,0,1,.23.22v.45Z"/><path d="M4,5v1H4.7V4.92a.22.22,0,0,1,.22-.22H6.05V4H5A1,1,0,0,0,4,5Z"/><path d="M4,8.09V9.42H5.37V8.76H4.92a.22.22,0,0,1-.22-.23V8.09Z"/></g></svg>