<svg xmlns="http://www.w3.org/2000/svg" width="24.26" height="17.37" viewBox="0 0 24.26 17.37"><title>Kantar iLink</title><g id="layer"><path d="M5.24,17.37a.33.33,0,0,1-.23-.1L.09,12.35A.31.31,0,0,1,0,12.13a.32.32,0,0,1,.09-.23L5,7a.33.33,0,0,1,.45,0l4.92,4.92a.33.33,0,0,1,.1.23.32.32,0,0,1-.1.22L5.46,17.27A.32.32,0,0,1,5.24,17.37ZM.77,12.13,5.24,16.6l4.47-4.47L5.24,7.66Z"/><path d="M3.42,14a.32.32,0,0,1-.32-.32V10.89a.32.32,0,0,1,.32-.32.32.32,0,0,1,.32.32v2.77A.32.32,0,0,1,3.42,14Z"/><path d="M5.24,15.75a.32.32,0,0,1-.32-.32V9.11a.31.31,0,0,1,.32-.31.32.32,0,0,1,.32.31v6.32A.32.32,0,0,1,5.24,15.75Z"/><path d="M7.05,14a.31.31,0,0,1-.31-.32V10.89a.32.32,0,1,1,.63,0v2.77A.32.32,0,0,1,7.05,14Z"/><path d="M12.13,10.47a.31.31,0,0,1-.22-.09L7,5.46A.31.31,0,0,1,7,5L11.91.09a.33.33,0,0,1,.45,0L17.28,5a.33.33,0,0,1,0,.45l-4.92,4.92A.32.32,0,0,1,12.13,10.47ZM7.66,5.23,12.13,9.7,16.6,5.23,12.13.77Z"/><path d="M10.32,7.09A.32.32,0,0,1,10,6.77V4a.32.32,0,1,1,.63,0V6.77A.32.32,0,0,1,10.32,7.09Z"/><path d="M12.13,8.86a.33.33,0,0,1-.32-.32V2.22a.32.32,0,0,1,.32-.32.32.32,0,0,1,.32.32V8.54A.32.32,0,0,1,12.13,8.86Z"/><path d="M14,7.09a.32.32,0,0,1-.32-.32V4A.32.32,0,0,1,14,3.67a.33.33,0,0,1,.32.32V6.77A.33.33,0,0,1,14,7.09Z"/><path d="M19,17.37a.32.32,0,0,1-.22-.1l-4.92-4.92a.31.31,0,0,1-.09-.22.32.32,0,0,1,.09-.23L18.8,7a.33.33,0,0,1,.45,0l4.92,4.92a.32.32,0,0,1,.09.23.31.31,0,0,1-.09.22l-4.92,4.92A.33.33,0,0,1,19,17.37Zm-4.46-5.24L19,16.6l4.47-4.47L19,7.66Z"/><path d="M20.24,10.78H17.81a.32.32,0,0,1-.32-.32.32.32,0,0,1,.32-.32h2.43a.32.32,0,0,1,.32.32A.32.32,0,0,1,20.24,10.78Z"/><path d="M21.79,12.59H19.88a.32.32,0,0,1-.32-.32.32.32,0,0,1,.32-.32h1.91a.32.32,0,0,1,.32.32A.32.32,0,0,1,21.79,12.59Z"/><path d="M18.17,12.59H16.26a.32.32,0,0,1-.32-.32.32.32,0,0,1,.32-.32h1.91a.32.32,0,0,1,.32.32A.32.32,0,0,1,18.17,12.59Z"/><path d="M20.24,14.41H17.81a.32.32,0,0,1-.32-.32.32.32,0,0,1,.32-.32h2.43a.32.32,0,0,1,.32.32A.32.32,0,0,1,20.24,14.41Z"/></g></svg>