<svg xmlns="http://www.w3.org/2000/svg" width="14.03" height="21" viewBox="0 0 14.03 21"><title>Kantar iLink</title><g id="layer"><path d="M6.78,21a4.77,4.77,0,0,1-1-.12,9.27,9.27,0,0,1-2.46-1,1.27,1.27,0,0,1-.16-2.15,1.26,1.26,0,0,1,.68-.26h.1a1.31,1.31,0,0,1,.27,0,1.48,1.48,0,0,1,.27.1l.21.08.31.13c.2.08.41.15.61.21a4.54,4.54,0,0,0,.71.15,2.36,2.36,0,0,0,.29,0h.09a3.63,3.63,0,0,0,.17-.65c.07-.45.16-1,.2-1.49s.06-.86.08-1.32a3,3,0,0,1-.21-1.14c0-.39,0-.73,0-1.06a9.09,9.09,0,0,0-.17-1.48,12,12,0,0,0-.4-1.45L.74,7.6.6,7.54A1.12,1.12,0,0,1,.06,6.19a1.16,1.16,0,0,1,1.07-.75,1.15,1.15,0,0,1,.26,0C3.58,6,6.81,6.79,7.1,6.83l.39,0a1.64,1.64,0,0,0,1.34-.69C9.62,5.23,12,1.7,12,1.67a1.15,1.15,0,0,1,.73-.47l.2,0a1,1,0,0,1,.46.1l.07,0,.17.11a1.13,1.13,0,0,1,.29,1.4L11.29,7.66a5.65,5.65,0,0,1,.28.62,14.42,14.42,0,0,1,.89,3,14.74,14.74,0,0,1,.22,1.49c0,.16,0,.31,0,.46l0,.18a4,4,0,0,1,0,.6l0,.06c.16.38.27.72.37,1,.18.54.32,1,.43,1.51a7.37,7.37,0,0,1,.22,3,1.39,1.39,0,0,1-1.15,1.13l-.26,0a2.32,2.32,0,0,1-.52-.07A2.44,2.44,0,0,1,10.71,20a3.65,3.65,0,0,1-.6-1,1.29,1.29,0,0,1,0-1,1.33,1.33,0,0,1,.41-.53c-.09-.2-.19-.43-.3-.66,0,.16-.07.32-.11.48a13,13,0,0,1-.44,1.46c-.1.26-.21.49-.32.71a3.79,3.79,0,0,1-.2.34l-.2.27a1.5,1.5,0,0,1-.2.23,2.74,2.74,0,0,1-1.47.7A3.91,3.91,0,0,1,6.78,21Zm-2.9-2.76a.68.68,0,0,0-.3.11.56.56,0,0,0-.2.58.55.55,0,0,0,.28.35,8.55,8.55,0,0,0,2.27.89,3.84,3.84,0,0,0,.85.1l.38,0a1.91,1.91,0,0,0,1.07-.5,1.71,1.71,0,0,0,.18-.2s.12-.17.12-.17l.16-.29A5.34,5.34,0,0,0,9,18.46a12,12,0,0,0,.41-1.37c.07-.3.14-.61.2-.93l.06-.28h.28l.33,0,.28-.05.12.25a15.46,15.46,0,0,1,.64,1.45l.12.33-.33.13a.59.59,0,0,0-.31.31.54.54,0,0,0,0,.43,2.73,2.73,0,0,0,.47.78A1.61,1.61,0,0,0,12,20a1.25,1.25,0,0,0,.32.05h.16a.66.66,0,0,0,.54-.53,6.8,6.8,0,0,0-.21-2.68c-.11-.45-.24-.92-.41-1.44-.1-.28-.2-.6-.34-.93l-.1-.25V14a2.41,2.41,0,0,0,0-.54l0-.62c-.06-.52-.13-1-.21-1.44a14,14,0,0,0-.85-2.88c-.12-.28-.23-.51-.34-.74l-.09-.17,2.79-5.17a.38.38,0,0,0-.13-.5.36.36,0,0,0-.22-.07.39.39,0,0,0-.32.16c-.4.61-2.45,3.67-3.2,4.56a2.33,2.33,0,0,1-1.9,1,2.85,2.85,0,0,1-.49,0c-.36,0-3.81-.88-5.79-1.37H1.13a.39.39,0,0,0-.19.73l6,2.19L7,9.25A13.5,13.5,0,0,1,7.47,11a12,12,0,0,1,.18,1.58c0,.34,0,.67,0,1v.11a2.34,2.34,0,0,0,.18.93l0,.1v.05c0,.5,0,1-.08,1.43s-.13,1.06-.21,1.55a2.52,2.52,0,0,1-.35,1.05l-.05.08-.12.06A1.27,1.27,0,0,1,6.6,19a2.47,2.47,0,0,1-.39,0,5,5,0,0,1-.81-.18,5.82,5.82,0,0,1-.67-.22l-.36-.15-.19-.08L4,18.25H3.88ZM6.66,5.78a3,3,0,0,1-1-.19A2.93,2.93,0,0,1,4,4a2.88,2.88,0,0,1,2-3.86A2.84,2.84,0,0,1,6.65,0,3,3,0,0,1,8.32.51a2.88,2.88,0,0,1,1.23,2A2.84,2.84,0,0,1,8.84,4.8,2.93,2.93,0,0,1,6.66,5.78Zm0-5.05a2.48,2.48,0,0,0-.54.06A2.27,2.27,0,0,0,4.72,1.88a2.18,2.18,0,0,0-.1,1.8A2.24,2.24,0,0,0,5.88,4.91,2.13,2.13,0,0,0,6.64,5a2.24,2.24,0,0,0,1.65-.72,2.19,2.19,0,0,0,.54-1.71A2.18,2.18,0,0,0,6.65.73Z"/></g></svg>