<svg xmlns="http://www.w3.org/2000/svg" viewBox="0 0 16 15.31"><defs><style>.cls-1{fill:#fcfcfc;}</style></defs><title>Kantar iLink Sprite</title><g id="layer"><path class="cls-1" d="M9,15.31H8.9L.25,14C.07,14,0,13.86,0,13.66V2.36C0,2.11.05,2.05.29,2L8.87,0,9,0c.11,0,.26,0,.26.34V.49c0,.21,0,.41,0,.62a.28.28,0,0,0,.05.17.25.25,0,0,0,.18.06h6.18c.25,0,.33.08.33.34V13.61c0,.29-.07.36-.36.36H9.53a.26.26,0,0,0-.21.07.21.21,0,0,0-.05.2V15C9.26,15.28,9.12,15.31,9,15.31ZM8.51.62.74,2.42c-.12,0-.24.07-.24.27Q.52,8,.5,13.22a.28.28,0,0,0,.28.33l2.36.35,5.4.84h0a.18.18,0,0,0,.13,0,.17.17,0,0,0,0-.15V.82c0-.06,0-.21-.15-.21H8.51ZM9.51,12a.27.27,0,0,0-.19.06.22.22,0,0,0-.05.19v1a.22.22,0,0,0,.05.19.27.27,0,0,0,.19.06h5.7c.24,0,.28,0,.28-.29v-11a.27.27,0,0,0-.06-.21.27.27,0,0,0-.19-.06H9.51a.26.26,0,0,0-.19.06.2.2,0,0,0-.05.18V4.52c0,.12,0,.16.09.17A2.62,2.62,0,0,1,10.86,4H11a.29.29,0,0,1,.3.15l.08.13,0,.06a.45.45,0,0,1-.32.17,1.75,1.75,0,0,0-1.35.67A1.77,1.77,0,0,0,11,8.08h.12a1.77,1.77,0,0,0,1.67-1.66A.41.41,0,0,1,13,6l.1-.07.09.07a.4.4,0,0,1,.14.41l0,.16a2.3,2.3,0,0,1-2.23,2l-.27,0a2.36,2.36,0,0,1-1.37-.66l-.14-.13V9.17a.22.22,0,0,0,.05.19.27.27,0,0,0,.19.06h4.16c.19,0,.31.1.31.25s-.12.26-.31.26H9.52a.24.24,0,0,0-.2.06.3.3,0,0,0-.06.2c0,.32,0,.65,0,1a.32.32,0,0,0,.06.21.25.25,0,0,0,.2.06h4.24a.27.27,0,0,1,.22.26.26.26,0,0,1-.22.25H9.51Zm3.67-6.06h-1.4c-.25,0-.33-.08-.33-.33V4.21l0,0V4.16c0-.13,0-.25,0-.37V3.64c0-.19.1-.28.3-.28A2.28,2.28,0,0,1,14,5.54a.43.43,0,0,1-.07.28.38.38,0,0,1-.27.07h-.46ZM12,4.78v.38a.22.22,0,0,0,0,.17.27.27,0,0,0,.16,0h1.06a.21.21,0,0,0,.17-.06.19.19,0,0,0,0-.18,1.79,1.79,0,0,0-1.22-1.21h-.09A.13.13,0,0,0,12,4a.19.19,0,0,0,0,.15v.67Z"/><path class="cls-1" d="M3,10.61a.25.25,0,0,1-.24-.19.5.5,0,0,1,0-.18V5.07c0-.29.08-.36.37-.36H4.25A1.59,1.59,0,0,1,5.9,6.35v.23a3.07,3.07,0,0,1,0,.68A1.58,1.58,0,0,1,4.33,8.58h-.9a.25.25,0,0,0-.17.05.19.19,0,0,0,0,.17v1.44a.9.9,0,0,1,0,.18A.23.23,0,0,1,3,10.6Zm.47-5.4a.2.2,0,0,0-.16.06.25.25,0,0,0-.06.18c0,.27,0,.54,0,.81v1.6a.22.22,0,0,0,0,.17.22.22,0,0,0,.14.05h.94a1.07,1.07,0,0,0,1-1,5.61,5.61,0,0,0,0-.82,1.07,1.07,0,0,0-1.09-1Z"/></g></svg>