<svg xmlns="http://www.w3.org/2000/svg" width="18.69" height="18.69" viewBox="0 0 18.69 18.69"><title>Kantar iLink</title><g id="layer"><path d="M6.35,8A1.82,1.82,0,1,1,8.17,6.2,1.81,1.81,0,0,1,6.35,8Zm0-2.91a1.1,1.1,0,1,0,1.1,1.1A1.1,1.1,0,0,0,6.35,5.1Z"/><path d="M12.34,8A1.82,1.82,0,1,1,14.15,6.2,1.82,1.82,0,0,1,12.34,8Zm0-2.91a1.11,1.11,0,1,0,.77.32A1.06,1.06,0,0,0,12.34,5.1Z"/><path d="M9.34,18.69a9.35,9.35,0,1,1,9.35-9.35A9.35,9.35,0,0,1,9.34,18.69Zm0-18A8.68,8.68,0,1,0,18,9.34,8.68,8.68,0,0,0,9.34.67Z"/><path d="M9.34,15.23a4,4,0,0,1-4.15-3.89.69.69,0,0,1,.69-.69h6.93a.69.69,0,0,1,.69.69A4,4,0,0,1,9.34,15.23ZM5.9,11.36a3.32,3.32,0,0,0,3.44,3.15,3.33,3.33,0,0,0,3.45-3.15Z"/></g></svg>