<svg xmlns="http://www.w3.org/2000/svg" width="19.75" height="19.75" viewBox="0 0 19.75 19.75"><title>Kantar iLink</title><g id="layer"><path d="M7.05,13.71c-.55,0-1-.62-1-1.36v-.88l2.35-1.34,0-.05a3,3,0,0,1-.55-1.79C7.81,7.24,8,6,9.88,6S12,7.24,12,8.29a3,3,0,0,1-.55,1.79l0,.05,2.34,1.34v.88c0,.74-.46,1.36-1,1.36Zm-.4-1.36c0,.43.24.76.4.76H12.7c.16,0,.41-.33.41-.76v-.53l-2.2-1.26,0,0a1.79,1.79,0,0,1-1,.31,1.82,1.82,0,0,1-1-.31l0,0-2.2,1.26Zm3.23-5.7c-1.1,0-1.47.41-1.47,1.64,0,1,.52,2,1.47,2s1.46-1,1.46-2C11.34,7.06,11,6.65,9.88,6.65Z"/><path d="M14.33,15.29v-1h1v1Zm-9.86,0v-1h1v1Zm9.86-9.87v-1h1v1Zm-9.86,0v-1h1v1Z"/><path d="M14.75,11.53a3.56,3.56,0,0,0,.1-.47l0-.07h.06a5.21,5.21,0,0,0-1-10.32A5.3,5.3,0,0,0,8.7,5.28v.06l-.06,0-.46.14L8,5.55V5.4A6,6,0,0,1,13.88,0a5.87,5.87,0,0,1,1,11.66l-.15,0Z"/><path d="M13.88,19.75a6,6,0,0,1-5.73-4.6l0-.17.17,0a3.23,3.23,0,0,0,.51.14l.06,0v.05a5.33,5.33,0,0,0,5,3.86,5.21,5.21,0,0,0,.87-10.35h-.06l0-.06a4.09,4.09,0,0,0-.18-.49L14.42,8l.17,0a5.87,5.87,0,0,1-.71,11.7Z"/><path d="M4.89,11.66A5.87,5.87,0,0,1,5.87,0a6,6,0,0,1,5.85,5.4v.15l-.14,0-.46-.14-.07,0V5.28A5.29,5.29,0,0,0,5.87.66,5.21,5.21,0,0,0,4.82,11h.07v.07c0,.16.06.32.1.47l0,.15Z"/><path d="M5.87,19.75a5.87,5.87,0,0,1-.7-11.7l.17,0-.07.16a4.14,4.14,0,0,0-.19.49l0,.06H5A5.21,5.21,0,0,0,5.87,19.1a5.33,5.33,0,0,0,5-3.86l0-.05.06,0a2.85,2.85,0,0,0,.5-.14l.17,0,0,.17A5.94,5.94,0,0,1,5.87,19.75Z"/></g></svg>