<svg xmlns="http://www.w3.org/2000/svg" viewBox="0 0 35.4 39.4"><defs><style>.a{fill:#2b221f;}</style></defs><title>iLink SVG Elements_Responsive</title><path class="a" d="M8.37,0a4.37,4.37,0,1,0,4.36,4.37A4.37,4.37,0,0,0,8.37,0Zm0,8a3.64,3.64,0,1,1,0-7.27h0A3.64,3.64,0,0,1,8.37,8Z"/><path class="a" d="M16.73,13a5.72,5.72,0,0,0-2.88-4.95l-.28-.16-.19.26A6.29,6.29,0,0,1,4.58,9.4,6.41,6.41,0,0,1,3.36,8.18l-.2-.26-.27.16A5.71,5.71,0,0,0,0,13v4a1.7,1.7,0,0,0,1.7,1.7H15a1.7,1.7,0,0,0,1.7-1.7ZM16,17a1,1,0,0,1-1,1H1.7a1,1,0,0,1-1-1V13a5,5,0,0,1,2-4L3,8.88l.19.2A7,7,0,0,0,8.35,11.4h0a7,7,0,0,0,5.19-2.32l.18-.2L14,9a5,5,0,0,1,2,4Z"/><path class="a" d="M31,20.67H21A4.37,4.37,0,0,0,16.67,25V35A4.37,4.37,0,0,0,21,39.4H31A4.37,4.37,0,0,0,35.4,35V25A4.37,4.37,0,0,0,31,20.67ZM34.67,35A3.67,3.67,0,0,1,31,38.67H21A3.65,3.65,0,0,1,17.4,35v-8.3H34.67Zm0-9H17.4V25A3.64,3.64,0,0,1,21,21.4H31A3.65,3.65,0,0,1,34.67,25Z"/><path class="a" d="M20.71,23.57a.49.49,0,0,0-.08-.13.36.36,0,0,0-.26-.11.34.34,0,0,0-.26.11.37.37,0,1,0,.52.52.35.35,0,0,0,.07-.12A.36.36,0,0,0,20.71,23.57Z"/><path class="a" d="M23.37,23.57a.32.32,0,0,0-.08-.13.36.36,0,0,0-.26-.11.34.34,0,0,0-.26.11.37.37,0,0,0,.52.52.24.24,0,0,0,.07-.12A.29.29,0,0,0,23.37,23.57Z"/><path class="a" d="M25.56,23.36h0a.33.33,0,0,0-.13.07.38.38,0,0,0,0,.52.24.24,0,0,0,.12.07c.05,0,.1,0,.15,0a.37.37,0,0,0,.36-.37.36.36,0,0,0-.11-.26.36.36,0,0,0-.25-.11A.4.4,0,0,0,25.56,23.36Z"/><path class="a" d="M30.73,14.78l-1.47,1.7-.12-.6A12.44,12.44,0,0,0,17.33,6v.74a11.61,11.61,0,0,1,11,8.92l.22.91-1.74-1.5.08,1.06L29,17.94l1.81-2.1Z"/><path class="a" d="M.67,24.62l1.47-1.7.12.6A12.44,12.44,0,0,0,14.07,33.4v-.74a11.61,11.61,0,0,1-11-8.92l-.22-.9,1.74,1.49L4.5,23.27,2.4,21.46.59,23.56Z"/></svg>