<svg xmlns="http://www.w3.org/2000/svg" width="15.28" height="17.7" viewBox="0 0 15.28 17.7"><title>Kantar iLink</title><g id="layer"><path d="M.61,17.59c1.81-2,4.15-4.83,5-7.21a.35.35,0,0,0-.22-.44.23.23,0,0,0-.11,0,.34.34,0,0,0-.33.23c-.8,2.26-3.07,5-4.84,7a.36.36,0,0,0,0,.5A.38.38,0,0,0,.61,17.59Z"/><path d="M13.77,2.25,15.2.58a.34.34,0,0,0,.08-.26.39.39,0,0,0-.12-.24A.36.36,0,0,0,14.93,0h0a.35.35,0,0,0-.24.12L13.23,1.79a.35.35,0,0,0-.08.26.35.35,0,0,0,.62.2Z"/><path d="M7,9.42a.36.36,0,0,0,.27,0,.29.29,0,0,0,.19-.18.34.34,0,0,0-.17-.46,6.05,6.05,0,0,0-2.45-.54,5,5,0,0,0-3,1C-.56,11,.38,13.79.73,14.61a.36.36,0,0,0,.46.19.35.35,0,0,0,.18-.46c-.47-1.12-1-3.19.86-4.54A4.69,4.69,0,0,1,7,9.42Z"/><path d="M10.53,10.23c3.42-1.32,4.31-3.8,3.69-5.54a4.08,4.08,0,0,0-2.89-2.61c-2.16-.52-4,1.09-5.19,4.41a.35.35,0,0,0,.67.22c.53-1.57,1.7-4,3.72-4a2.86,2.86,0,0,1,.63.08,3.4,3.4,0,0,1,2.4,2.17c.39,1.1.15,3.32-3.28,4.65a.35.35,0,1,0,.25.65Z"/><path d="M3.21,16.57a5.12,5.12,0,0,0,.69,0,4.71,4.71,0,0,0,3.07-1,4.09,4.09,0,0,0,1.36-3.21C8.39,9.17,11.92,4.82,12,4.78A.34.34,0,0,0,12,4.52a.36.36,0,0,0-.13-.23.35.35,0,0,0-.49,0c-.15.19-3.71,4.61-3.78,8A3.44,3.44,0,0,1,6.52,15a4.2,4.2,0,0,1-3.21.83H3.26a.35.35,0,0,0-.35.3A.37.37,0,0,0,3.21,16.57Z"/></g></svg>