<svg xmlns="http://www.w3.org/2000/svg" width="19.79" height="17.89" viewBox="0 0 19.79 17.89"><title>Kantar iLink</title><g id="layer"><path d="M2.8,17.77a3.67,3.67,0,0,1,.12-.38c.16-.4.33-.8.48-1.15l0-.08c.19-.42.4-.91.58-1.4a1.11,1.11,0,0,0-.45-1.22A7,7,0,0,1,.09,8.22,1.36,1.36,0,0,0,0,7.9V6.59a6.84,6.84,0,0,1,1.28-2.9A9.78,9.78,0,0,1,7.61.22,14.38,14.38,0,0,1,10.1,0a11.77,11.77,0,0,1,6.25,1.72,6.4,6.4,0,0,1,3.41,4.94,6.58,6.58,0,0,1-3.34,6.47,11.54,11.54,0,0,1-6.36,1.66l-1,0H8.93a1.81,1.81,0,0,0-1.22.43,12.6,12.6,0,0,1-4.56,2.6l-.25.07-.12,0Zm1.85-4.31a.68.68,0,0,1,0,.12c-.12.55-.22,1.11-.31,1.67l-.86,2.11L5,16.5,5.62,16l0,0a12.38,12.38,0,0,0,1.39-1.16,2.1,2.1,0,0,1,1.59-.67l.42,0a11.87,11.87,0,0,0,1.33.08A10.57,10.57,0,0,0,15.53,13,6.66,6.66,0,0,0,19.12,8.4c.51-2.48-.62-4.75-3.1-6.24A11.4,11.4,0,0,0,10.08.56,14.21,14.21,0,0,0,8,.73,9.78,9.78,0,0,0,2.22,3.44,5.15,5.15,0,0,0,.59,7.5a6.47,6.47,0,0,0,3.87,5.84l.14.06h.05Z"/><path d="M10.86,11.81A3.42,3.42,0,0,1,8.64,11L7.56,11v.55a.29.29,0,0,1-.29.29H5.18a.29.29,0,0,1-.29-.29V6.08a.29.29,0,0,1,.29-.28H7.27a.29.29,0,0,1,.29.28v.13h.62a2.68,2.68,0,0,1,.68-.49,2.76,2.76,0,0,0,.45-.28,4,4,0,0,0,1.23-1.28,1.55,1.55,0,0,0,0-1.22.31.31,0,0,1,0-.19,1,1,0,0,1,.91-.63,1,1,0,0,1,.63.23,2.74,2.74,0,0,1,.77,2.95l0,.08H14.7a1,1,0,0,1,1,.85,1,1,0,0,1-.25.86l0,0,0,0a1,1,0,0,1-.25,1.58l-.06,0,0,.05a1,1,0,0,1,.13.49,1,1,0,0,1-.86,1H14.4l0,.07a1,1,0,0,1,.07.38,1,1,0,0,1-1,1ZM7.56,10.4H8.74a.26.26,0,0,1,.19.07,2.83,2.83,0,0,0,1.93.76h2.62a.45.45,0,1,0,0-.89h-.75a.29.29,0,1,1,0-.57h1.59a.45.45,0,0,0,0-.89H12.73a.29.29,0,0,1-.29-.29.28.28,0,0,1,.29-.28h2a.45.45,0,0,0,0-.89h-2a.29.29,0,1,1,0-.58h2a.46.46,0,0,0,.34-.16.42.42,0,0,0,.09-.36A.46.46,0,0,0,14.7,6H12a.29.29,0,1,1,0-.57h.21l.09-.27a2.14,2.14,0,0,0-.6-2.31.4.4,0,0,0-.27-.11.37.37,0,0,0-.3.16c.32,1.23,0,1.93-1.46,3a3.22,3.22,0,0,1-.53.33,1.49,1.49,0,0,0-.56.45.27.27,0,0,1-.23.12H7.56Zm-2.09.83H7V6.37H5.47Z"/></g></svg>