<svg xmlns="http://www.w3.org/2000/svg" width="23" height="23" viewBox="0 0 23 23"><defs><style>.cls-1{fill:#000;}</style></defs><title>Kantar iLink_NonResponsive</title><g id="Layer_3" data-name="Layer 3"><path class="cls-1" d="M14.57,12.27H10.35V9.58A1.15,1.15,0,0,0,9.2,8.43H8.43a1.16,1.16,0,0,0-1.15,1.1l-.34,1.39L5.59,12.27h-1v-.39a.38.38,0,0,0-.38-.38H.38a.38.38,0,0,0-.38.38V22.62A.38.38,0,0,0,.38,23H4.22a.38.38,0,0,0,.38-.38v-1l1.8.59a.23.23,0,0,0,.12,0H13.8A1.14,1.14,0,0,0,15,21.08v-.76a1.13,1.13,0,0,0-.15-.57,1.14,1.14,0,0,0,.53-1V18a1.1,1.1,0,0,0-.3-.77,1.1,1.1,0,0,0,.3-.77v-.76a1.13,1.13,0,0,0-.15-.57,1.15,1.15,0,0,0,.54-1v-.76A1.15,1.15,0,0,0,14.57,12.27Zm-10.74,10H.77v-10H3.83Zm10.35-1.15a.38.38,0,0,1-.38.39H6.58l-2-.66V13H5.75A.39.39,0,0,0,6,12.92l1.53-1.53a.42.42,0,0,0,.11-.18L8,9.68a.34.34,0,0,0,0-.1.38.38,0,0,1,.38-.38H9.2a.38.38,0,0,1,.38.38v2.69H8.82V13h5.75a.38.38,0,0,1,.38.39v.76a.38.38,0,0,1-.38.39H12.65v.76h1.53a.38.38,0,0,1,.39.39v.76a.38.38,0,0,1-.39.39H13v.76h1.15a.38.38,0,0,1,.39.39v.76a.38.38,0,0,1-.39.39H13v.76h.77a.38.38,0,0,1,.38.39Z"/><path class="cls-1" d="M17.25,0A5.75,5.75,0,1,0,23,5.75,5.74,5.74,0,0,0,17.25,0Zm0,10.73a5,5,0,1,1,5-5A5,5,0,0,1,17.25,10.73Z"/><path class="cls-1" d="M18.7,3.37,16.48,5.59,15.8,4.9a1.2,1.2,0,1,0-1.7,1.7l1.57,1.56a1.15,1.15,0,0,0,1.63,0l3.1-3.1a1.2,1.2,0,0,0-1.7-1.69Zm1.15,1.15-3.1,3.1a.38.38,0,0,1-.54,0L14.65,6.05a.42.42,0,1,1,.6-.6l1,1a.38.38,0,0,0,.54,0l2.5-2.49a.42.42,0,0,1,.6,0A.43.43,0,0,1,19.85,4.52Z"/><path class="cls-1" d="M4.6,1.53h.77V2.3H4.6Z"/><path class="cls-1" d="M2.73,2.24l.67-.38.38.66-.66.38Z"/><path class="cls-1" d="M1.47,3.78l.39-.66.66.38-.38.67Z"/><path class="cls-1" d="M1.15,5h.77v.77H1.15Z"/><path class="cls-1" d="M1.47,7l.67-.38.38.66-.66.39Z"/><path class="cls-1" d="M7.45,7.23l.38-.66L8.49,7l-.38.67Z"/><path class="cls-1" d="M8.05,5h.77v.77H8.05Z"/><path class="cls-1" d="M7.45,3.5l.66-.38.38.66-.66.39Z"/><path class="cls-1" d="M6.18,2.52l.39-.66.66.38-.38.66Z"/><path class="cls-1" d="M4.22,9.2H5.75a.38.38,0,0,0,.38-.38v-1a2.68,2.68,0,1,0-2.3,0v1A.38.38,0,0,0,4.22,9.2Zm1.15-.77H4.6V8a2.49,2.49,0,0,0,.77,0ZM3.07,5.37A1.91,1.91,0,1,1,6.13,6.89V5.75H5.37V7.24a1.67,1.67,0,0,1-.77,0V5.75H3.83V6.89A1.89,1.89,0,0,1,3.07,5.37Z"/></g></svg>