<svg xmlns="http://www.w3.org/2000/svg" width="17.92" height="17.77" viewBox="0 0 17.92 17.77"><title>Kantar iLink</title><g id="layer"><path d="M5.16,12.06a2.34,2.34,0,0,1-1.82-.76,4.63,4.63,0,0,1-.81-3.17A2.61,2.61,0,0,1,3.8,5.81a2.77,2.77,0,0,1,1.38-.33,2.79,2.79,0,0,1,1.43.36A2.62,2.62,0,0,1,7.87,8.17a4.5,4.5,0,0,1-.81,3.13,2.34,2.34,0,0,1-1.82.76Zm0-6a2.4,2.4,0,0,0-1.1.3,2.07,2.07,0,0,0-1,1.86,3.92,3.92,0,0,0,.65,2.67,1.82,1.82,0,0,0,1.4.63h.07a1.82,1.82,0,0,0,1.41-.62,3.86,3.86,0,0,0,.65-2.62,2.15,2.15,0,0,0-1-1.9A2.23,2.23,0,0,0,5.22,6Z"/><path d="M12.68,12.06a2.34,2.34,0,0,1-1.82-.76,4.63,4.63,0,0,1-.81-3.17,2.61,2.61,0,0,1,1.27-2.32,3,3,0,0,1,2.81,0,2.62,2.62,0,0,1,1.26,2.33,4.5,4.5,0,0,1-.81,3.13,2.34,2.34,0,0,1-1.82.76Zm0-6a2.4,2.4,0,0,0-1.1.3,2.07,2.07,0,0,0-1,1.86,3.91,3.91,0,0,0,.65,2.67,1.82,1.82,0,0,0,1.4.63h.07a1.82,1.82,0,0,0,1.41-.62,3.92,3.92,0,0,0,.65-2.62,2.15,2.15,0,0,0-1-1.9A2.23,2.23,0,0,0,12.74,6Z"/><path d="M12.72,17.77A10.75,10.75,0,0,1,9,17.12a10.75,10.75,0,0,1-3.76.65A9.54,9.54,0,0,1,.25,16.56a.29.29,0,0,1-.12-.15A3.93,3.93,0,0,1,0,15.27v-.08a1.94,1.94,0,0,1,1.14-2,7.74,7.74,0,0,0,2.15-1,.27.27,0,0,1,.17-.06.33.33,0,0,1,.26.14.31.31,0,0,1-.08.43,7.88,7.88,0,0,1-2.31,1.06c-.61.22-.68.84-.7,1.46v.07a5,5,0,0,0,.06.78v0h0a9.54,9.54,0,0,0,4.51,1,10.26,10.26,0,0,0,2.9-.41c-.21-.1-.32-.18-.33-.18a.29.29,0,0,1-.12-.15,3.42,3.42,0,0,1-.13-1.14v-.08a2.3,2.3,0,0,1,.64-1.73l-.05,0h0a6.78,6.78,0,0,1-1.36-.74.26.26,0,0,1-.13-.2.28.28,0,0,1,0-.23.33.33,0,0,1,.26-.13.37.37,0,0,1,.18,0,7.78,7.78,0,0,0,1.87.9,8.13,8.13,0,0,0,1.82-.9.27.27,0,0,1,.17-.06.33.33,0,0,1,.26.14.27.27,0,0,1,0,.23.28.28,0,0,1-.13.2,7.79,7.79,0,0,1-1.35.73h0l-.32.12h0l-.36.1L9,13.73H8.93l-.08,0c-.61.22-.68.84-.7,1.46v.07a4.93,4.93,0,0,0,.06.78v0h0a8.23,8.23,0,0,0,.81.37l.2.08.51.17a10.86,10.86,0,0,0,3,.43,9.46,9.46,0,0,0,4.51-1h0a5.1,5.1,0,0,0,.06-.8c0-.67-.09-1.3-.7-1.52a7.77,7.77,0,0,1-2.32-1.06.26.26,0,0,1-.13-.2.28.28,0,0,1,0-.23.33.33,0,0,1,.26-.13.37.37,0,0,1,.18,0,7.42,7.42,0,0,0,2.12,1,2,2,0,0,1,1.16,2v.07a4.21,4.21,0,0,1-.12,1.14.35.35,0,0,1-.12.15A9.72,9.72,0,0,1,12.72,17.77Z"/><path d="M4,5a.31.31,0,0,1-.24-.12l-.44-.55a.3.3,0,0,1-.06-.23.3.3,0,0,1,.12-.21A.32.32,0,0,1,3.6,3.8a.28.28,0,0,1,.18.06A5,5,0,0,1,8.93,0c2.87,0,5.2,2,5.2,4.47a.32.32,0,0,1-.63,0C13.5,2.35,11.45.63,8.93.63A4.42,4.42,0,0,0,4.42,3.84a.27.27,0,0,1,.17.06.33.33,0,0,1,.13.21.32.32,0,0,1-.06.23l-.38.51A.32.32,0,0,1,4,5H4Z"/><path d="M12,5.15a.34.34,0,0,1-.21-.08l-.46-.42a.33.33,0,0,1-.11-.21.4.4,0,0,1,.08-.23.35.35,0,0,1,.24-.1h0A2.7,2.7,0,0,0,8.91,2.32,2.55,2.55,0,0,0,6.16,4.61a.32.32,0,1,1-.63,0A3.18,3.18,0,0,1,8.91,1.69,3.33,3.33,0,0,1,12.21,4h.08a.33.33,0,0,1,.13,0,.31.31,0,0,1,.15.42l-.26.5a.3.3,0,0,1-.22.17Z"/></g></svg>