<svg xmlns="http://www.w3.org/2000/svg" viewBox="0 0 32.5 28.13"><defs><style>.a{fill:#2b221f;}</style></defs><title>iLink SVG Elements_Responsive</title><path class="a" d="M12.33,7.09l-2.13,5.6a.38.38,0,0,0,.23.51.4.4,0,0,0,.51-.23l.43-1.13h2.88L14.68,13a.36.36,0,0,0,.2.22.37.37,0,0,0,.31,0,.43.43,0,0,0,.22-.2.47.47,0,0,0,0-.31L13.31,7.1a.54.54,0,0,0-.49-.33A.53.53,0,0,0,12.33,7.09Zm1.62,4H11.67l1.15-3Z"/><path class="a" d="M22.34,10c0-1.88-1.05-3.15-2.61-3.15H18.17a.4.4,0,0,0-.4.4v5.5a.39.39,0,0,0,.4.39h1.6a2.36,2.36,0,0,0,1.9-1A3.64,3.64,0,0,0,22.34,10Zm-2.57,2.36H18.56V7.64h1.17c1.11,0,1.82.93,1.82,2.36C21.55,11.17,20.94,12.36,19.77,12.36Z"/><path class="a" d="M3,20H29.53a3,3,0,0,0,3-3V3a3,3,0,0,0-3-3H3A3,3,0,0,0,0,3V7.1a.39.39,0,0,0,.39.39.39.39,0,0,0,.4-.39V3A2.19,2.19,0,0,1,3,.79H29.53A2.19,2.19,0,0,1,31.71,3V17a2.19,2.19,0,0,1-2.18,2.19H3A2.19,2.19,0,0,1,.79,17V12.9a.4.4,0,0,0-.4-.4.4.4,0,0,0-.39.4V17A3,3,0,0,0,3,20Z"/><path class="a" d="M.79,10a.36.36,0,0,0-.12-.28A.4.4,0,0,0,.39,9.6a.4.4,0,0,0-.27.12A.36.36,0,0,0,0,10a.39.39,0,0,0,.12.28.41.41,0,0,0,.55,0A.39.39,0,0,0,.79,10Z"/><path class="a" d="M30.7,24.48H29.57V23.35a.38.38,0,0,0-.75,0v1.13H1.7a.38.38,0,1,0,0,.75H28.82v1.12a.38.38,0,1,0,.75,0V25.23H30.7a.38.38,0,0,0,0-.75Z"/><path class="a" d="M30,28.13H2.4A2.39,2.39,0,0,1,0,25.74V24.3A2.39,2.39,0,0,1,2.4,21.92H30a2.39,2.39,0,0,1,2.39,2.38v1.44A2.39,2.39,0,0,1,30,28.13ZM2.4,22.67A1.63,1.63,0,0,0,.77,24.3v1.44A1.64,1.64,0,0,0,2.4,27.38H30a1.65,1.65,0,0,0,1.64-1.64V24.3A1.64,1.64,0,0,0,30,22.67Z"/></svg>