<svg xmlns="http://www.w3.org/2000/svg" width="10.7" height="10.7" viewBox="0 0 10.7 10.7"><title>Kantar iLink_NonResponsive</title><g id="Layer_3" data-name="Layer 3"><path d="M7.58,6.59,10,4.18a2.39,2.39,0,0,0,.72-1.73A2.39,2.39,0,0,0,10,.72a2.44,2.44,0,0,0-3.46,0L4.68,2.56A.25.25,0,0,0,5,2.91L6.87,1.07A2,2,0,0,1,9.63,3.83L7.23,6.24a2,2,0,0,1-2.76,0,.24.24,0,0,0-.36,0,.24.24,0,0,0,0,.35,2.45,2.45,0,0,0,3.47,0Z"/><path d="M4.71,3.54A2.48,2.48,0,0,0,3,4.25L.72,6.52A2.45,2.45,0,0,0,.72,10a2.42,2.42,0,0,0,1.73.71A2.42,2.42,0,0,0,4.18,10L5.74,8.43a.25.25,0,1,0-.35-.35L3.83,9.63A2,2,0,0,1,1.07,6.87L3.33,4.61A1.94,1.94,0,0,1,4.71,4a1.9,1.9,0,0,1,1.38.57.25.25,0,0,0,.36,0,.27.27,0,0,0,0-.36A2.49,2.49,0,0,0,4.71,3.54Z"/><path d="M6.65,8.81a.25.25,0,0,0-.25.25v1.2a.25.25,0,0,0,.25.25.25.25,0,0,0,.25-.25V9.06A.25.25,0,0,0,6.65,8.81Z"/><path d="M8,8.48a.23.23,0,0,0-.17-.07.25.25,0,0,0-.18.42l.85.85a.25.25,0,0,0,.35-.35Z"/><path d="M9.05,7.21H7.85a.25.25,0,0,0-.25.25.25.25,0,0,0,.25.25h1.2a.25.25,0,0,0,.25-.25A.25.25,0,0,0,9.05,7.21Z"/><path d="M3.45.6A.25.25,0,0,0,3.2.85v1.2a.25.25,0,0,0,.5,0V.85A.25.25,0,0,0,3.45.6Z"/><path d="M2.43,2.28l-.85-.85a.25.25,0,0,0-.18-.08.23.23,0,0,0-.17.08.23.23,0,0,0-.08.17.25.25,0,0,0,.08.18l.85.85a.25.25,0,0,0,.35,0A.24.24,0,0,0,2.43,2.28Z"/><path d="M2.24,3.4H1a.26.26,0,0,0-.25.25A.25.25,0,0,0,1,3.9h1.2a.25.25,0,0,0,.25-.25A.25.25,0,0,0,2.24,3.4Z"/></g></svg>