<svg xmlns="http://www.w3.org/2000/svg" viewBox="0 0 36 32.73"><defs><style>.a{fill:#2b221f;}</style></defs><title>iLink SVG Elements_Responsive</title><path class="a" d="M18.25,18.92c3.48,0,6.31-3.18,6.31-7.09s-2.83-7.09-6.31-7.09S12,7.92,12,11.83,14.78,18.92,18.25,18.92Zm0-13.42c3.06,0,5.54,2.84,5.54,6.33s-2.48,6.32-5.54,6.32-5.53-2.84-5.53-6.32S15.2,5.5,18.25,5.5Z"/><path class="a" d="M33.76,20.28a.39.39,0,0,0-.47.27,15.59,15.59,0,0,1-5.78,8.35v-7a.38.38,0,0,0-.26-.36l-3-1a.38.38,0,0,0-.48.24.37.37,0,0,0,.24.48l2.7.9v7a.47.47,0,0,0,.06.2A15.5,15.5,0,0,1,18.64,32V21.89a.39.39,0,0,0-.39-.38.38.38,0,0,0-.38.38V32A15.6,15.6,0,0,1,9.7,29.38a.42.42,0,0,0,.06-.19v-7l2.69-.9a.39.39,0,0,0,.25-.49.38.38,0,0,0-.49-.24l-3,1a.39.39,0,0,0-.26.36v7a15.61,15.61,0,0,1-6-9.14.39.39,0,0,0-.45-.29.39.39,0,0,0-.3.46A16.37,16.37,0,0,0,34,20.76.39.39,0,0,0,33.76,20.28Z"/><path class="a" d="M34.08,12.75l1.84-2.47a.38.38,0,0,0-.07-.54.39.39,0,0,0-.54.08l-1.38,1.86a16.37,16.37,0,0,0-31.37,0,.38.38,0,1,0,.73.22,15.6,15.6,0,0,1,29.89-.06L31,10.94a.38.38,0,0,0-.5.2.39.39,0,0,0,.2.5l2.89,1.24h0a.31.31,0,0,0,.13,0h.09l0,0,.05,0h0l.06-.06S34.07,12.77,34.08,12.75Z"/><path class="a" d="M2.46,18.21l-.06,0h0L.12,20.38a.39.39,0,0,0,0,.54A.39.39,0,0,0,.38,21a.36.36,0,0,0,.26-.11l2-1.9,2.38,1.56a.42.42,0,0,0,.21.06.38.38,0,0,0,.21-.7L2.84,18.22h0l-.07,0-.07,0H2.53A.15.15,0,0,0,2.46,18.21Z"/></svg>