<svg xmlns="http://www.w3.org/2000/svg" width="12.32" height="14.11" viewBox="0 0 12.32 14.11"><title>Kantar iLink_NonResponsive</title><g id="Layer_3" data-name="Layer 3"><path d="M8.11,14.11H3.34a.56.56,0,0,1-.4-.12.55.55,0,0,1-.12-.44c0-1.33,0-2.53,0-3.67a1.26,1.26,0,0,0-.15-.59A4.34,4.34,0,0,1,6.29,2.6a4,4,0,0,1,1.24.19,4.35,4.35,0,0,1,3.1,3.91,5.26,5.26,0,0,0,.25,1.1c.08.26.18.52.28.77s.17.42.24.63a.72.72,0,0,1,0,.65.77.77,0,0,1-.59.28h-.4C10.21,11.74,10,12,8.63,12.41v.31c0,.27,0,.55,0,.83a.54.54,0,0,1-.12.43.51.51,0,0,1-.4.13ZM8,13.41a2.44,2.44,0,0,0,0-.27c0-.22,0-.44,0-.65,0-.51.13-.72.64-.77A1,1,0,0,0,9.67,10.6c0-1,.05-1.06,1.09-1.15l0,0L10.6,9c-.16-.41-.31-.82-.45-1.24a3.26,3.26,0,0,1-.18-.9A3.73,3.73,0,0,0,7.56,3.49a3.68,3.68,0,0,0-4,1,3.51,3.51,0,0,0-.53,4,3.73,3.73,0,0,1,.46,2c0,.62,0,1.24,0,1.85V13a2.72,2.72,0,0,0,0,.28v.09Z"/><path d="M8.7,3a1.54,1.54,0,0,0,0-.17c-.05-.14-.1-.27,0-.36.27-.42.59-.82.86-1.16a.45.45,0,0,1,.28-.1.21.21,0,0,1,.12,0,.39.39,0,0,1,.17.25.18.18,0,0,1,0,.13c-.28.41-.59.81-.89,1.2l-.09.11S9,3,8.93,3L8.78,3l-.06,0Z"/><path d="M3.46,3a.38.38,0,0,1-.27-.1c-.31-.39-.61-.79-.89-1.19a.38.38,0,0,1,0-.37.49.49,0,0,1,.29-.12h0l0,0c.31.36.61.73.92,1.11l.25.31,0,0-.1.12A.43.43,0,0,1,3.55,3Z"/><path d="M1.39,5l-.06,0a10.27,10.27,0,0,1-1.2-.59A.39.39,0,0,1,0,4c0-.08.09-.13.17-.18l.1-.07,0,0,.34.18c.35.18.69.36,1,.55a.23.23,0,0,1,.08.16s0,.16,0,.22A.47.47,0,0,1,1.4,5Z"/><path d="M10.86,5,10.76,5c-.09,0-.17-.1-.18-.18a.42.42,0,0,1,.11-.39,12.21,12.21,0,0,1,1.2-.6H12a.48.48,0,0,1,.32.15.31.31,0,0,1,0,.25.18.18,0,0,1-.06.13c-.33.19-.67.37-1,.55L10.89,5Z"/><path d="M6.27,2.11A.42.42,0,0,1,6,1.82c0-.52,0-1,0-1.45,0-.09.09-.17.18-.24A.76.76,0,0,0,6.25,0l0,0,0,0a.34.34,0,0,0,.09.08.49.49,0,0,1,.19.24,2.26,2.26,0,0,1,0,.52v.26h0v.15a2.35,2.35,0,0,1,0,.53.47.47,0,0,1-.32.29Z"/><path d="M6.3,8.77A2.13,2.13,0,0,1,4.14,6.63,2.17,2.17,0,0,1,6.28,4.46h0A2.18,2.18,0,0,1,8.45,6.6,2.15,2.15,0,0,1,6.31,8.77Zm0-3.66a1.51,1.51,0,0,0,0,3A1.49,1.49,0,0,0,7.37,5.57,1.48,1.48,0,0,0,6.3,5.11Z"/><path d="M6.3,7.41a.79.79,0,0,1-.8-.79.81.81,0,0,1,.79-.81.82.82,0,0,1,.81.8A.8.8,0,0,1,6.3,7.41Zm0-.25a.55.55,0,1,0,0-1.09.55.55,0,1,0,0,1.09Z"/></g></svg>