<svg xmlns="http://www.w3.org/2000/svg" width="10.62" height="13.8" viewBox="0 0 10.62 13.8"><title>Kantar iLink_NonResponsive</title><g id="Layer_3" data-name="Layer 3"><path d="M3.6,13.28l1-1.07A5.66,5.66,0,0,0,6.05,8.38v-1a.61.61,0,0,0-.61-.61.62.62,0,0,0-.61.61v.9a4.44,4.44,0,0,1-1.14,3l-1,1.11a.13.13,0,0,0,0,.18.14.14,0,0,0,.18,0l1-1.11A4.68,4.68,0,0,0,5.09,8.28v-.9a.36.36,0,0,1,.71,0v1A5.46,5.46,0,0,1,4.39,12l-1,1.06a.13.13,0,0,0,0,.18A.12.12,0,0,0,3.6,13.28Z"/><path d="M7,8.38v-1a1.58,1.58,0,0,0-3.15,0v.9A3.48,3.48,0,0,1,3,10.62l-.71.79a.12.12,0,0,0,0,.18.13.13,0,0,0,.18,0l.71-.79a3.75,3.75,0,0,0,1-2.51v-.9a1.33,1.33,0,0,1,2.65,0v1A6.4,6.4,0,0,1,5.1,12.69l-.82.9a.14.14,0,0,0,0,.09.18.18,0,0,0,0,.09.14.14,0,0,0,.18,0l.82-.9A6.63,6.63,0,0,0,7,8.38Z"/><path d="M5.78,13.76,6,13.51A7.61,7.61,0,0,0,8,8.38v-1a2.55,2.55,0,0,0-5.09,0v.9A2.54,2.54,0,0,1,2.25,10l-.64.71a.13.13,0,0,0,0,.18.14.14,0,0,0,.09,0,.18.18,0,0,0,.09,0l.64-.71a2.81,2.81,0,0,0,.71-1.87v-.9a2.3,2.3,0,0,1,4.59,0v1a7.41,7.41,0,0,1-1.92,5l-.23.25a.13.13,0,0,0,0,.18A.14.14,0,0,0,5.78,13.76Z"/><path d="M5,4.16A.13.13,0,0,0,5.09,4,.13.13,0,0,0,5,3.91h0a3.51,3.51,0,0,0-3,3.47.13.13,0,0,0,.13.13.12.12,0,0,0,.12-.13A3.28,3.28,0,0,1,3,5.24,3.23,3.23,0,0,1,5,4.16Z"/><path d="M1.15,10.13l.57-.63a1.83,1.83,0,0,0,.46-1.22.12.12,0,0,0-.12-.13.13.13,0,0,0-.13.13,1.56,1.56,0,0,1-.4,1.05L1,10a.16.16,0,0,0,0,.09.11.11,0,0,0,0,.09A.12.12,0,0,0,1.15,10.13Z"/><path d="M8.12,11.45a.11.11,0,0,0,.07.16.11.11,0,0,0,.16-.07,8.68,8.68,0,0,0,.33-1,.12.12,0,0,0,0-.1.11.11,0,0,0-.07-.06h0a.14.14,0,0,0-.12.09A9.78,9.78,0,0,1,8.12,11.45Z"/><path d="M9,7.38A3.53,3.53,0,0,0,7.79,4.77a.11.11,0,0,0-.08,0h0a.15.15,0,0,0-.09,0,.16.16,0,0,0,0,.09.13.13,0,0,0,0,.09A3.25,3.25,0,0,1,8.7,7.38v1a8.72,8.72,0,0,1-.07,1.14.11.11,0,0,0,.1.14h0a.13.13,0,0,0,.14-.1A9.36,9.36,0,0,0,9,8.38Z"/><path d="M5.91,4.16a3.24,3.24,0,0,1,.93.28A.13.13,0,0,0,7,4.21a3.6,3.6,0,0,0-1-.3A.13.13,0,0,0,5.8,4,.13.13,0,0,0,5.91,4.16Z"/><path d="M9.8,8.5a.12.12,0,0,0,.12-.12v-1A4.49,4.49,0,0,0,5.44,2.9H5.19A.12.12,0,0,0,5.07,3a.13.13,0,0,0,0,.09.11.11,0,0,0,.09,0h.23A4.23,4.23,0,0,1,9.67,7.38v1A.12.12,0,0,0,9.8,8.5Z"/><path d="M2.86,3.88a.14.14,0,0,0,.18,0,4.18,4.18,0,0,1,1.26-.6.11.11,0,0,0,.07-.06.15.15,0,0,0,0-.09.12.12,0,0,0-.06-.08h-.1a4.45,4.45,0,0,0-1.34.63A.13.13,0,0,0,2.86,3.88Z"/><path d="M1.22,8.28v-.9A4.19,4.19,0,0,1,2.37,4.49a.16.16,0,0,0,0-.09.1.1,0,0,0,0-.09.12.12,0,0,0-.08,0h0a.18.18,0,0,0-.09,0A4.51,4.51,0,0,0,1,7.38v.9a.59.59,0,0,1-.15.4L.53,9a.16.16,0,0,0,0,.09.1.1,0,0,0,0,.09.11.11,0,0,0,.18,0L1,8.85A.87.87,0,0,0,1.22,8.28Z"/><path d="M9.36,3.66a.11.11,0,0,0-.08,0,.12.12,0,0,0,0,.18,5.1,5.1,0,0,1,1.1,1.86.13.13,0,0,0,.16.08.12.12,0,0,0,.08-.16A5.5,5.5,0,0,0,9.46,3.7.18.18,0,0,0,9.36,3.66Z"/><path d="M7.05,2.4a.12.12,0,0,0,.07.07,4.84,4.84,0,0,1,1.42.75.13.13,0,0,0,.18,0,.14.14,0,0,0,0-.09A.26.26,0,0,0,8.7,3a5.36,5.36,0,0,0-1.5-.78H7.11A.14.14,0,0,0,7,2.31.1.1,0,0,0,7.05,2.4Z"/><path d="M6.23,2a6.84,6.84,0,0,0-.79-.05A5.37,5.37,0,0,0,1.68,3.45,5.43,5.43,0,0,0,0,7.14a.12.12,0,0,0,.12.13.12.12,0,0,0,.13-.12,5.2,5.2,0,0,1,5.19-5,6.16,6.16,0,0,1,.75.05.12.12,0,0,0,.14-.11.1.1,0,0,0,0-.09A.14.14,0,0,0,6.23,2Z"/><path d="M10.1,3s0-.06,0-.09A6.33,6.33,0,0,0,8,1.5,6.41,6.41,0,0,0,5.44,1,6.72,6.72,0,0,0,4,1.14a.11.11,0,0,0-.07.06.1.1,0,0,0,0,.09.13.13,0,0,0,.15.1,6.2,6.2,0,0,1,1.42-.17,6.11,6.11,0,0,1,4.45,1.9.13.13,0,0,0,.18,0A.12.12,0,0,0,10.1,3Z"/><path d="M3.09,1.69a.12.12,0,0,0,.07-.17A.13.13,0,0,0,3,1.44H3a6.44,6.44,0,0,0-2.6,2,.12.12,0,0,0,0,.17.12.12,0,0,0,.18,0A6.14,6.14,0,0,1,3.09,1.69Z"/><path d="M7.25.26A.1.1,0,0,0,7.17.21,7.13,7.13,0,0,0,5.44,0a7.38,7.38,0,0,0-3.2.73A.13.13,0,0,0,2.18.8a.17.17,0,0,0,0,.1A.14.14,0,0,0,2.36,1,7,7,0,0,1,5.44.25a7.13,7.13,0,0,1,1.67.2.12.12,0,0,0,.1,0,.1.1,0,0,0,0-.08A.11.11,0,0,0,7.25.26Z"/><path d="M8.07.76a6.29,6.29,0,0,1,.7.32h.06A.11.11,0,0,0,8.94,1a.12.12,0,0,0,0-.1A.16.16,0,0,0,8.89.85,7.89,7.89,0,0,0,8.17.52.14.14,0,0,0,8,.59.14.14,0,0,0,8.07.76Z"/></g></svg>