<svg xmlns="http://www.w3.org/2000/svg" viewBox="0 0 23.55 16.13"><defs><style>.cls-1{fill:#231c1b;}</style></defs><title>Kantar Link Sprite</title><g id="Layer_3" data-name="Layer 3"><path class="cls-1" d="M1.6,16.13A1.6,1.6,0,0,1,0,14.53V1.6A1.6,1.6,0,0,1,1.6,0H22a1.6,1.6,0,0,1,1.59,1.6V14.53A1.6,1.6,0,0,1,22,16.13ZM1.6.69a.9.9,0,0,0-.91.91V14.53a.9.9,0,0,0,.91.91H22a.9.9,0,0,0,.9-.91V1.6A.9.9,0,0,0,22,.69Z"/><path class="cls-1" d="M17.17,13.73a.34.34,0,0,1-.34-.34v-.92H3.14a.35.35,0,0,1,0-.69H16.83v-.95a.34.34,0,0,1,.34-.34.35.35,0,0,1,.35.34v.95h2.89a.35.35,0,0,1,0,.69H17.52v.92A.35.35,0,0,1,17.17,13.73Z"/><path class="cls-1" d="M11.78,8.7a2.58,2.58,0,1,1,2.58-2.58A2.59,2.59,0,0,1,11.78,8.7Zm0-4.74a2.16,2.16,0,1,0,2.15,2.16A2.16,2.16,0,0,0,11.78,4Z"/><path class="cls-1" d="M11.34,7.33a.26.26,0,0,1-.25-.28V5.19a.26.26,0,0,1,.25-.28.41.41,0,0,1,.17,0l1.39.91a.31.31,0,0,1,.14.25.28.28,0,0,1-.14.24l-1.39.91A.29.29,0,0,1,11.34,7.33Zm.08-.4,1.25-.81L11.42,5.3Z"/></g></svg>