<svg xmlns="http://www.w3.org/2000/svg" viewBox="0 0 17.34 17"><defs><style>.cls-1{fill:#231c1b;}</style></defs><title>Kantar Link Sprite</title><g id="Layer_3" data-name="Layer 3"><path class="cls-1" d="M16.84,7.73a1.23,1.23,0,0,0,.31-1.25,1.21,1.21,0,0,0-1-.83L12,5a.51.51,0,0,1-.4-.29L9.77,1a1.23,1.23,0,0,0-2.2,0L5.72,4.75A.52.52,0,0,1,5.31,5l-4.13.61a1.21,1.21,0,0,0-1,.83A1.23,1.23,0,0,0,.5,7.73l3,2.92a.53.53,0,0,1,.16.48l-.71,4.12a1.23,1.23,0,0,0,1.78,1.29l3.7-1.95a.55.55,0,0,1,.5,0l3.7,1.95a1.26,1.26,0,0,0,.57.14,1.22,1.22,0,0,0,.72-.24,1.2,1.2,0,0,0,.48-1.19l-.7-4.12a.56.56,0,0,1,.15-.48ZM13,11.24l.71,4.12a.52.52,0,0,1-.21.53.54.54,0,0,1-.57,0L9.24,14a1.17,1.17,0,0,0-.57-.14A1.15,1.15,0,0,0,8.1,14L4.4,15.93a.53.53,0,0,1-.57,0,.52.52,0,0,1-.21-.53l.7-4.12A1.21,1.21,0,0,0,4,10.16L1,7.24a.53.53,0,0,1-.14-.55.54.54,0,0,1,.44-.37l4.13-.6a1.21,1.21,0,0,0,.92-.67L8.18,1.31A.55.55,0,0,1,8.67,1a.53.53,0,0,1,.48.31L11,5.05a1.23,1.23,0,0,0,.92.67l4.14.6a.52.52,0,0,1,.43.37.51.51,0,0,1-.13.55l-3,2.92A1.25,1.25,0,0,0,13,11.24Z"/></g></svg>