<svg xmlns="http://www.w3.org/2000/svg" viewBox="0 0 23.57 23.57"><defs><style>.cls-1{fill:#231c1b;}</style></defs><title>Kantar Link Sprite</title><g id="Layer_3" data-name="Layer 3"><path class="cls-1" d="M11.78,23.57A11.79,11.79,0,0,1,11.72,0h.07a11.79,11.79,0,0,1,8.38,20.07,11.69,11.69,0,0,1-8.31,3.5ZM6.9,18.45a9.1,9.1,0,0,0-2.11,1.11l-.28.21.27.22a10.68,10.68,0,0,0,4.65,2.34l.93.21-.67-.68a13.91,13.91,0,0,1-2.45-3.28l-.11-.22Zm9.65.12a13.78,13.78,0,0,1-2.32,3.21l-.68.7.95-.24a11,11,0,0,0,4.39-2.32l.26-.23-.28-.21a9.21,9.21,0,0,0-2-1l-.23-.09Zm-4.21,3.62.45-.4a12.89,12.89,0,0,0,2.76-3.42l.17-.31L15.37,18a15.16,15.16,0,0,0-2.77-.39h-.29ZM11,17.59A14.37,14.37,0,0,0,8.42,18l-.35.08.18.32a12.46,12.46,0,0,0,2.65,3.29l.46.41,0-4.49ZM1,12.34l0,.3a10.73,10.73,0,0,0,2.63,6.24l.17.2L4,18.92a9.88,9.88,0,0,1,2.43-1.34l.25-.1-.1-.26a14.48,14.48,0,0,1-1-4.64v-.27Zm17.19-.1v.26a14.34,14.34,0,0,1-1,4.71l-.1.26.26.1a10,10,0,0,1,2.29,1.26l.21.16.17-.2a10.73,10.73,0,0,0,2.56-6.28l0-.3Zm-11.66.07,0,.29a13.33,13.33,0,0,0,1,4.35l.09.22.23-.06a15.42,15.42,0,0,1,3.18-.5h.27l0-4.32Zm5.75,0,0,4.32.27,0a15.12,15.12,0,0,1,3.33.49l.24.07.09-.23a13.31,13.31,0,0,0,1-4.4l0-.29ZM3.57,4.79A10.73,10.73,0,0,0,1,11.07l0,.29,4.56,0v-.27a14.61,14.61,0,0,1,1-4.65l.1-.26-.26-.1A9.76,9.76,0,0,1,3.94,4.74l-.2-.15ZM7.51,6.68a13.6,13.6,0,0,0-1,4.36v.29l4.76,0,0-4.32H11a15.63,15.63,0,0,1-3.18-.45L7.6,6.46Zm8.31-.25A15.46,15.46,0,0,1,12.51,7h-.26l0,4.33,4.94,0,0-.3a13.6,13.6,0,0,0-1-4.39l-.09-.22Zm3.72-1.78a10,10,0,0,1-2.3,1.29L17,6.05l.1.26A14.25,14.25,0,0,1,18.17,11l0,.26,4.38,0,0-.29a10.67,10.67,0,0,0-2.63-6.25l-.17-.2ZM10.78,2A12.94,12.94,0,0,0,8.19,5.25L8,5.57l.35.08A14.08,14.08,0,0,0,11,6h.29l0-4.44Zm1.46,4,.29,0a14.23,14.23,0,0,0,2.75-.41l.35-.09-.18-.32a12.81,12.81,0,0,0-2.78-3.35l-.45-.39ZM9.37,1.26a10.88,10.88,0,0,0-4.69,2.4l-.26.23.28.21A9.32,9.32,0,0,0,6.84,5.19l.23.09.11-.22A13.7,13.7,0,0,1,9.63,1.72l.67-.67Zm4.68.49A14,14,0,0,1,16.45,5l.11.22.23-.09a9.13,9.13,0,0,0,2-1.07l.28-.21-.27-.22a10.81,10.81,0,0,0-4.48-2.29l-1-.23Z"/></g></svg>