<svg xmlns="http://www.w3.org/2000/svg" viewBox="0 0 21.02 19.49"><defs><style>.cls-1{fill:#231c1b;}</style></defs><title>Kantar Link Sprite</title><g id="Layer_3" data-name="Layer 3"><path class="cls-1" d="M2,19.49a2,2,0,0,1-2-2V6.6a2,2,0,0,1,2-2H7.33l0-.06A3.73,3.73,0,0,1,9.16,3.18l.15-.06L6.77.54a.31.31,0,0,1,0-.44.29.29,0,0,1,.44,0L10.05,3l0,0a2.75,2.75,0,0,1,.42,0A2.89,2.89,0,0,1,11,3L13.83.1a.29.29,0,0,1,.44,0,.32.32,0,0,1,.1.22.34.34,0,0,1-.1.22L11.74,3.12l.15.06a4,4,0,0,1,1.86,1.39l5.32,0A2,2,0,0,1,21,6.6V17.5a2,2,0,0,1-1.95,2ZM2,5.24A1.34,1.34,0,0,0,.63,6.6V17.5A1.34,1.34,0,0,0,2,18.86H19.07A1.35,1.35,0,0,0,20.4,17.5V6.6a1.35,1.35,0,0,0-1.33-1.36Zm11-.63-.21-.18a3.46,3.46,0,0,0-2.24-.86,3.4,3.4,0,0,0-2.24.86l-.2.18Z"/><path class="cls-1" d="M2.83,17a.52.52,0,0,1-.53-.53V7.65a.52.52,0,0,1,.53-.53H15.88a.51.51,0,0,1,.52.53v8.8a.51.51,0,0,1-.52.53Zm12.94-.64V7.76H2.93v8.58Z"/><path class="cls-1" d="M18.18,8.6a.33.33,0,0,1-.32-.32A.32.32,0,0,1,18.18,8h1.16a.32.32,0,0,1,.32.32.32.32,0,0,1-.32.32Z"/><path class="cls-1" d="M18.18,10.27a.32.32,0,1,1,0-.63h1.16a.32.32,0,1,1,0,.63Z"/><path class="cls-1" d="M18.18,12a.32.32,0,0,1-.32-.32.33.33,0,0,1,.32-.32h1.16a.32.32,0,0,1,.32.32.32.32,0,0,1-.32.32Z"/></g></svg>