<svg id="Layer_1" data-name="Layer 1" xmlns="http://www.w3.org/2000/svg" viewBox="0 0 21.7 24.8"><defs><style>.cls-1{fill:#fff;}</style></defs><title>iLink</title><path class="cls-1" d="M16.53,4.65h-1.3c-.06-.15-.12-.3-.19-.45L16,3.28a.52.52,0,0,0,0-.73L14.5,1.08a.52.52,0,0,0-.73,0L12.85,2a4.32,4.32,0,0,0-.45-.19V.52A.52.52,0,0,0,11.88,0H9.81A.51.51,0,0,0,9.3.52v1.3A3.57,3.57,0,0,0,8.85,2l-.92-.93a.52.52,0,0,0-.73,0L5.73,2.55a.52.52,0,0,0,0,.73l.93.92a4.32,4.32,0,0,0-.19.45H5.17a.52.52,0,0,0-.52.52V7.23a.52.52,0,0,0,.52.52h1.3a4.32,4.32,0,0,0,.19.45l-.93.92a.52.52,0,0,0,0,.73L7.2,11.31a.52.52,0,0,0,.73,0l.92-.92a4.68,4.68,0,0,0,.45.19v1.3a.51.51,0,0,0,.51.52h2.07a.52.52,0,0,0,.52-.52v-1.3l.45-.19.92.92a.52.52,0,0,0,.73,0L16,9.85a.52.52,0,0,0,0-.73L15,8.2c.07-.15.13-.3.19-.45h1.3a.52.52,0,0,0,.52-.52V5.17A.52.52,0,0,0,16.53,4.65ZM16,6.71H14.85a.52.52,0,0,0-.5.39A3.82,3.82,0,0,1,14,8a.51.51,0,0,0,.08.63l.83.83-.73.73-.83-.83a.51.51,0,0,0-.63-.08,3.82,3.82,0,0,1-.93.39.51.51,0,0,0-.39.5v1.16h-1V10.2a.51.51,0,0,0-.39-.5A4.17,4.17,0,0,1,9,9.31a.51.51,0,0,0-.62.08l-.83.83-.73-.73.83-.83A.53.53,0,0,0,7.74,8a3.46,3.46,0,0,1-.39-.93.52.52,0,0,0-.5-.38H5.68v-1H6.85a.52.52,0,0,0,.5-.38,3.82,3.82,0,0,1,.39-.93.53.53,0,0,0-.08-.63l-.83-.83.73-.73L8.39,3A.51.51,0,0,0,9,3.09a4,4,0,0,1,.93-.39.51.51,0,0,0,.39-.5V1h1V2.2a.51.51,0,0,0,.39.5,3.82,3.82,0,0,1,.93.39A.53.53,0,0,0,13.31,3l.83-.83.73.73L14,3.74a.51.51,0,0,0-.08.63,3.91,3.91,0,0,1,.39.92.51.51,0,0,0,.5.39H16Z"/><path class="cls-1" d="M10.85,4.13A2.07,2.07,0,1,0,12.91,6.2,2.07,2.07,0,0,0,10.85,4.13Zm0,3.1a1,1,0,1,1,1-1A1,1,0,0,1,10.85,7.23Z"/><path class="cls-1" d="M7.23,12.91v1c0,1.72-.92,3.12-2.06,3.12S3.1,15.65,3.1,13.93V13a2.21,2.21,0,0,1,2.07-1.63v-1a3.24,3.24,0,0,0-3.09,2.46.49.49,0,0,0,0,.12v1c0,2.33,1.36,4.15,3.1,4.15s3.1-1.82,3.1-4.15v-1Z"/><path class="cls-1" d="M7.75,18.08H7.62a1,1,0,0,1-.9-1h-1v.12a2,2,0,0,0,2.07,1.94A1.56,1.56,0,0,1,9.3,20.66V24.8h1V20.66A2.59,2.59,0,0,0,7.75,18.08Z"/><path class="cls-1" d="M4.65,17.05h-1v.12a1,1,0,0,1-1,.91A2.59,2.59,0,0,0,0,20.66V24.8H1V20.66a1.56,1.56,0,0,1,1.55-1.55H2.7A2,2,0,0,0,4.65,17.05Z"/><rect class="cls-1" x="2.07" y="21.18" width="1.03" height="3.62"/><rect class="cls-1" x="7.23" y="21.18" width="1.03" height="3.62"/><path class="cls-1" d="M19.61,12.79a3.23,3.23,0,0,0-3.08-2.46v1A2.22,2.22,0,0,1,18.6,13v.94c0,1.72-.93,3.12-2.07,3.12s-2.07-1.4-2.07-3.12v-1h-1v1c0,2.33,1.36,4.15,3.1,4.15s3.1-1.82,3.1-4.15v-1A.5.5,0,0,0,19.61,12.79Z"/><path class="cls-1" d="M19.11,18.08H19a1,1,0,0,1-.91-1h-1v.12a2,2,0,0,0,2.06,1.94,1.55,1.55,0,0,1,1.55,1.55V24.8h1V20.66A2.59,2.59,0,0,0,19.11,18.08Z"/><path class="cls-1" d="M16,17.05H15v.12a1,1,0,0,1-1,.91,2.59,2.59,0,0,0-2.59,2.58V24.8h1V20.66A1.55,1.55,0,0,1,14,19.11h.12A2,2,0,0,0,16,17.05Z"/><rect class="cls-1" x="13.43" y="21.18" width="1.03" height="3.62"/><rect class="cls-1" x="18.6" y="21.18" width="1.03" height="3.62"/><rect class="cls-1" x="10.33" y="13.43" width="1.03" height="1.03"/><rect class="cls-1" x="10.33" y="15.5" width="1.03" height="1.03"/><rect class="cls-1" x="10.33" y="17.56" width="1.03" height="1.03"/></svg>