<svg xmlns="http://www.w3.org/2000/svg" viewBox="0 0 108.14 110.14"><defs><style>.cls-1{fill:#f3f4f4;stroke:#333;opacity:0.3;}.cls-1,.cls-2{stroke-miterlimit:10;}.cls-2{fill:none;stroke:#231e1e;stroke-width:3px;}.cls-3{fill:#231c1b;}</style></defs><title>Kantar Link Sprite</title><g id="Layer_3" data-name="Layer 3"><ellipse class="cls-1" cx="54.07" cy="55.09" rx="53.57" ry="53.55"/><path class="cls-2" d="M35.77,4.7A53.91,53.91,0,0,1,72,4.57"/><path class="cls-2" d="M36,105.56a53.72,53.72,0,0,0,36.22-.13"/><path class="cls-3" d="M82.2,74.5H25.81c-.89,0-1.09-.21-1.09-1.14V36.86c0-1,.21-1.17,1.19-1.17H75.13c2.34,0,4.67,0,7,0,.7,0,1.06.19,1.29.68V73.79c-.18.52-.52.71-1.22.71ZM26.31,72.89H81.76V37.33H26.31Z"/><path class="cls-3" d="M68.91,56a7,7,0,0,1,0-13.92h.11A7,7,0,0,1,69,56Zm0-12.34a5.21,5.21,0,0,0-5.07,3.82,5.75,5.75,0,0,0,.53,4.4,5.08,5.08,0,0,0,3.13,2.36,5.8,5.8,0,0,0,1.49.19A5,5,0,0,0,74,51l.12-.47-.62-.13-.33-.06-4-.49a1.15,1.15,0,0,1-.89-.45,1.11,1.11,0,0,1,.15-1L70.8,44l-.56-.15A5.92,5.92,0,0,0,68.86,43.66Zm1.35,4.75,4.2.52-.09-.59A5.2,5.2,0,0,0,72.68,45l-.44-.4Z"/><path class="cls-3" d="M52.78,67.11a.81.81,0,0,1-.79-.89c0-1.27,0-2.54,0-3.81V44.24c0-.63.23-1,.68-1h.13c.48,0,.77.35.77.93,0,1.18,0,2.36,0,3.54V66.22c0,.55-.34.89-.8.89Z"/><path class="cls-3" d="M47.82,67.11c-.7,0-.77-.7-.78-1V56.72c0-1.74,0-3.47,0-5.2,0-.53.29-.87.75-.87l.18,0c.52.09.62.57.62,1v10.9c0,1.2,0,2.39,0,3.58,0,.62-.29,1-.78,1Z"/><path class="cls-3" d="M37.9,67.11a.8.8,0,0,1-.38-.1.78.78,0,0,1-.42-.75v-.62c0-3.89,0-7.77,0-11.65a.77.77,0,0,1,.78-.86.79.79,0,0,1,.79.88c0,1.46,0,2.92,0,4.37V62c0,1.39,0,2.79,0,4.18A.86.86,0,0,1,37.9,67.11Z"/><path class="cls-3" d="M62.88,62.13c-.62,0-.93-.26-.94-.76a.76.76,0,0,1,.2-.55,1,1,0,0,1,.71-.24H75a.81.81,0,0,1,.87.52c.16.58-.13.77-.23.83a1.32,1.32,0,0,1-.67.19H62.88Z"/><path class="cls-3" d="M62.89,67.11c-.38,0-.86-.12-.94-.65a.8.8,0,0,1,.15-.63.93.93,0,0,1,.73-.28H75.09a.75.75,0,0,1,.81.7.79.79,0,0,1-.58.83,1.27,1.27,0,0,1-.34,0H62.89Z"/><path class="cls-3" d="M42.85,67.11c-.73,0-.78-.79-.78-1V56.53c0-.63.31-.8.54-.87a.87.87,0,0,1,.31,0,.59.59,0,0,1,.51.28,1.54,1.54,0,0,1,.19.73c0,1.15,0,2.3,0,3.44v6c0,.37-.1,1-.77,1Z"/><path class="cls-3" d="M32.93,67.11a.77.77,0,0,1-.77-.82c0-.55,0-1.09,0-1.64V63.11c0-.56,0-1.12,0-1.69a.76.76,0,0,1,.75-.84h0a.76.76,0,0,1,.79.84c0,1.62,0,3.25,0,4.87a.77.77,0,0,1-.77.82Z"/></g></svg>