<svg xmlns="http://www.w3.org/2000/svg" viewBox="0 0 108.14 110.14"><defs><style>.cls-1{fill:#f3f4f4;stroke:#333;opacity:0.3;}.cls-1,.cls-2{stroke-miterlimit:10;}.cls-2{fill:none;stroke:#231e1e;stroke-width:3px;}.cls-3{fill:#231c1b;}</style></defs><title>Kantar Link Sprite</title><g id="Layer_3" data-name="Layer 3"><ellipse class="cls-1" cx="54.07" cy="55.09" rx="53.57" ry="53.55"/><path class="cls-2" d="M35.77,4.7A53.91,53.91,0,0,1,72,4.57"/><path class="cls-2" d="M36,105.56a53.72,53.72,0,0,0,36.22-.13"/><path class="cls-3" d="M63.68,25.49a4.15,4.15,0,0,1-.07,4.29c2.56,2.14,2.55,4.94,2.14,7.84-.08.53-.1.87.49,1.21a2.62,2.62,0,0,1,1.11,2.81,7.29,7.29,0,0,1-2.17,4.2,1.74,1.74,0,0,0-.51.91A13.07,13.07,0,0,1,61.22,55c1.09,2.07,2.13,4.13,3.24,6.15a1.52,1.52,0,0,0,.93.61c3.24.81,6.49,1.56,9.74,2.36a8.78,8.78,0,0,1,7,7.3c.81,4.06,1.55,8.14,2.32,12.21.06.32.08.64.13,1h-61c.23-1.33.45-2.63.69-3.92.58-3.08,1.17-6.17,1.77-9.25a9.32,9.32,0,0,1,7.2-7.38q4.36-.93,8.74-1.83a1.55,1.55,0,0,0,1.26-1c.88-1.87,1.82-3.72,2.78-5.56a.85.85,0,0,0-.13-1.13,12.71,12.71,0,0,1-3-7.3,3.9,3.9,0,0,0-.58-1.31,32.26,32.26,0,0,1-2-3.74A2.76,2.76,0,0,1,41.36,39a1.39,1.39,0,0,0,.35-.94c.1-1.5,0-3,.23-4.5a4.5,4.5,0,0,1,3.3-4.12,1.23,1.23,0,0,0,.62-.42c2-3.08,5-3.79,8.34-3.35,2,.26,4,.94,6,1.33a2.84,2.84,0,0,0,1.58-.36A18,18,0,0,0,63.68,25.49Zm-3,3.9c-.83-.23-1.56-.45-2.29-.64-2.53-.66-5.08-1.29-7.71-.75-1.54.3-2.81,1.05-3.08,2.74-.13.78-.46.87-1.12.87-1.47,0-2.22.54-2.37,2a33.24,33.24,0,0,0,0,5c.06,1-.11,1.86-1.07,2.25-.74.29-.85.81-.56,1.31.6,1,1.36,1.94,2,2.93a4.21,4.21,0,0,1,.61,1.24,29.29,29.29,0,0,0,1.08,4.34,8,8,0,0,0,12.92,2.74,8.4,8.4,0,0,0,2.78-5.32A7.59,7.59,0,0,1,64,43.18a2.42,2.42,0,0,0,.78-2.33c-1.46-.36-1.68-.74-1.62-2.2a34.48,34.48,0,0,0,.05-5.18c-.16-1.57-.9-2.07-2.44-2.3-.42-.06-.84-.15-1.39-.25Zm21.2,52.93c0-.26,0-.46-.08-.65q-.94-4.87-1.9-9.74a6.49,6.49,0,0,0-5.05-5.37c-1-.28-2.08-.5-3.13-.74-2.33-.55-4.66-1.08-7-1.63C63,70.29,61.42,76.28,59.8,82.32ZM42.68,64.47c-3.29.78-6.51,1.4-9.64,2.32a6.18,6.18,0,0,0-4.4,5c-.44,2.13-.84,4.27-1.25,6.4l-.82,4.25h21C45.94,76.47,44.33,70.55,42.68,64.47Zm5.39-7.87c-1,1.94-2,3.8-2.89,5.69A2.71,2.71,0,0,0,45,64c1.23,4.79,2.51,9.57,3.79,14.34.19.71.4,1.41.6,2.11.37-2.23.46-4.44.83-6.61.43-2.54.31-4.83-1.32-7-.83-1.11-.23-2,1.16-2,2.07,0,4.15.09,6.22,0s3.1.8,1.63,2.85a6.34,6.34,0,0,0-1,5.39,5.29,5.29,0,0,1,.07.8c.23,2.23.45,4.47.7,6.86a2.35,2.35,0,0,0,.26-.39q2.28-8.43,4.53-16.84a1.05,1.05,0,0,0,.05-.67c-1.05-2-2.12-4.07-3.22-6.16A11,11,0,0,1,48.07,56.6ZM53,71,51.89,82.47H55.5c-.38-3.87-.74-7.67-1.1-11.45Zm-1-3.81c.65,1.52.72,1.42,2.43,1.42.49,0,1.28-1.42,1.28-1.42H52Z"/></g></svg>