<svg xmlns="http://www.w3.org/2000/svg" viewBox="0 0 15.74 16"><defs><style>.a{fill:#ececeb;}</style></defs><title>iLink SVG Elements_Responsive</title><path class="a" d="M.26,7.87a.26.26,0,0,0,.26-.26V1.84H.79a.27.27,0,0,0,0-.53H.26A.26.26,0,0,0,0,1.57v6A.26.26,0,0,0,.26,7.87Z"/><path class="a" d="M15.48,1.31H14.16V1.05a1,1,0,0,0-1.05-1h-.52a1,1,0,0,0-1.05,1.05v.79a.26.26,0,0,0,.26.26h2.1a.26.26,0,0,0,.26-.26h1.05v8.39H.52V8.66a.26.26,0,0,0-.26-.27A.27.27,0,0,0,0,8.66v1.83a.26.26,0,0,0,.26.26h4.2V11a.78.78,0,0,0,.79.78H9.44v.27a.26.26,0,0,1-.26.26H6.56a.26.26,0,0,0-.26.26.25.25,0,0,0,.26.26v2.89a.26.26,0,0,0,.26.26.26.26,0,0,0,.26-.26V12.85H8.66v2.89a.26.26,0,0,0,.26.26.26.26,0,0,0,.26-.26V12.85a.79.79,0,0,0,.79-.78V11.8h.52a.78.78,0,0,0,.79-.78v-.27h4.2a.26.26,0,0,0,.26-.26V1.57A.26.26,0,0,0,15.48,1.31Zm-3.41.26V1.05a.52.52,0,0,1,.52-.53h.52a.53.53,0,0,1,.53.53v.52ZM10.75,11a.26.26,0,0,1-.26.26H5.25A.27.27,0,0,1,5,11v-.27h5.77Z"/><path class="a" d="M1.84,2.36H3.93A.27.27,0,0,0,4.2,2.1V1.84H5.77a.27.27,0,0,0,0-.53H4.2a1,1,0,0,0-1.05-1H2.62a1,1,0,0,0-1,1.05V2.1A.27.27,0,0,0,1.84,2.36Zm.26-1A.52.52,0,0,1,2.62.79h.53a.52.52,0,0,1,.52.52v.53H2.1Z"/><path class="a" d="M6.82,2.36h2.1a.26.26,0,0,0,.26-.26V1.84h1.57a.27.27,0,1,0,0-.53H9.18a1,1,0,0,0-1-1H7.61A1,1,0,0,0,6.56,1.31V2.1A.26.26,0,0,0,6.82,2.36Zm.26-1A.52.52,0,0,1,7.61.79h.52a.52.52,0,0,1,.53.52v.53H7.08Z"/><path class="a" d="M11.54,5.77a.26.26,0,0,0,.26-.26V4.2a.26.26,0,0,0-.26-.27h-.06l-2.07.52h-1a1.31,1.31,0,0,0-.19,2.6l.36,1.08a.75.75,0,0,0,.72.52A.77.77,0,0,0,10,7.89a.85.85,0,0,0,0-.23l-.16-.47,1.64.41a.27.27,0,0,0,.32-.19V6.56a.25.25,0,0,0-.26-.26.26.26,0,0,0-.26.26V7L9.7,6.61V4.93l1.58-.4v1A.26.26,0,0,0,11.54,5.77Zm-3.93,0A.79.79,0,0,1,8.39,5h.79V6.56H8.39A.78.78,0,0,1,7.61,5.77ZM9.47,8a.24.24,0,0,1-.34,0A.25.25,0,0,1,9.05,8l-.29-.89h.49l.25.74a.26.26,0,0,1,0,.21Z"/><path class="a" d="M12.59,4.72l.12,0,1-.52a.26.26,0,0,0-.24-.47l-1,.52a.28.28,0,0,0-.12.36A.27.27,0,0,0,12.59,4.72Z"/><path class="a" d="M12.59,6h1.05a.26.26,0,0,0,.26-.26.26.26,0,0,0-.26-.26H12.59a.26.26,0,0,0-.26.26A.26.26,0,0,0,12.59,6Z"/><path class="a" d="M13.7,7.09l-1-.26a.26.26,0,0,0-.32.18.26.26,0,0,0,.18.32h0l1.05.26h.06a.27.27,0,0,0,.26-.27.26.26,0,0,0-.2-.25Z"/><path class="a" d="M6.3,5A1.32,1.32,0,0,0,5,3.67H2.36a.26.26,0,0,0-.26.26V5a1.32,1.32,0,0,0,.8,1.21,1.28,1.28,0,0,0,.32.71,1.32,1.32,0,0,0-.86,1.23v.53a.27.27,0,0,0,.53,0V8.13a.79.79,0,0,1,.52-.74v.22a.25.25,0,0,0,.08.18L4,8.32a.27.27,0,0,0,.37,0l.53-.53A.24.24,0,0,0,5,7.61V7.39a.78.78,0,0,1,.53.74v.53a.26.26,0,0,0,.26.26A.26.26,0,0,0,6,8.66V8.13A1.31,1.31,0,0,0,5.17,6.9a1.28,1.28,0,0,0,.32-.71A1.33,1.33,0,0,0,6.3,5ZM2.62,5V4.2H5A.78.78,0,0,1,5.77,5a.81.81,0,0,1-.26.59V5.51a.79.79,0,0,0-.79-.79h-1a.78.78,0,0,0-.78.79v.06A.78.78,0,0,1,2.62,5ZM4.2,6.82A.79.79,0,0,1,3.41,6V5.51a.26.26,0,0,1,.26-.26h1A.25.25,0,0,1,5,5.51V6A.78.78,0,0,1,4.2,6.82Zm0,.94L3.93,7.5V7.32a1.57,1.57,0,0,0,.53,0V7.5Z"/></svg>