<svg xmlns="http://www.w3.org/2000/svg" viewBox="0 0 17.46 16"><defs><style>.a{fill:#ececeb;}</style></defs><title>iLink SVG Elements_Responsive</title><path class="a" d="M16,4.65h-.74V4.18l.46-.51a1.4,1.4,0,0,0,.37-.95V1.52A1.52,1.52,0,0,0,14.54,0h-.7a1.53,1.53,0,0,0-1.52,1.52v1.2a1.4,1.4,0,0,0,.37.95l.46.51v.47h-.73A1.49,1.49,0,0,0,11,5.83l-.23,0H9.86V5.23l.53-.58A1.57,1.57,0,0,0,10.8,3.6V2.25A1.68,1.68,0,0,0,9.12.57a.26.26,0,0,0-.26.26.26.26,0,0,0,.26.27,1.14,1.14,0,0,1,1.15,1.15V3.6a1,1,0,0,1-.27.7l-.54.6a.25.25,0,0,0-.12.22v1a.27.27,0,0,0,.26.27h1.13a1.12,1.12,0,0,1,1.12,1.12V9.11H5.6V7.46a1.12,1.12,0,0,1,.74-1l0,0a1,1,0,0,1,.33,0H7.85a.27.27,0,0,0,.26-.27v-1A.25.25,0,0,0,8,4.9l-.54-.6a1,1,0,0,1-.27-.7V2.25A1.15,1.15,0,0,1,8.33,1.1.26.26,0,0,0,8.59.83.26.26,0,0,0,8.33.57,1.68,1.68,0,0,0,6.65,2.25V3.6a1.57,1.57,0,0,0,.41,1.05l.53.58v.58H6.72l-.21,0A1.51,1.51,0,0,0,5.05,4.65H4.31V4.18l.46-.51a1.4,1.4,0,0,0,.37-.95V1.52A1.52,1.52,0,0,0,3.62,0h-.7A1.52,1.52,0,0,0,1.4,1.52v1.2a1.4,1.4,0,0,0,.37.95l.46.51v.47H1.5A1.5,1.5,0,0,0,0,6.15V7.84a.27.27,0,0,0,.26.27H4.35a.27.27,0,0,0,0-.53H.53V6.15a1,1,0,0,1,1-1h1a.27.27,0,0,0,.27-.27V4.07a.25.25,0,0,0-.12-.22l-.48-.53a.88.88,0,0,1-.23-.6V1.52a1,1,0,0,1,1-1h.7a1,1,0,0,1,1,1v1.2a.89.89,0,0,1-.24.6l-.47.53a.23.23,0,0,0-.12.22v.84a.27.27,0,0,0,.26.27h1A1,1,0,0,1,6,6a1.64,1.64,0,0,0-.93,1.48V9.37a.26.26,0,0,0,.27.26h6.77a.26.26,0,0,0,.27-.26V7.46A1.66,1.66,0,0,0,11.46,6a1,1,0,0,1,1-.8h1a.27.27,0,0,0,.27-.27V4.07a.25.25,0,0,0-.12-.22l-.48-.53a.88.88,0,0,1-.23-.6V1.52a1,1,0,0,1,1-1h.7a1,1,0,0,1,1,1v1.2a.89.89,0,0,1-.24.6l-.47.53a.23.23,0,0,0-.12.22v.84a.27.27,0,0,0,.26.27h1a1,1,0,0,1,1,1V7.58H13.16a.27.27,0,0,0,0,.53h4a.26.26,0,0,0,.26-.27V6.15A1.5,1.5,0,0,0,16,4.65Z"/><path class="a" d="M11.37,13a.28.28,0,0,0-.2-.18l-1.44-.23-.67-1.29a.26.26,0,0,0-.46,0l-.67,1.29-1.43.23a.28.28,0,0,0-.21.18.26.26,0,0,0,.06.27l1,1L7.15,15.7a.28.28,0,0,0,.11.25.3.3,0,0,0,.15.05l.12,0,1.3-.65,1.3.65a.24.24,0,0,0,.27,0,.28.28,0,0,0,.11-.25l-.22-1.44,1-1A.26.26,0,0,0,11.37,13ZM9.82,14a.25.25,0,0,0-.07.22l.16,1.06-1-.48a.25.25,0,0,0-.24,0l-1,.48.16-1.06A.22.22,0,0,0,7.84,14l-.76-.77,1.07-.17a.3.3,0,0,0,.19-.14l.49-1,.5,1a.26.26,0,0,0,.19.14l1.06.17Z"/><path class="a" d="M17.12,11a.28.28,0,0,0-.21-.18l-1.43-.23-.67-1.29a.25.25,0,0,0-.23-.15.28.28,0,0,0-.24.15l-.66,1.29-1.44.23A.28.28,0,0,0,12,11a.27.27,0,0,0,.06.27l1,1-.22,1.44A.28.28,0,0,0,13,14a.24.24,0,0,0,.27,0l1.3-.65,1.3.65a.2.2,0,0,0,.11,0,.3.3,0,0,0,.16-.05.25.25,0,0,0,.1-.25L16,12.33l1-1A.27.27,0,0,0,17.12,11Zm-1.55,1a.22.22,0,0,0-.07.22l.16,1.06-1-.48-.12,0-.12,0-1,.48.16-1.06a.25.25,0,0,0-.07-.22l-.76-.77,1.06-.18a.24.24,0,0,0,.19-.13l.5-1,.49,1a.26.26,0,0,0,.19.13l1.07.18Z"/><path class="a" d="M5.63,11a.28.28,0,0,0-.21-.18L4,10.62,3.32,9.33a.26.26,0,0,0-.47,0l-.67,1.29-1.43.23A.28.28,0,0,0,.54,11a.29.29,0,0,0,.06.27l1,1-.22,1.44a.25.25,0,0,0,.1.25.24.24,0,0,0,.27,0l1.3-.65,1.3.65a.27.27,0,0,0,.12,0A.27.27,0,0,0,4.65,14a.28.28,0,0,0,.11-.25l-.22-1.44,1-1A.27.27,0,0,0,5.63,11Zm-1.56,1a.28.28,0,0,0-.07.22l.16,1.06-1-.48-.12,0a.2.2,0,0,0-.11,0l-1,.48.17-1.06a.25.25,0,0,0-.08-.22l-.75-.77,1.06-.18A.26.26,0,0,0,2.59,11l.49-1,.5,1a.26.26,0,0,0,.19.13l1.06.18Z"/></svg>