<svg xmlns="http://www.w3.org/2000/svg" viewBox="0 0 24.4 23.76"><defs><style>.cls-1{fill:#fff;}</style></defs><title>Kantar iLink</title><g id="layer"><path class="cls-1" d="M.66,23.76c-.46,0-.66-.2-.66-.66V.67C0,.2.2,0,.68,0h23c.48,0,.68.2.68.69V23.1c0,.46-.2.66-.65.66H.66Zm.49-1.14h22.1V1.14H1.15Z"/><path class="cls-1" d="M5.31,18.9a.39.39,0,0,1-.3-.13.44.44,0,0,1,0-.67l1.71-1.7.17-.17-.36-.32-.35-.33L5,14.41a.45.45,0,0,1,0-.68.43.43,0,0,1,.3-.13.53.53,0,0,1,.37.17l1,1,.93.92.25-.33A1.16,1.16,0,0,1,8,15.13l1.36-1.36a.53.53,0,0,1,.37-.17.44.44,0,0,1,.31.14.46.46,0,0,1,0,.67L8.37,16.06l-.07.13-.07.15L10,18.12a.45.45,0,0,1,.09.55.44.44,0,0,1-.38.23.25.25,0,0,1-.12,0,.72.72,0,0,1-.29-.18c-.41-.4-.81-.81-1.25-1.26l-.53-.59-.37.32a1.4,1.4,0,0,1-.16.22c-.44.46-.89.9-1.34,1.35A.56.56,0,0,1,5.31,18.9Z"/><path class="cls-1" d="M7.52,11.26c-.38,0-.44-.33-.44-.53V9.07c0-.07,0-.56,0-.56H4.78a.46.46,0,0,1-.46-.45.47.47,0,0,1,.12-.31.48.48,0,0,1,.35-.14H6.47l.47,0,.12-.21c0-.16,0-.24,0-.31V5.35a.44.44,0,0,1,.44-.49A.45.45,0,0,1,8,5.35V7.61h2.23a.56.56,0,0,1,.4.14.46.46,0,0,1,.11.32.44.44,0,0,1-.5.44H8L8,9v1.7C8,11.06,7.81,11.26,7.52,11.26Z"/><path class="cls-1" d="M13.7,8.51a.43.43,0,0,1-.48-.43.45.45,0,0,1,.12-.33.47.47,0,0,1,.36-.14h5.37c.26,0,.54.12.55.44a.47.47,0,0,1-.11.31.59.59,0,0,1-.43.15H13.7Z"/><path class="cls-1" d="M13.76,15.56a.58.58,0,0,1-.43-.14.42.42,0,0,1-.11-.32.46.46,0,0,1,.53-.44h5.33a.59.59,0,0,1,.43.15.47.47,0,0,1,.11.31c0,.27-.21.44-.54.44H13.76Z"/><path class="cls-1" d="M13.7,17.84a.42.42,0,0,1-.45-.28.4.4,0,0,1,.09-.47.84.84,0,0,1,.39-.14h5.35c.33,0,.53.16.54.44a.4.4,0,0,1-.11.3.59.59,0,0,1-.43.15Z"/></g></svg>