<svg xmlns="http://www.w3.org/2000/svg" viewBox="0 0 16 16.31"><defs><style>.cls-1{fill:#fcfcfc;}</style></defs><title>Kantar iLink Sprite</title><g id="layer"><path class="cls-1" d="M0,8.16V2.11a.36.36,0,0,1,.31-.38l2.47-.47L4.94.85,7.6.35,9.37,0a.33.33,0,0,1,.3.06A.27.27,0,0,1,9.79.3a1.69,1.69,0,0,1,0,.23V1.89c0,.05,0,.07.06.07h5.45a.67.67,0,0,1,.59.32.56.56,0,0,1,.1.33V13.68a.67.67,0,0,1-.52.67H9.86c-.06,0-.06,0-.06.07V16a.34.34,0,0,1-.23.33.43.43,0,0,1-.25,0l-2-.38-2-.38L2.71,15,.28,14.58A.34.34,0,0,1,0,14.23Zm.65,0V13.9s0,0,0,0a0,0,0,0,0,0,0l.75.15,1.92.36,2,.39,1.92.36,1.79.35c.05,0,.06,0,.06,0,0-.55,0-1.09,0-1.64,0-3.81,0-7.62,0-11.43,0-.14,0-.28,0-.42,0-.3,0-.6,0-.89,0-.14,0-.28,0-.42s0,0-.05,0L9,.74,7.56,1,6,1.32l-1.7.32L2.48,2,.73,2.32c-.08,0-.08,0-.08.09Zm14.7,0V2.67s0-.06-.07-.06H9.86s-.07,0-.07.06c0,.5,0,1,0,1.51,0,.05,0,.06.07.06H11c.05,0,.06,0,.06.06v.54s0,0,0,0H9.86s-.07,0-.06.06V6.47s0,.06,0,.06h1.2s0,0,0,0v.53c0,.07,0,.07-.06.07H9.86s-.07,0-.06.06V8.75c0,.05,0,.06,0,.06H11c.05,0,.06,0,.06,0v.55c0,.05,0,.06,0,.06H9.85s0,0,0,.06v1.85s0,.05,0,.05H11c.05,0,.06,0,.06.06V12c0,.05,0,.06-.06.06H9.86s-.06,0-.06.06c0,.5,0,1,0,1.51,0,0,0,.06.07.06h5.42c.08,0,.07,0,.07-.07Z"/><path class="cls-1" d="M7.67,11.22H6.11A.09.09,0,0,1,6,11.17l-.7-1.33L5,9.28a1.3,1.3,0,0,1-.14-.42s0,0,0,0L4.8,9a3.15,3.15,0,0,1-.31.64l-.82,1.52s0,0,0,0H2A1.42,1.42,0,0,1,2.14,11l1.8-2.82s0-.07,0-.1c-.58-1-1.16-2-1.73-3l0,0s0,0,.05,0H3.81s0,0,.07,0L4.75,7a2.1,2.1,0,0,1,.15.42l0,0s0,0,0,0a4.09,4.09,0,0,1,.18-.49c.07-.15.16-.3.24-.45.24-.45.48-.89.71-1.34a.07.07,0,0,1,.06,0H7.61s0,0,0,0L5.83,8.08a.11.11,0,0,0,0,.12l1.82,3Z"/><path class="cls-1" d="M13.06,8.81h1.25s.06,0,.06.06v.55s0,.05,0,.05H11.8s0,0,0-.05V8.86s0,0,.05,0Z"/><path class="cls-1" d="M13.07,11.42h1.25s0,0,0,.06V12s0,.05,0,.05H11.8s0,0,0-.05v-.56s0-.05.05-.05Z"/><path class="cls-1" d="M13.06,4.24h1.25s.06,0,.06.06v.55s0,0,0,0H11.8s0,0,0,0V4.29s0,0,.05,0Z"/><path class="cls-1" d="M13.06,6.53h1.25s.06,0,.06,0v.55s0,0,0,0H11.8s0,0,0,0V6.57s0,0,0,0Z"/></g></svg>