<svg id="Layer_1" data-name="Layer 1" xmlns="http://www.w3.org/2000/svg" width="17.94" height="20.06" viewBox="0 0 17.94 20.06"><defs><style>.cls-1{fill:#fff;}</style></defs><title>iLink</title><path class="cls-1" d="M.57,17.3c-.47,0-.57-.11-.57-.59V.58C0,.1.1,0,.58,0H14.83c.51,0,.6.09.6.59v9a2,2,0,0,0-.53-.18c-.13,0-.14,0-.14-.24V5.49c0-1.38,0-2.76,0-4.14a.69.69,0,0,0-.15-.48.68.68,0,0,0-.49-.15H1.36a.64.64,0,0,0-.5.16.61.61,0,0,0-.15.47c0,1.74,0,3.49,0,5.23v9.49a.56.56,0,0,0,.14.42.55.55,0,0,0,.43.14H7.17a2.43,2.43,0,0,0,.17.67Z"/><path class="cls-1" d="M13.19,20.06A4.75,4.75,0,0,1,8.5,15.34a4.75,4.75,0,0,1,4.64-4.74,4.78,4.78,0,0,1,4.8,4.55,4.88,4.88,0,0,1-1.37,3.5,4.7,4.7,0,0,1-3.32,1.41Zm0-8.95a4.23,4.23,0,0,0,0,8.45,4.23,4.23,0,1,0,0-8.45Z"/><path class="cls-1" d="M11.24,9s-.17,0-.34,0H4.12a1.43,1.43,0,0,0,.06-.65c.73,0,1.43,0,2.12,0h5a.75.75,0,0,0,0,.23A2.4,2.4,0,0,1,11.24,9Z"/><path class="cls-1" d="M11.25,5.64H4.13A5.75,5.75,0,0,1,4.21,5a3.36,3.36,0,0,1,.55,0h6.52a.39.39,0,0,0,0,.17A2.2,2.2,0,0,1,11.25,5.64Z"/><path class="cls-1" d="M6.89,12.36H4.13c0-.28,0-.55.06-.62a3.42,3.42,0,0,1,.52,0h3.4a4.69,4.69,0,0,0-.42.67Z"/><path class="cls-1" d="M12.81,16.43v-.19c0-.6.08-.71.67-.9a1.13,1.13,0,0,0,.12-2.11,1.12,1.12,0,0,0-.47-.11,1.16,1.16,0,0,0-.78.33l0,0-.05.08-.33-.16a1.59,1.59,0,0,1,1.25-.62,1.36,1.36,0,0,1,.29,0,1.5,1.5,0,0,1,1.13,1.31,1.43,1.43,0,0,1-1,1.58.58.58,0,0,0-.42.6v.14h-.36Z"/><path class="cls-1" d="M12.78,17.89s0-.05,0-.08v-.26h.31a.71.71,0,0,1,0,.32l-.34,0Z"/></svg>