<svg xmlns="http://www.w3.org/2000/svg" viewBox="0 0 16 11.62"><defs><style>.cls-1{fill:#fcfcfc;}</style></defs><title>Kantar iLink Sprite</title><g id="layer"><path class="cls-1" d="M2.56,8.37a.23.23,0,0,1-.16-.06L.07,6l0-.06,0,0V5.8l0-.13,0,0L2.4,3.31a.23.23,0,0,1,.16-.06.25.25,0,0,1,.17.06.25.25,0,0,1,0,.34L.8,5.58H11.11a.23.23,0,1,1,0,.46H.8L2.73,8a.24.24,0,0,1,0,.33A.25.25,0,0,1,2.56,8.37Z"/><path class="cls-1" d="M10.19,11.62A5.82,5.82,0,0,1,5.37,9.06a.22.22,0,0,1,0-.18.19.19,0,0,1,.09-.14.24.24,0,0,1,.14-.05.23.23,0,0,1,.19.11,5.34,5.34,0,1,0,0-6,.21.21,0,0,1-.19.11.28.28,0,0,1-.13,0,.24.24,0,0,1-.07-.33,5.81,5.81,0,1,1,4.83,9Z"/></g></svg>