<svg xmlns="http://www.w3.org/2000/svg" viewBox="0 0 18.83 16"><defs><style>.a{fill:#f6af05;}</style></defs><title>iLink SVG Elements_Responsive</title><path class="a" d="M10.15,12.28a.2.2,0,0,1-.2-.2V6.71a.2.2,0,0,1,.2-.19.19.19,0,0,1,.19.19v5.37A.19.19,0,0,1,10.15,12.28Z"/><path class="a" d="M8.68,12.28a.2.2,0,0,1-.2-.2V6.71a.2.2,0,0,1,.4,0v5.37A.2.2,0,0,1,8.68,12.28Z"/><path class="a" d="M4.28,12.28a.2.2,0,0,1-.2-.2V6.43a.2.2,0,0,1,.4,0v5.65A.2.2,0,0,1,4.28,12.28Z"/><path class="a" d="M5.75,12.28a.2.2,0,0,1-.2-.2V6.43a.2.2,0,1,1,.39,0v5.65A.2.2,0,0,1,5.75,12.28Z"/><path class="a" d="M7.21,12.28a.19.19,0,0,1-.19-.2V6.71a.19.19,0,0,1,.19-.19.2.2,0,0,1,.2.19v5.37A.2.2,0,0,1,7.21,12.28Z"/><path class="a" d="M11.62,12.28a.2.2,0,0,1-.2-.2V6.71a.2.2,0,0,1,.2-.19.2.2,0,0,1,.19.19v5.37A.2.2,0,0,1,11.62,12.28Z"/><path class="a" d="M13.08,12.28a.19.19,0,0,1-.19-.2V6.43a.19.19,0,0,1,.19-.2.2.2,0,0,1,.2.2v5.65A.2.2,0,0,1,13.08,12.28Z"/><path class="a" d="M14.55,12.28a.2.2,0,0,1-.2-.2V6.43a.2.2,0,0,1,.4,0v5.65A.2.2,0,0,1,14.55,12.28Z"/><path class="a" d="M16.15,13.56H2.68a.2.2,0,0,1-.2-.19v-8a.2.2,0,0,1,.2-.2H6.12a.2.2,0,0,1,0,.4H2.87v7.64H16V5.53H12.71a.2.2,0,0,1,0-.4h3.44a.2.2,0,0,1,.2.2v8A.2.2,0,0,1,16.15,13.56Z"/><path class="a" d="M6.9,6.91h5a.2.2,0,0,0,.19-.2V4.39a1.68,1.68,0,0,0-1.5-1.69,1.62,1.62,0,1,0-2.41,0,1.68,1.68,0,0,0-1.5,1.69V6.71a.19.19,0,0,0,.19.2Zm.2-2.52A1.31,1.31,0,0,1,8.41,3.08h.35A.2.2,0,0,0,9,2.93a.19.19,0,0,0-.11-.22,1.23,1.23,0,1,1,1.12,0,.2.2,0,0,0-.1.22.19.19,0,0,0,.19.15h.36a1.31,1.31,0,0,1,1.31,1.31V6.52H7.1Z"/><path class="a" d="M12.71,4.47h4.15a.22.22,0,0,1,.22.23v8.67a.2.2,0,0,0,.4,0V4.7a.62.62,0,0,0-.62-.62H12.71a.19.19,0,0,0-.19.19.19.19,0,0,0,.19.2Z"/><path class="a" d="M1.55,13.56a.2.2,0,0,0,.2-.19V4.7A.22.22,0,0,1,2,4.47H6.12a.19.19,0,0,0,.19-.2.19.19,0,0,0-.19-.19H2a.62.62,0,0,0-.62.62v8.67A.2.2,0,0,0,1.55,13.56Z"/><path class="a" d="M17.94,14.23H.89A.89.89,0,1,0,.89,16H17.94a.89.89,0,1,0,0-1.77Zm0,1.38H.89a.5.5,0,1,1,0-1H17.94a.5.5,0,1,1,0,1Z"/><path class="a" d="M5.75,12.28H4.28a.2.2,0,0,1-.2-.2V10.67a.2.2,0,0,1,.2-.2H5.75a.2.2,0,0,1,.19.2v1.41A.2.2,0,0,1,5.75,12.28Zm-1.27-.4H5.55v-1H4.48Z"/><path class="a" d="M8.68,12.28H7.21a.19.19,0,0,1-.19-.2V9.7a.19.19,0,0,1,.19-.2H8.68a.2.2,0,0,1,.2.2v2.38A.2.2,0,0,1,8.68,12.28Zm-1.27-.4H8.48v-2H7.41Z"/><path class="a" d="M11.62,12.28H10.15a.2.2,0,0,1-.2-.2V8.63a.2.2,0,0,1,.2-.2h1.47a.2.2,0,0,1,.19.2v3.45A.2.2,0,0,1,11.62,12.28Zm-1.28-.4h1.08V8.82H10.34Z"/><path class="a" d="M14.55,12.28H13.08a.19.19,0,0,1-.19-.2V7.65a.19.19,0,0,1,.19-.2h1.47a.2.2,0,0,1,.2.2v4.43A.2.2,0,0,1,14.55,12.28Zm-1.27-.4h1.07v-4H13.28Z"/></svg>