<?xml version="1.0" encoding="utf-8"?>
<!-- Generator: Adobe Illustrator 24.0.1, SVG Export Plug-In . SVG Version: 6.00 Build 0)  -->
<svg version="1.1" id="Layer_1" xmlns="http://www.w3.org/2000/svg" xmlns:xlink="http://www.w3.org/1999/xlink" x="0px" y="0px"
	 viewBox="0 0 13.3 12.2" style="enable-background:new 0 0 13.3 12.2;" xml:space="preserve">
<style type="text/css">
	.st0{fill:none;stroke:#FCFCFC;stroke-width:0.5;stroke-linecap:round;stroke-linejoin:round;}
</style>
<g id="Layer_2_2_">
	<g id="Icons_1_">
		<g id="Video-Movies-TV_Video-Players_video-player-movie-1_1_">
			<g id="Group_49_1_">
				<g id="video-player-movie-1_1_">
					<path id="Shape_258_1_" class="st0" d="M0.2,4.1H13v6.7c0,0.6-0.5,1.1-1.1,1.1H1.4c-0.6,0-1.1-0.5-1.1-1.1V4.1z"/>
					<path id="Shape_259_1_" class="st0" d="M1.4,0.2h10.5c0.6,0,1.1,0.5,1.1,1.1V3H0.2V1.4C0.2,0.7,0.7,0.2,1.4,0.2z"/>
					<path id="Shape_260_1_" class="st0" d="M5.2,6C5,5.9,4.8,6,4.7,6.2c0,0,0,0.1,0,0.2v3.3c0,0.2,0.2,0.4,0.4,0.4
						c0.1,0,0.1,0,0.2,0l3.7-1.6c0.2-0.1,0.3-0.3,0.2-0.6c0-0.1-0.1-0.2-0.2-0.2L5.2,6z"/>
					<path id="Shape_261_1_" class="st0" d="M2.5,3l2.8-2.8"/>
					<path id="Shape_262_1_" class="st0" d="M5.2,3L8,0.2"/>
					<path id="Shape_263_1_" class="st0" d="M8,3l2.8-2.8"/>
					<path id="Shape_264_1_" class="st0" d="M10.8,3l2.1-2.1"/>
					<path id="Shape_265_1_" class="st0" d="M0.2,2.5l2.2-2.2"/>
				</g>
			</g>
		</g>
	</g>
</g>
</svg>
