<svg xmlns="http://www.w3.org/2000/svg" width="20.1" height="20" viewBox="0 0 20.1 20"><defs><style>.a{fill:#cda642;stroke:#cda642;stroke-miterlimit:10;stroke-width:0.4px;}</style></defs><title>Kantar iLink_Non-Responsive</title><path class="a" d="M1.9,18.5H18.2a.34.34,0,0,0,.35-.35v-3.7a.35.35,0,1,0-.69,0v3.36H2.24V14.45a.35.35,0,1,0-.69,0v3.7A.34.34,0,0,0,1.9,18.5Z"/><path class="a" d="M6.1,6.18a.36.36,0,0,0,.49,0L9.7,3.06v11a.35.35,0,0,0,.7,0v-11l3.11,3.12a.36.36,0,0,0,.49,0,.34.34,0,0,0,0-.49L10.53,2.22a.52.52,0,0,0-.48-.34h0l-.1,0h0a.53.53,0,0,0-.34.31L6.1,5.69A.34.34,0,0,0,6.1,6.18Z"/></svg>