<svg xmlns="http://www.w3.org/2000/svg" viewBox="0 0 20.1 20"><defs><style>.a,.c{fill:#cda642;}.b{fill:none;stroke-width:0.75px;}.b,.c{stroke:#cda642;stroke-miterlimit:10;}.c{stroke-width:0.4px;}</style></defs><title>Kantar iLink_Responsive</title><path class="a" d="M18.67,5.88a.35.35,0,0,0-.33,0l-3.57,2V6.66A1.65,1.65,0,0,0,13.12,5H4.9A1.65,1.65,0,0,0,3.25,6.66V7.74a4.6,4.6,0,0,1,.66-.2V6.66a1,1,0,0,1,1-1h8.22a1,1,0,0,1,1,1v6.52a1,1,0,0,1-1,1H7.82a3.93,3.93,0,0,1-.69.66h6a1.65,1.65,0,0,0,1.65-1.65V12l3.57,2a.35.35,0,0,0,.33,0,.32.32,0,0,0,.16-.28V6.17A.34.34,0,0,0,18.67,5.88Zm-.5,7.25-3.4-1.86V8.58l3.4-1.86Z"/><circle class="b" cx="4.71" cy="11.55" r="3.44"/><path class="c" d="M3.29,10.91a.11.11,0,0,0,.17,0L4.58,9.79v4a.13.13,0,0,0,.13.13.12.12,0,0,0,.12-.13v-4L6,10.91a.13.13,0,0,0,.18-.18L4.88,9.48a.18.18,0,0,0-.17-.12h0a.19.19,0,0,0-.12.11L3.29,10.73A.13.13,0,0,0,3.29,10.91Z"/></svg>